STARTFONT 2.1
COMMENT
COMMENT Converted from OpenType font "dqhtjw3.otf" by "otf2bdf 3.0".
COMMENT
FONT -FreeType-Hiragino Sans GB W3-Medium-R-Normal--12-90-100-100-P-115-ISO10646-1
SIZE 9 100 100
FONTBOUNDINGBOX 13 15 -1 -3
STARTPROPERTIES 19
FOUNDRY "FreeType"
FAMILY_NAME "Hiragino Sans GB W3"
WEIGHT_NAME "Medium"
SLANT "R"
SETWIDTH_NAME "Normal"
ADD_STYLE_NAME ""
PIXEL_SIZE 12
POINT_SIZE 90
RESOLUTION_X 100
RESOLUTION_Y 100
SPACING "P"
AVERAGE_WIDTH 115
CHARSET_REGISTRY "ISO10646"
CHARSET_ENCODING "1"
FONT_ASCENT 11
FONT_DESCENT 1
COPYRIGHT "ver3.10, Copyright © 2007-2011 Dainippon Screen Mfg. Co., Ltd. All Rights Reserved."
_OTF_FONTFILE "dqhtjw3.otf"
_OTF_PSNAME "HiraginoSansGB-W3"
ENDPROPERTIES
CHARS 29018
STARTCHAR 0000
ENCODING 0
SWIDTH 320 0
DWIDTH 4 0
BBX 0 0 0 0
BITMAP
ENDCHAR
STARTCHAR 0001
ENCODING 1
SWIDTH 320 0
DWIDTH 4 0
BBX 0 0 0 0
BITMAP
ENDCHAR
STARTCHAR 0002
ENCODING 2
SWIDTH 320 0
DWIDTH 4 0
BBX 0 0 0 0
BITMAP
ENDCHAR
STARTCHAR 0003
ENCODING 3
SWIDTH 320 0
DWIDTH 4 0
BBX 0 0 0 0
BITMAP
ENDCHAR
STARTCHAR 0004
ENCODING 4
SWIDTH 320 0
DWIDTH 4 0
BBX 0 0 0 0
BITMAP
ENDCHAR
STARTCHAR 0005
ENCODING 5
SWIDTH 320 0
DWIDTH 4 0
BBX 0 0 0 0
BITMAP
ENDCHAR
STARTCHAR 0006
ENCODING 6
SWIDTH 320 0
DWIDTH 4 0
BBX 0 0 0 0
BITMAP
ENDCHAR
STARTCHAR 0007
ENCODING 7
SWIDTH 320 0
DWIDTH 4 0
BBX 0 0 0 0
BITMAP
ENDCHAR
STARTCHAR 0008
ENCODING 8
SWIDTH 320 0
DWIDTH 4 0
BBX 0 0 0 0
BITMAP
ENDCHAR
STARTCHAR 0009
ENCODING 9
SWIDTH 320 0
DWIDTH 4 0
BBX 0 0 0 0
BITMAP
ENDCHAR
STARTCHAR 000A
ENCODING 10
SWIDTH 320 0
DWIDTH 4 0
BBX 0 0 0 0
BITMAP
ENDCHAR
STARTCHAR 000B
ENCODING 11
SWIDTH 320 0
DWIDTH 4 0
BBX 0 0 0 0
BITMAP
ENDCHAR
STARTCHAR 000C
ENCODING 12
SWIDTH 320 0
DWIDTH 4 0
BBX 0 0 0 0
BITMAP
ENDCHAR
STARTCHAR 000D
ENCODING 13
SWIDTH 320 0
DWIDTH 4 0
BBX 0 0 0 0
BITMAP
ENDCHAR
STARTCHAR 000E
ENCODING 14
SWIDTH 320 0
DWIDTH 4 0
BBX 0 0 0 0
BITMAP
ENDCHAR
STARTCHAR 000F
ENCODING 15
SWIDTH 320 0
DWIDTH 4 0
BBX 0 0 0 0
BITMAP
ENDCHAR
STARTCHAR 0010
ENCODING 16
SWIDTH 320 0
DWIDTH 4 0
BBX 0 0 0 0
BITMAP
ENDCHAR
STARTCHAR 0011
ENCODING 17
SWIDTH 320 0
DWIDTH 4 0
BBX 0 0 0 0
BITMAP
ENDCHAR
STARTCHAR 0012
ENCODING 18
SWIDTH 320 0
DWIDTH 4 0
BBX 0 0 0 0
BITMAP
ENDCHAR
STARTCHAR 0013
ENCODING 19
SWIDTH 320 0
DWIDTH 4 0
BBX 0 0 0 0
BITMAP
ENDCHAR
STARTCHAR 0014
ENCODING 20
SWIDTH 320 0
DWIDTH 4 0
BBX 0 0 0 0
BITMAP
ENDCHAR
STARTCHAR 0015
ENCODING 21
SWIDTH 320 0
DWIDTH 4 0
BBX 0 0 0 0
BITMAP
ENDCHAR
STARTCHAR 0016
ENCODING 22
SWIDTH 320 0
DWIDTH 4 0
BBX 0 0 0 0
BITMAP
ENDCHAR
STARTCHAR 0017
ENCODING 23
SWIDTH 320 0
DWIDTH 4 0
BBX 0 0 0 0
BITMAP
ENDCHAR
STARTCHAR 0018
ENCODING 24
SWIDTH 320 0
DWIDTH 4 0
BBX 0 0 0 0
BITMAP
ENDCHAR
STARTCHAR 0019
ENCODING 25
SWIDTH 320 0
DWIDTH 4 0
BBX 0 0 0 0
BITMAP
ENDCHAR
STARTCHAR 001A
ENCODING 26
SWIDTH 320 0
DWIDTH 4 0
BBX 0 0 0 0
BITMAP
ENDCHAR
STARTCHAR 001B
ENCODING 27
SWIDTH 320 0
DWIDTH 4 0
BBX 0 0 0 0
BITMAP
ENDCHAR
STARTCHAR 001C
ENCODING 28
SWIDTH 320 0
DWIDTH 4 0
BBX 0 0 0 0
BITMAP
ENDCHAR
STARTCHAR 001D
ENCODING 29
SWIDTH 320 0
DWIDTH 4 0
BBX 0 0 0 0
BITMAP
ENDCHAR
STARTCHAR 001E
ENCODING 30
SWIDTH 320 0
DWIDTH 4 0
BBX 0 0 0 0
BITMAP
ENDCHAR
STARTCHAR 001F
ENCODING 31
SWIDTH 320 0
DWIDTH 4 0
BBX 0 0 0 0
BITMAP
ENDCHAR
STARTCHAR 0020
ENCODING 32
SWIDTH 320 0
DWIDTH 4 0
BBX 0 0 0 0
BITMAP
ENDCHAR
STARTCHAR 0021
ENCODING 33
SWIDTH 320 0
DWIDTH 4 0
BBX 2 10 1 0
BITMAP
C0
80
80
80
80
80
80
80
00
C0
ENDCHAR
STARTCHAR 0022
ENCODING 34
SWIDTH 320 0
DWIDTH 4 0
BBX 3 3 1 7
BITMAP
A0
A0
A0
ENDCHAR
STARTCHAR 0023
ENCODING 35
SWIDTH 640 0
DWIDTH 8 0
BBX 7 10 1 0
BITMAP
28
28
28
FE
48
48
FC
50
50
50
ENDCHAR
STARTCHAR 0024
ENCODING 36
SWIDTH 640 0
DWIDTH 8 0
BBX 6 11 1 -1
BITMAP
20
7C
A4
A0
60
1C
24
A4
A4
78
20
ENDCHAR
STARTCHAR 0025
ENCODING 37
SWIDTH 880 0
DWIDTH 11 0
BBX 9 10 1 0
BITMAP
E100
9100
9200
9400
9B00
7480
1480
2480
4480
8380
ENDCHAR
STARTCHAR 0026
ENCODING 38
SWIDTH 800 0
DWIDTH 10 0
BBX 8 10 1 0
BITMAP
38
44
44
48
30
D1
89
86
86
79
ENDCHAR
STARTCHAR 0027
ENCODING 39
SWIDTH 160 0
DWIDTH 2 0
BBX 1 3 1 7
BITMAP
80
80
80
ENDCHAR
STARTCHAR 0028
ENCODING 40
SWIDTH 320 0
DWIDTH 4 0
BBX 3 12 1 -2
BITMAP
20
40
40
40
80
80
80
40
40
40
20
20
ENDCHAR
STARTCHAR 0029
ENCODING 41
SWIDTH 320 0
DWIDTH 4 0
BBX 3 11 0 -2
BITMAP
80
40
40
20
20
20
20
20
20
40
40
ENDCHAR
STARTCHAR 002A
ENCODING 42
SWIDTH 320 0
DWIDTH 4 0
BBX 4 4 0 6
BITMAP
20
50
F0
20
ENDCHAR
STARTCHAR 002B
ENCODING 43
SWIDTH 640 0
DWIDTH 8 0
BBX 7 7 1 0
BITMAP
10
10
10
FE
10
10
10
ENDCHAR
STARTCHAR 002C
ENCODING 44
SWIDTH 240 0
DWIDTH 3 0
BBX 1 3 1 -2
BITMAP
80
80
80
ENDCHAR
STARTCHAR 002D
ENCODING 45
SWIDTH 320 0
DWIDTH 4 0
BBX 4 1 0 3
BITMAP
F0
ENDCHAR
STARTCHAR 002E
ENCODING 46
SWIDTH 240 0
DWIDTH 3 0
BBX 1 1 1 0
BITMAP
80
ENDCHAR
STARTCHAR 002F
ENCODING 47
SWIDTH 480 0
DWIDTH 6 0
BBX 4 11 1 -1
BITMAP
10
10
10
20
20
20
40
40
80
80
80
ENDCHAR
STARTCHAR 0030
ENCODING 48
SWIDTH 640 0
DWIDTH 8 0
BBX 7 10 1 0
BITMAP
78
C4
84
84
82
82
86
84
C4
78
ENDCHAR
STARTCHAR 0031
ENCODING 49
SWIDTH 640 0
DWIDTH 8 0
BBX 3 10 2 0
BITMAP
E0
20
20
20
20
20
20
20
20
20
ENDCHAR
STARTCHAR 0032
ENCODING 50
SWIDTH 640 0
DWIDTH 8 0
BBX 6 10 1 0
BITMAP
78
C4
84
04
08
10
60
40
80
FC
ENDCHAR
STARTCHAR 0033
ENCODING 51
SWIDTH 640 0
DWIDTH 8 0
BBX 6 10 1 0
BITMAP
78
84
04
04
38
0C
04
84
84
78
ENDCHAR
STARTCHAR 0034
ENCODING 52
SWIDTH 640 0
DWIDTH 8 0
BBX 8 10 0 0
BITMAP
04
0C
1C
14
24
64
C7
3F
04
04
ENDCHAR
STARTCHAR 0035
ENCODING 53
SWIDTH 640 0
DWIDTH 8 0
BBX 6 10 1 0
BITMAP
7C
80
80
B8
C4
04
04
04
84
78
ENDCHAR
STARTCHAR 0036
ENCODING 54
SWIDTH 640 0
DWIDTH 8 0
BBX 7 10 1 0
BITMAP
38
44
80
B8
C4
84
82
84
C4
78
ENDCHAR
STARTCHAR 0037
ENCODING 55
SWIDTH 640 0
DWIDTH 8 0
BBX 6 10 1 0
BITMAP
FC
04
08
08
10
10
20
20
20
20
ENDCHAR
STARTCHAR 0038
ENCODING 56
SWIDTH 640 0
DWIDTH 8 0
BBX 7 10 1 0
BITMAP
78
84
84
84
78
C4
86
82
84
78
ENDCHAR
STARTCHAR 0039
ENCODING 57
SWIDTH 640 0
DWIDTH 8 0
BBX 6 10 1 0
BITMAP
78
84
84
84
84
8C
74
04
84
78
ENDCHAR
STARTCHAR 003A
ENCODING 58
SWIDTH 240 0
DWIDTH 3 0
BBX 1 7 1 0
BITMAP
80
00
00
00
00
00
80
ENDCHAR
STARTCHAR 003B
ENCODING 59
SWIDTH 240 0
DWIDTH 3 0
BBX 1 9 1 -2
BITMAP
80
00
00
00
00
00
80
80
80
ENDCHAR
STARTCHAR 003C
ENCODING 60
SWIDTH 480 0
DWIDTH 6 0
BBX 6 7 0 0
BITMAP
04
18
20
C0
20
18
04
ENDCHAR
STARTCHAR 003D
ENCODING 61
SWIDTH 640 0
DWIDTH 8 0
BBX 7 3 1 2
BITMAP
FE
00
FE
ENDCHAR
STARTCHAR 003E
ENCODING 62
SWIDTH 480 0
DWIDTH 6 0
BBX 6 7 0 0
BITMAP
80
60
18
04
18
60
80
ENDCHAR
STARTCHAR 003F
ENCODING 63
SWIDTH 560 0
DWIDTH 7 0
BBX 7 10 0 0
BITMAP
38
44
82
04
0C
10
10
10
00
10
ENDCHAR
STARTCHAR 0040
ENCODING 64
SWIDTH 880 0
DWIDTH 11 0
BBX 10 10 1 0
BITMAP
1E00
6180
8C80
9240
A240
A280
A480
9B00
4000
3F00
ENDCHAR
STARTCHAR 0041
ENCODING 65
SWIDTH 720 0
DWIDTH 9 0
BBX 9 10 0 0
BITMAP
0800
1400
1400
1200
2200
2200
3F00
4100
4180
C080
ENDCHAR
STARTCHAR 0042
ENCODING 66
SWIDTH 720 0
DWIDTH 9 0
BBX 7 10 1 0
BITMAP
FC
82
82
82
FC
82
82
82
82
FC
ENDCHAR
STARTCHAR 0043
ENCODING 67
SWIDTH 720 0
DWIDTH 9 0
BBX 8 10 1 0
BITMAP
3C
42
81
80
80
80
80
81
42
3C
ENDCHAR
STARTCHAR 0044
ENCODING 68
SWIDTH 720 0
DWIDTH 9 0
BBX 8 10 1 0
BITMAP
FC
82
82
81
81
81
81
82
86
FC
ENDCHAR
STARTCHAR 0045
ENCODING 69
SWIDTH 640 0
DWIDTH 8 0
BBX 6 10 1 0
BITMAP
FC
80
80
80
FC
80
80
80
80
FC
ENDCHAR
STARTCHAR 0046
ENCODING 70
SWIDTH 640 0
DWIDTH 8 0
BBX 6 10 1 0
BITMAP
FC
80
80
80
F8
80
80
80
80
80
ENDCHAR
STARTCHAR 0047
ENCODING 71
SWIDTH 720 0
DWIDTH 9 0
BBX 8 10 1 0
BITMAP
3C
42
80
80
80
87
81
81
43
3E
ENDCHAR
STARTCHAR 0048
ENCODING 72
SWIDTH 800 0
DWIDTH 10 0
BBX 8 10 1 0
BITMAP
81
81
81
81
FF
81
81
81
81
81
ENDCHAR
STARTCHAR 0049
ENCODING 73
SWIDTH 240 0
DWIDTH 3 0
BBX 1 10 1 0
BITMAP
80
80
80
80
80
80
80
80
80
80
ENDCHAR
STARTCHAR 004A
ENCODING 74
SWIDTH 480 0
DWIDTH 6 0
BBX 5 10 0 0
BITMAP
08
08
08
08
08
08
08
08
88
70
ENDCHAR
STARTCHAR 004B
ENCODING 75
SWIDTH 720 0
DWIDTH 9 0
BBX 7 10 1 0
BITMAP
86
8C
98
90
A0
D0
88
8C
84
82
ENDCHAR
STARTCHAR 004C
ENCODING 76
SWIDTH 640 0
DWIDTH 8 0
BBX 6 10 1 0
BITMAP
80
80
80
80
80
80
80
80
80
FC
ENDCHAR
STARTCHAR 004D
ENCODING 77
SWIDTH 960 0
DWIDTH 12 0
BBX 10 10 1 0
BITMAP
C0C0
C0C0
C140
A140
A140
9240
9240
9440
8C40
8840
ENDCHAR
STARTCHAR 004E
ENCODING 78
SWIDTH 800 0
DWIDTH 10 0
BBX 8 10 1 0
BITMAP
C1
C1
A1
A1
91
89
89
85
87
83
ENDCHAR
STARTCHAR 004F
ENCODING 79
SWIDTH 800 0
DWIDTH 10 0
BBX 8 10 1 0
BITMAP
3C
42
81
81
81
81
81
81
42
3C
ENDCHAR
STARTCHAR 0050
ENCODING 80
SWIDTH 640 0
DWIDTH 8 0
BBX 7 10 1 0
BITMAP
FC
86
82
82
86
FC
80
80
80
80
ENDCHAR
STARTCHAR 0051
ENCODING 81
SWIDTH 800 0
DWIDTH 10 0
BBX 8 10 1 -1
BITMAP
3C
42
81
81
81
81
81
81
46
3E
ENDCHAR
STARTCHAR 0052
ENCODING 82
SWIDTH 720 0
DWIDTH 9 0
BBX 7 10 1 0
BITMAP
FC
82
82
82
FC
88
84
84
82
82
ENDCHAR
STARTCHAR 0053
ENCODING 83
SWIDTH 640 0
DWIDTH 8 0
BBX 7 10 1 0
BITMAP
78
84
84
80
70
0C
06
82
84
78
ENDCHAR
STARTCHAR 0054
ENCODING 84
SWIDTH 640 0
DWIDTH 8 0
BBX 8 10 0 0
BITMAP
FF
08
08
08
08
08
08
08
08
08
ENDCHAR
STARTCHAR 0055
ENCODING 85
SWIDTH 800 0
DWIDTH 10 0
BBX 8 10 1 0
BITMAP
81
81
81
81
81
81
81
82
42
3C
ENDCHAR
STARTCHAR 0056
ENCODING 86
SWIDTH 720 0
DWIDTH 9 0
BBX 9 10 0 0
BITMAP
C180
4100
4100
2200
2200
2200
1400
1400
1400
0800
ENDCHAR
STARTCHAR 0057
ENCODING 87
SWIDTH 1040 0
DWIDTH 13 0
BBX 12 10 0 0
BITMAP
8210
4610
4610
4520
4520
2920
28A0
28C0
30C0
1040
ENDCHAR
STARTCHAR 0058
ENCODING 88
SWIDTH 720 0
DWIDTH 9 0
BBX 7 10 1 0
BITMAP
82
44
6C
28
10
28
28
44
C6
82
ENDCHAR
STARTCHAR 0059
ENCODING 89
SWIDTH 720 0
DWIDTH 9 0
BBX 7 10 1 0
BITMAP
82
84
44
48
28
10
10
10
10
10
ENDCHAR
STARTCHAR 005A
ENCODING 90
SWIDTH 640 0
DWIDTH 8 0
BBX 8 10 0 0
BITMAP
7F
02
04
04
08
10
30
20
40
FF
ENDCHAR
STARTCHAR 005B
ENCODING 91
SWIDTH 320 0
DWIDTH 4 0
BBX 2 12 2 -2
BITMAP
C0
80
80
80
80
80
80
80
80
80
80
C0
ENDCHAR
STARTCHAR 005C
ENCODING 92
SWIDTH 480 0
DWIDTH 6 0
BBX 5 11 0 -1
BITMAP
80
40
40
20
20
20
10
10
08
08
08
ENDCHAR
STARTCHAR 005D
ENCODING 93
SWIDTH 320 0
DWIDTH 4 0
BBX 3 12 0 -2
BITMAP
E0
20
20
20
20
20
20
20
20
20
20
E0
ENDCHAR
STARTCHAR 005E
ENCODING 94
SWIDTH 560 0
DWIDTH 7 0
BBX 6 5 0 5
BITMAP
10
30
28
44
84
ENDCHAR
STARTCHAR 005F
ENCODING 95
SWIDTH 480 0
DWIDTH 6 0
BBX 6 1 0 -2
BITMAP
FC
ENDCHAR
STARTCHAR 0060
ENCODING 96
SWIDTH 480 0
DWIDTH 6 0
BBX 2 2 2 8
BITMAP
80
C0
ENDCHAR
STARTCHAR 0061
ENCODING 97
SWIDTH 560 0
DWIDTH 7 0
BBX 5 7 1 0
BITMAP
78
88
08
78
88
88
F8
ENDCHAR
STARTCHAR 0062
ENCODING 98
SWIDTH 640 0
DWIDTH 8 0
BBX 6 10 1 0
BITMAP
80
80
80
B8
C4
84
84
84
C4
F8
ENDCHAR
STARTCHAR 0063
ENCODING 99
SWIDTH 560 0
DWIDTH 7 0
BBX 5 7 1 0
BITMAP
70
88
80
80
80
88
78
ENDCHAR
STARTCHAR 0064
ENCODING 100
SWIDTH 640 0
DWIDTH 8 0
BBX 6 10 1 0
BITMAP
04
04
04
74
8C
84
84
84
8C
74
ENDCHAR
STARTCHAR 0065
ENCODING 101
SWIDTH 560 0
DWIDTH 7 0
BBX 6 7 1 0
BITMAP
70
88
84
FC
80
8C
78
ENDCHAR
STARTCHAR 0066
ENCODING 102
SWIDTH 400 0
DWIDTH 5 0
BBX 5 10 0 0
BITMAP
38
20
20
F8
20
20
20
20
20
20
ENDCHAR
STARTCHAR 0067
ENCODING 103
SWIDTH 640 0
DWIDTH 8 0
BBX 6 10 1 -3
BITMAP
74
8C
84
84
84
8C
74
04
8C
78
ENDCHAR
STARTCHAR 0068
ENCODING 104
SWIDTH 640 0
DWIDTH 8 0
BBX 6 10 1 0
BITMAP
80
80
80
B8
C4
84
84
84
84
84
ENDCHAR
STARTCHAR 0069
ENCODING 105
SWIDTH 240 0
DWIDTH 3 0
BBX 1 10 1 0
BITMAP
80
00
00
80
80
80
80
80
80
80
ENDCHAR
STARTCHAR 006A
ENCODING 106
SWIDTH 240 0
DWIDTH 3 0
BBX 3 13 -1 -3
BITMAP
20
00
00
20
20
20
20
20
20
20
20
20
E0
ENDCHAR
STARTCHAR 006B
ENCODING 107
SWIDTH 560 0
DWIDTH 7 0
BBX 5 10 1 0
BITMAP
80
80
80
88
90
A0
E0
90
98
88
ENDCHAR
STARTCHAR 006C
ENCODING 108
SWIDTH 240 0
DWIDTH 3 0
BBX 1 10 1 0
BITMAP
80
80
80
80
80
80
80
80
80
80
ENDCHAR
STARTCHAR 006D
ENCODING 109
SWIDTH 960 0
DWIDTH 12 0
BBX 10 7 1 0
BITMAP
BB80
CC40
8840
8840
8840
8840
8840
ENDCHAR
STARTCHAR 006E
ENCODING 110
SWIDTH 640 0
DWIDTH 8 0
BBX 6 7 1 0
BITMAP
B8
C4
84
84
84
84
84
ENDCHAR
STARTCHAR 006F
ENCODING 111
SWIDTH 640 0
DWIDTH 8 0
BBX 6 7 1 0
BITMAP
78
84
84
84
84
84
78
ENDCHAR
STARTCHAR 0070
ENCODING 112
SWIDTH 640 0
DWIDTH 8 0
BBX 6 10 1 -3
BITMAP
B8
C4
84
84
84
C4
B8
80
80
80
ENDCHAR
STARTCHAR 0071
ENCODING 113
SWIDTH 640 0
DWIDTH 8 0
BBX 6 9 1 -3
BITMAP
74
8C
84
84
84
8C
74
04
04
ENDCHAR
STARTCHAR 0072
ENCODING 114
SWIDTH 400 0
DWIDTH 5 0
BBX 4 7 1 0
BITMAP
B0
C0
80
80
80
80
80
ENDCHAR
STARTCHAR 0073
ENCODING 115
SWIDTH 560 0
DWIDTH 7 0
BBX 5 7 1 0
BITMAP
70
88
80
70
08
88
F0
ENDCHAR
STARTCHAR 0074
ENCODING 116
SWIDTH 400 0
DWIDTH 5 0
BBX 5 9 0 0
BITMAP
20
20
F8
20
20
20
20
20
38
ENDCHAR
STARTCHAR 0075
ENCODING 117
SWIDTH 640 0
DWIDTH 8 0
BBX 6 7 1 0
BITMAP
84
84
84
84
84
8C
74
ENDCHAR
STARTCHAR 0076
ENCODING 118
SWIDTH 560 0
DWIDTH 7 0
BBX 6 7 0 0
BITMAP
84
44
44
28
28
30
10
ENDCHAR
STARTCHAR 0077
ENCODING 119
SWIDTH 800 0
DWIDTH 10 0
BBX 9 7 0 0
BITMAP
8880
4C80
4C80
5500
5300
3300
2200
ENDCHAR
STARTCHAR 0078
ENCODING 120
SWIDTH 560 0
DWIDTH 7 0
BBX 5 7 1 0
BITMAP
88
D0
70
20
50
90
88
ENDCHAR
STARTCHAR 0079
ENCODING 121
SWIDTH 560 0
DWIDTH 7 0
BBX 7 10 0 -3
BITMAP
86
44
44
28
28
28
10
10
20
60
ENDCHAR
STARTCHAR 007A
ENCODING 122
SWIDTH 480 0
DWIDTH 6 0
BBX 6 7 0 0
BITMAP
7C
08
10
30
20
40
FC
ENDCHAR
STARTCHAR 007B
ENCODING 123
SWIDTH 320 0
DWIDTH 4 0
BBX 3 12 1 -2
BITMAP
60
40
40
40
40
80
C0
40
40
40
40
60
ENDCHAR
STARTCHAR 007C
ENCODING 124
SWIDTH 400 0
DWIDTH 5 0
BBX 1 12 2 -2
BITMAP
80
80
80
80
80
80
80
80
80
80
80
80
ENDCHAR
STARTCHAR 007D
ENCODING 125
SWIDTH 320 0
DWIDTH 4 0
BBX 3 12 0 -2
BITMAP
C0
20
20
20
20
20
20
20
20
20
20
C0
ENDCHAR
STARTCHAR 007E
ENCODING 126
SWIDTH 560 0
DWIDTH 7 0
BBX 5 1 1 3
BITMAP
F8
ENDCHAR
STARTCHAR 00A0
ENCODING 160
SWIDTH 320 0
DWIDTH 4 0
BBX 0 0 0 0
BITMAP
ENDCHAR
STARTCHAR 00A4
ENCODING 164
SWIDTH 1040 0
DWIDTH 13 0
BBX 6 6 3 2
BITMAP
B4
48
84
84
44
BC
ENDCHAR
STARTCHAR 00A5
ENCODING 165
SWIDTH 720 0
DWIDTH 9 0
BBX 7 10 1 0
BITMAP
82
84
44
48
EE
10
FE
10
10
10
ENDCHAR
STARTCHAR 00A7
ENCODING 167
SWIDTH 1040 0
DWIDTH 13 0
BBX 6 10 3 0
BITMAP
78
44
40
78
84
44
3C
04
C4
78
ENDCHAR
STARTCHAR 00A8
ENCODING 168
SWIDTH 1040 0
DWIDTH 13 0
BBX 4 1 4 10
BITMAP
90
ENDCHAR
STARTCHAR 00A9
ENCODING 169
SWIDTH 560 0
DWIDTH 7 0
BBX 7 6 0 2
BITMAP
38
FC
C2
C2
BC
78
ENDCHAR
STARTCHAR 00B0
ENCODING 176
SWIDTH 1040 0
DWIDTH 13 0
BBX 3 3 0 8
BITMAP
60
A0
40
ENDCHAR
STARTCHAR 00B1
ENCODING 177
SWIDTH 1040 0
DWIDTH 13 0
BBX 9 9 2 1
BITMAP
0800
0800
0800
FF80
0800
0800
0800
0800
FF80
ENDCHAR
STARTCHAR 00B7
ENCODING 183
SWIDTH 1040 0
DWIDTH 13 0
BBX 2 2 5 4
BITMAP
C0
C0
ENDCHAR
STARTCHAR 00D7
ENCODING 215
SWIDTH 1040 0
DWIDTH 13 0
BBX 6 7 3 2
BITMAP
84
48
30
30
48
84
80
ENDCHAR
STARTCHAR 00E0
ENCODING 224
SWIDTH 640 0
DWIDTH 8 0
BBX 7 10 1 0
BITMAP
40
20
00
74
8C
84
84
84
8C
72
ENDCHAR
STARTCHAR 00E1
ENCODING 225
SWIDTH 640 0
DWIDTH 8 0
BBX 7 10 1 0
BITMAP
08
30
00
74
8C
84
84
84
8C
72
ENDCHAR
STARTCHAR 00E8
ENCODING 232
SWIDTH 560 0
DWIDTH 7 0
BBX 6 10 1 0
BITMAP
40
60
00
70
88
84
FC
80
8C
78
ENDCHAR
STARTCHAR 00E9
ENCODING 233
SWIDTH 560 0
DWIDTH 7 0
BBX 6 10 1 0
BITMAP
08
30
00
70
88
84
FC
80
8C
78
ENDCHAR
STARTCHAR 00EA
ENCODING 234
SWIDTH 560 0
DWIDTH 7 0
BBX 6 9 1 1
BITMAP
78
00
70
88
84
FC
80
8C
78
ENDCHAR
STARTCHAR 00EC
ENCODING 236
SWIDTH 320 0
DWIDTH 4 0
BBX 2 10 0 0
BITMAP
80
40
00
40
40
40
40
40
40
40
ENDCHAR
STARTCHAR 00ED
ENCODING 237
SWIDTH 320 0
DWIDTH 4 0
BBX 3 10 1 0
BITMAP
20
C0
00
80
80
80
80
80
80
80
ENDCHAR
STARTCHAR 00F2
ENCODING 242
SWIDTH 640 0
DWIDTH 8 0
BBX 6 10 1 0
BITMAP
40
20
00
78
84
84
84
84
84
78
ENDCHAR
STARTCHAR 00F3
ENCODING 243
SWIDTH 640 0
DWIDTH 8 0
BBX 6 10 1 0
BITMAP
08
30
00
78
84
84
84
84
84
78
ENDCHAR
STARTCHAR 00F7
ENCODING 247
SWIDTH 1040 0
DWIDTH 13 0
BBX 9 8 2 1
BITMAP
0800
1800
0000
FF80
0000
0000
0800
1800
ENDCHAR
STARTCHAR 00F9
ENCODING 249
SWIDTH 640 0
DWIDTH 8 0
BBX 6 10 1 0
BITMAP
40
20
00
84
84
84
84
84
8C
74
ENDCHAR
STARTCHAR 00FA
ENCODING 250
SWIDTH 640 0
DWIDTH 8 0
BBX 6 10 1 0
BITMAP
08
30
00
84
84
84
84
84
8C
74
ENDCHAR
STARTCHAR 00FC
ENCODING 252
SWIDTH 640 0
DWIDTH 8 0
BBX 6 9 1 0
BITMAP
58
00
84
84
84
84
84
8C
74
ENDCHAR
STARTCHAR 0101
ENCODING 257
SWIDTH 640 0
DWIDTH 8 0
BBX 7 9 1 0
BITMAP
78
00
74
8C
84
84
84
8C
72
ENDCHAR
STARTCHAR 0113
ENCODING 275
SWIDTH 560 0
DWIDTH 7 0
BBX 6 9 1 0
BITMAP
78
00
70
88
84
FC
80
8C
78
ENDCHAR
STARTCHAR 011B
ENCODING 283
SWIDTH 560 0
DWIDTH 7 0
BBX 6 10 1 0
BITMAP
08
70
00
70
88
84
FC
80
8C
78
ENDCHAR
STARTCHAR 012B
ENCODING 299
SWIDTH 320 0
DWIDTH 4 0
BBX 4 9 0 0
BITMAP
F0
00
40
40
40
40
40
40
40
ENDCHAR
STARTCHAR 0144
ENCODING 324
SWIDTH 640 0
DWIDTH 8 0
BBX 6 10 1 0
BITMAP
08
10
00
B8
C4
84
84
84
84
84
ENDCHAR
STARTCHAR 0148
ENCODING 328
SWIDTH 640 0
DWIDTH 8 0
BBX 6 9 1 1
BITMAP
78
00
B8
C4
84
84
84
84
84
ENDCHAR
STARTCHAR 014D
ENCODING 333
SWIDTH 640 0
DWIDTH 8 0
BBX 6 9 1 0
BITMAP
78
00
78
84
84
84
84
84
78
ENDCHAR
STARTCHAR 016B
ENCODING 363
SWIDTH 640 0
DWIDTH 8 0
BBX 6 9 1 0
BITMAP
78
00
84
84
84
84
84
8C
74
ENDCHAR
STARTCHAR 01CE
ENCODING 462
SWIDTH 640 0
DWIDTH 8 0
BBX 7 10 1 0
BITMAP
08
70
00
74
8C
84
84
84
8C
72
ENDCHAR
STARTCHAR 01D0
ENCODING 464
SWIDTH 320 0
DWIDTH 4 0
BBX 4 10 0 0
BITMAP
90
60
00
40
40
40
40
40
40
40
ENDCHAR
STARTCHAR 01D2
ENCODING 466
SWIDTH 640 0
DWIDTH 8 0
BBX 6 9 1 1
BITMAP
78
00
78
84
84
84
84
84
78
ENDCHAR
STARTCHAR 01D4
ENCODING 468
SWIDTH 640 0
DWIDTH 8 0
BBX 6 10 1 0
BITMAP
08
70
00
84
84
84
84
84
8C
74
ENDCHAR
STARTCHAR 01D6
ENCODING 470
SWIDTH 640 0
DWIDTH 8 0
BBX 6 11 1 0
BITMAP
78
00
58
00
84
84
84
84
84
8C
74
ENDCHAR
STARTCHAR 01D8
ENCODING 472
SWIDTH 640 0
DWIDTH 8 0
BBX 6 12 1 0
BITMAP
08
30
00
58
00
84
84
84
84
84
8C
74
ENDCHAR
STARTCHAR 01DA
ENCODING 474
SWIDTH 640 0
DWIDTH 8 0
BBX 6 11 1 0
BITMAP
78
00
58
00
84
84
84
84
84
8C
74
ENDCHAR
STARTCHAR 01DC
ENCODING 476
SWIDTH 640 0
DWIDTH 8 0
BBX 6 12 1 0
BITMAP
40
20
00
58
00
84
84
84
84
84
8C
74
ENDCHAR
STARTCHAR 01F9
ENCODING 505
SWIDTH 640 0
DWIDTH 8 0
BBX 6 10 1 0
BITMAP
40
20
00
B8
C4
84
84
84
84
84
ENDCHAR
STARTCHAR 0251
ENCODING 593
SWIDTH 640 0
DWIDTH 8 0
BBX 7 7 1 0
BITMAP
74
8C
84
84
84
8C
72
ENDCHAR
STARTCHAR 0261
ENCODING 609
SWIDTH 640 0
DWIDTH 8 0
BBX 6 10 1 -3
BITMAP
74
8C
84
84
84
8C
74
04
8C
78
ENDCHAR
STARTCHAR 02C7
ENCODING 711
SWIDTH 1040 0
DWIDTH 13 0
BBX 4 2 4 8
BITMAP
90
60
ENDCHAR
STARTCHAR 02C9
ENCODING 713
SWIDTH 1040 0
DWIDTH 13 0
BBX 4 1 4 8
BITMAP
F0
ENDCHAR
STARTCHAR 02CA
ENCODING 714
SWIDTH 1040 0
DWIDTH 13 0
BBX 2 2 6 8
BITMAP
40
80
ENDCHAR
STARTCHAR 02CB
ENCODING 715
SWIDTH 1040 0
DWIDTH 13 0
BBX 2 2 4 8
BITMAP
C0
40
ENDCHAR
STARTCHAR 02D9
ENCODING 729
SWIDTH 1040 0
DWIDTH 13 0
BBX 1 1 6 8
BITMAP
80
ENDCHAR
STARTCHAR 0391
ENCODING 913
SWIDTH 1040 0
DWIDTH 13 0
BBX 9 10 2 0
BITMAP
1800
1800
1400
2400
2200
2200
7E00
4100
8100
8180
ENDCHAR
STARTCHAR 0392
ENCODING 914
SWIDTH 1040 0
DWIDTH 13 0
BBX 7 10 3 0
BITMAP
FC
84
82
84
F8
84
82
82
82
FC
ENDCHAR
STARTCHAR 0393
ENCODING 915
SWIDTH 1040 0
DWIDTH 13 0
BBX 6 10 4 0
BITMAP
FC
80
80
80
80
80
80
80
80
80
ENDCHAR
STARTCHAR 0394
ENCODING 916
SWIDTH 1040 0
DWIDTH 13 0
BBX 8 10 2 0
BITMAP
08
18
14
34
24
22
42
43
41
FF
ENDCHAR
STARTCHAR 0395
ENCODING 917
SWIDTH 1040 0
DWIDTH 13 0
BBX 7 10 3 0
BITMAP
FE
80
80
80
FC
80
80
80
80
FE
ENDCHAR
STARTCHAR 0396
ENCODING 918
SWIDTH 1040 0
DWIDTH 13 0
BBX 8 10 2 0
BITMAP
7F
02
06
04
08
10
30
20
40
FF
ENDCHAR
STARTCHAR 0397
ENCODING 919
SWIDTH 1040 0
DWIDTH 13 0
BBX 8 10 2 0
BITMAP
81
81
81
81
FF
81
81
81
81
81
ENDCHAR
STARTCHAR 0398
ENCODING 920
SWIDTH 1040 0
DWIDTH 13 0
BBX 9 10 2 0
BITMAP
3C00
4300
8100
8100
BE80
8180
8100
C100
4200
3C00
ENDCHAR
STARTCHAR 0399
ENCODING 921
SWIDTH 1040 0
DWIDTH 13 0
BBX 1 10 6 0
BITMAP
80
80
80
80
80
80
80
80
80
80
ENDCHAR
STARTCHAR 039A
ENCODING 922
SWIDTH 1040 0
DWIDTH 13 0
BBX 7 10 3 0
BITMAP
84
8C
98
B0
E0
D0
98
88
84
82
ENDCHAR
STARTCHAR 039B
ENCODING 923
SWIDTH 1040 0
DWIDTH 13 0
BBX 8 10 2 0
BITMAP
08
18
14
24
24
22
42
43
41
81
ENDCHAR
STARTCHAR 039C
ENCODING 924
SWIDTH 1040 0
DWIDTH 13 0
BBX 10 10 1 0
BITMAP
C040
C0C0
A0C0
A140
9140
9240
9240
8A40
8C40
8440
ENDCHAR
STARTCHAR 039D
ENCODING 925
SWIDTH 1040 0
DWIDTH 13 0
BBX 8 10 2 0
BITMAP
C1
A1
A1
91
91
89
85
85
83
83
ENDCHAR
STARTCHAR 039E
ENCODING 926
SWIDTH 1040 0
DWIDTH 13 0
BBX 8 10 2 0
BITMAP
7F
00
00
00
7E
00
00
00
00
FF
ENDCHAR
STARTCHAR 039F
ENCODING 927
SWIDTH 1040 0
DWIDTH 13 0
BBX 9 10 2 0
BITMAP
3C00
4200
8100
8100
8080
8080
8100
C100
4200
3C00
ENDCHAR
STARTCHAR 03A0
ENCODING 928
SWIDTH 1040 0
DWIDTH 13 0
BBX 7 10 3 0
BITMAP
FE
82
82
82
82
82
82
82
82
82
ENDCHAR
STARTCHAR 03A1
ENCODING 929
SWIDTH 1040 0
DWIDTH 13 0
BBX 7 10 3 0
BITMAP
FC
82
82
82
86
FC
80
80
80
80
ENDCHAR
STARTCHAR 03A3
ENCODING 931
SWIDTH 1040 0
DWIDTH 13 0
BBX 8 10 2 0
BITMAP
7F
60
30
18
0C
08
10
20
40
FF
ENDCHAR
STARTCHAR 03A4
ENCODING 932
SWIDTH 1040 0
DWIDTH 13 0
BBX 8 10 2 0
BITMAP
FF
08
08
08
08
08
08
08
08
08
ENDCHAR
STARTCHAR 03A5
ENCODING 933
SWIDTH 1040 0
DWIDTH 13 0
BBX 10 10 1 0
BITMAP
E1C0
1200
0C00
0C00
0400
0400
0400
0400
0400
0400
ENDCHAR
STARTCHAR 03A6
ENCODING 934
SWIDTH 1040 0
DWIDTH 13 0
BBX 9 10 2 0
BITMAP
0800
3C00
CB00
8880
8880
8880
8880
4B00
3C00
0800
ENDCHAR
STARTCHAR 03A7
ENCODING 935
SWIDTH 1040 0
DWIDTH 13 0
BBX 8 10 2 0
BITMAP
43
62
24
14
18
18
34
22
42
C1
ENDCHAR
STARTCHAR 03A8
ENCODING 936
SWIDTH 1040 0
DWIDTH 13 0
BBX 11 10 1 0
BITMAP
0400
C460
4480
4480
4480
4480
2480
1F00
0400
0400
ENDCHAR
STARTCHAR 03A9
ENCODING 937
SWIDTH 1040 0
DWIDTH 13 0
BBX 10 10 1 0
BITMAP
1E00
2180
4080
4080
4040
4040
4080
2080
2100
FBC0
ENDCHAR
STARTCHAR 03B1
ENCODING 945
SWIDTH 1040 0
DWIDTH 13 0
BBX 8 7 2 0
BITMAP
3D
45
42
82
84
44
7B
ENDCHAR
STARTCHAR 03B2
ENCODING 946
SWIDTH 1040 0
DWIDTH 13 0
BBX 8 11 2 -1
BITMAP
0E
11
21
22
2C
42
42
42
62
9C
80
ENDCHAR
STARTCHAR 03B3
ENCODING 947
SWIDTH 1040 0
DWIDTH 13 0
BBX 7 8 3 -1
BITMAP
C6
28
30
20
40
40
40
40
ENDCHAR
STARTCHAR 03B4
ENCODING 948
SWIDTH 1040 0
DWIDTH 13 0
BBX 7 10 3 0
BITMAP
1E
08
08
7C
C4
84
84
84
88
70
ENDCHAR
STARTCHAR 03B5
ENCODING 949
SWIDTH 1040 0
DWIDTH 13 0
BBX 6 7 3 0
BITMAP
3C
44
40
70
80
80
78
ENDCHAR
STARTCHAR 03B6
ENCODING 950
SWIDTH 1040 0
DWIDTH 13 0
BBX 7 12 3 -2
BITMAP
42
7C
10
20
40
80
80
80
80
78
08
08
ENDCHAR
STARTCHAR 03B7
ENCODING 951
SWIDTH 1040 0
DWIDTH 13 0
BBX 8 9 2 -2
BITMAP
EE
31
22
42
42
42
44
04
04
ENDCHAR
STARTCHAR 03B8
ENCODING 952
SWIDTH 1040 0
DWIDTH 13 0
BBX 6 10 3 0
BITMAP
38
64
44
84
FC
84
84
8C
88
70
ENDCHAR
STARTCHAR 03B9
ENCODING 953
SWIDTH 1040 0
DWIDTH 13 0
BBX 2 7 5 0
BITMAP
40
40
80
80
80
80
C0
ENDCHAR
STARTCHAR 03BA
ENCODING 954
SWIDTH 1040 0
DWIDTH 13 0
BBX 7 7 3 0
BITMAP
46
48
50
60
90
90
8C
ENDCHAR
STARTCHAR 03BB
ENCODING 955
SWIDTH 1040 0
DWIDTH 13 0
BBX 8 10 2 0
BITMAP
18
08
08
0C
14
14
24
24
44
87
ENDCHAR
STARTCHAR 03BC
ENCODING 956
SWIDTH 1040 0
DWIDTH 13 0
BBX 8 8 2 -1
BITMAP
21
22
42
42
42
44
BB
80
ENDCHAR
STARTCHAR 03BD
ENCODING 957
SWIDTH 1040 0
DWIDTH 13 0
BBX 7 7 3 0
BITMAP
C2
24
44
4C
58
70
40
ENDCHAR
STARTCHAR 03BE
ENCODING 958
SWIDTH 1040 0
DWIDTH 13 0
BBX 7 12 3 -2
BITMAP
22
7C
20
40
68
30
40
80
80
F8
04
08
ENDCHAR
STARTCHAR 03BF
ENCODING 959
SWIDTH 1040 0
DWIDTH 13 0
BBX 7 7 3 0
BITMAP
3C
44
82
82
84
84
78
ENDCHAR
STARTCHAR 03C0
ENCODING 960
SWIDTH 1040 0
DWIDTH 13 0
BBX 8 7 2 0
BITMAP
7F
A4
24
24
44
48
4E
ENDCHAR
STARTCHAR 03C1
ENCODING 961
SWIDTH 1040 0
DWIDTH 13 0
BBX 8 8 2 -1
BITMAP
1E
21
21
41
41
62
5C
80
ENDCHAR
STARTCHAR 03C3
ENCODING 963
SWIDTH 1040 0
DWIDTH 13 0
BBX 7 7 3 0
BITMAP
3E
44
84
84
84
8C
78
ENDCHAR
STARTCHAR 03C4
ENCODING 964
SWIDTH 1040 0
DWIDTH 13 0
BBX 7 7 3 0
BITMAP
FE
90
20
20
20
20
30
ENDCHAR
STARTCHAR 03C5
ENCODING 965
SWIDTH 1040 0
DWIDTH 13 0
BBX 6 7 3 0
BITMAP
C4
44
44
44
84
88
70
ENDCHAR
STARTCHAR 03C6
ENCODING 966
SWIDTH 1040 0
DWIDTH 13 0
BBX 7 11 3 -1
BITMAP
08
08
08
7C
92
92
92
A2
EC
30
20
ENDCHAR
STARTCHAR 03C7
ENCODING 967
SWIDTH 1040 0
DWIDTH 13 0
BBX 8 9 2 -2
BITMAP
31
12
0C
08
08
18
28
48
CE
ENDCHAR
STARTCHAR 03C8
ENCODING 968
SWIDTH 1040 0
DWIDTH 13 0
BBX 8 11 2 -1
BITMAP
04
04
04
C9
49
49
49
52
56
3C
10
ENDCHAR
STARTCHAR 03C9
ENCODING 969
SWIDTH 1040 0
DWIDTH 13 0
BBX 9 7 2 0
BITMAP
4080
8880
8880
8880
9100
9100
EE00
ENDCHAR
STARTCHAR 0401
ENCODING 1025
SWIDTH 1040 0
DWIDTH 13 0
BBX 7 12 3 0
BITMAP
48
00
FE
80
80
80
FC
80
80
80
80
FE
ENDCHAR
STARTCHAR 0410
ENCODING 1040
SWIDTH 1040 0
DWIDTH 13 0
BBX 9 10 2 0
BITMAP
1800
1800
1400
2400
2200
2200
7E00
4100
8100
8180
ENDCHAR
STARTCHAR 0411
ENCODING 1041
SWIDTH 1040 0
DWIDTH 13 0
BBX 7 10 3 0
BITMAP
FC
80
80
80
FC
82
82
82
82
FC
ENDCHAR
STARTCHAR 0412
ENCODING 1042
SWIDTH 1040 0
DWIDTH 13 0
BBX 7 10 3 0
BITMAP
FC
84
82
84
F8
84
82
82
82
FC
ENDCHAR
STARTCHAR 0413
ENCODING 1043
SWIDTH 1040 0
DWIDTH 13 0
BBX 6 10 4 0
BITMAP
FC
80
80
80
80
80
80
80
80
80
ENDCHAR
STARTCHAR 0414
ENCODING 1044
SWIDTH 1040 0
DWIDTH 13 0
BBX 10 12 1 -2
BITMAP
1F80
1080
1080
2080
2080
2080
2080
2080
4080
FFC0
8040
C0C0
ENDCHAR
STARTCHAR 0415
ENCODING 1045
SWIDTH 1040 0
DWIDTH 13 0
BBX 7 10 3 0
BITMAP
FE
80
80
80
FC
80
80
80
80
FE
ENDCHAR
STARTCHAR 0416
ENCODING 1046
SWIDTH 1040 0
DWIDTH 13 0
BBX 11 10 1 0
BITMAP
C460
4480
2480
2500
1F00
2500
4480
4440
8440
8420
ENDCHAR
STARTCHAR 0417
ENCODING 1047
SWIDTH 1040 0
DWIDTH 13 0
BBX 7 10 3 0
BITMAP
78
84
04
04
38
04
02
02
84
78
ENDCHAR
STARTCHAR 0418
ENCODING 1048
SWIDTH 1040 0
DWIDTH 13 0
BBX 8 10 2 0
BITMAP
81
83
85
85
89
99
91
A1
A1
C1
ENDCHAR
STARTCHAR 0419
ENCODING 1049
SWIDTH 1040 0
DWIDTH 13 0
BBX 8 11 2 0
BITMAP
24
18
83
83
85
89
89
91
A1
A1
C1
ENDCHAR
STARTCHAR 041A
ENCODING 1050
SWIDTH 1040 0
DWIDTH 13 0
BBX 7 10 3 0
BITMAP
86
8C
88
90
E0
98
88
84
84
82
ENDCHAR
STARTCHAR 041B
ENCODING 1051
SWIDTH 1040 0
DWIDTH 13 0
BBX 8 10 1 0
BITMAP
3F
21
21
21
21
21
21
21
21
E1
ENDCHAR
STARTCHAR 041C
ENCODING 1052
SWIDTH 1040 0
DWIDTH 13 0
BBX 10 10 1 0
BITMAP
C040
C0C0
A0C0
A140
9140
9240
9240
8A40
8C40
8440
ENDCHAR
STARTCHAR 041D
ENCODING 1053
SWIDTH 1040 0
DWIDTH 13 0
BBX 8 10 2 0
BITMAP
81
81
81
81
FF
81
81
81
81
81
ENDCHAR
STARTCHAR 041E
ENCODING 1054
SWIDTH 1040 0
DWIDTH 13 0
BBX 9 10 2 0
BITMAP
3C00
4200
8100
8100
8080
8080
8100
C100
4200
3C00
ENDCHAR
STARTCHAR 041F
ENCODING 1055
SWIDTH 1040 0
DWIDTH 13 0
BBX 7 10 3 0
BITMAP
FE
82
82
82
82
82
82
82
82
82
ENDCHAR
STARTCHAR 0420
ENCODING 1056
SWIDTH 1040 0
DWIDTH 13 0
BBX 7 10 3 0
BITMAP
FC
82
82
82
86
FC
80
80
80
80
ENDCHAR
STARTCHAR 0421
ENCODING 1057
SWIDTH 1040 0
DWIDTH 13 0
BBX 8 10 2 0
BITMAP
3E
63
41
80
80
80
80
41
63
3E
ENDCHAR
STARTCHAR 0422
ENCODING 1058
SWIDTH 1040 0
DWIDTH 13 0
BBX 8 10 2 0
BITMAP
FF
08
08
08
08
08
08
08
08
08
ENDCHAR
STARTCHAR 0423
ENCODING 1059
SWIDTH 1040 0
DWIDTH 13 0
BBX 8 10 2 0
BITMAP
C1
41
62
22
24
14
18
08
10
70
ENDCHAR
STARTCHAR 0424
ENCODING 1060
SWIDTH 1040 0
DWIDTH 13 0
BBX 9 10 2 0
BITMAP
0800
3C00
CB00
8880
8880
8880
8880
4B00
3C00
0800
ENDCHAR
STARTCHAR 0425
ENCODING 1061
SWIDTH 1040 0
DWIDTH 13 0
BBX 8 10 2 0
BITMAP
43
62
24
14
18
18
34
22
42
C1
ENDCHAR
STARTCHAR 0426
ENCODING 1062
SWIDTH 1040 0
DWIDTH 13 0
BBX 7 12 3 -2
BITMAP
82
82
82
82
82
82
82
82
82
FE
02
02
ENDCHAR
STARTCHAR 0427
ENCODING 1063
SWIDTH 1040 0
DWIDTH 13 0
BBX 6 10 3 0
BITMAP
84
84
84
84
84
FC
04
04
04
04
ENDCHAR
STARTCHAR 0428
ENCODING 1064
SWIDTH 1040 0
DWIDTH 13 0
BBX 10 10 1 0
BITMAP
8440
8440
8440
8440
8440
8440
8440
8440
8440
FFC0
ENDCHAR
STARTCHAR 0429
ENCODING 1065
SWIDTH 1040 0
DWIDTH 13 0
BBX 11 12 1 -2
BITMAP
8440
8440
8440
8440
8440
8440
8440
8440
8440
FFE0
0020
0020
ENDCHAR
STARTCHAR 042A
ENCODING 1066
SWIDTH 1040 0
DWIDTH 13 0
BBX 10 10 1 0
BITMAP
F000
1000
1000
1000
1F80
1040
1040
1040
1040
1F80
ENDCHAR
STARTCHAR 042B
ENCODING 1067
SWIDTH 1040 0
DWIDTH 13 0
BBX 9 10 2 0
BITMAP
8080
8080
8080
8080
FC80
8480
8280
8280
8480
FC80
ENDCHAR
STARTCHAR 042C
ENCODING 1068
SWIDTH 1040 0
DWIDTH 13 0
BBX 7 10 3 0
BITMAP
80
80
80
80
FC
82
82
82
82
FC
ENDCHAR
STARTCHAR 042D
ENCODING 1069
SWIDTH 1040 0
DWIDTH 13 0
BBX 8 10 2 0
BITMAP
3C
42
81
01
3F
01
01
81
42
3C
ENDCHAR
STARTCHAR 042E
ENCODING 1070
SWIDTH 1040 0
DWIDTH 13 0
BBX 10 10 1 0
BITMAP
8780
88C0
9040
9040
F040
9040
9040
9040
88C0
8780
ENDCHAR
STARTCHAR 042F
ENCODING 1071
SWIDTH 1040 0
DWIDTH 13 0
BBX 8 10 2 0
BITMAP
3F
41
41
41
3F
21
21
41
41
C1
ENDCHAR
STARTCHAR 0430
ENCODING 1072
SWIDTH 1040 0
DWIDTH 13 0
BBX 6 7 3 0
BITMAP
78
44
04
7C
84
8C
74
ENDCHAR
STARTCHAR 0431
ENCODING 1073
SWIDTH 1040 0
DWIDTH 13 0
BBX 7 10 3 0
BITMAP
04
7C
40
B8
C4
82
82
84
44
78
ENDCHAR
STARTCHAR 0432
ENCODING 1074
SWIDTH 1040 0
DWIDTH 13 0
BBX 5 7 4 0
BITMAP
F0
88
88
F0
88
88
F0
ENDCHAR
STARTCHAR 0433
ENCODING 1075
SWIDTH 1040 0
DWIDTH 13 0
BBX 5 7 4 0
BITMAP
F8
80
80
80
80
80
80
ENDCHAR
STARTCHAR 0434
ENCODING 1076
SWIDTH 1040 0
DWIDTH 13 0
BBX 7 9 3 -2
BITMAP
7C
44
44
44
44
44
FE
82
82
ENDCHAR
STARTCHAR 0435
ENCODING 1077
SWIDTH 1040 0
DWIDTH 13 0
BBX 6 7 3 0
BITMAP
38
44
84
FC
80
44
38
ENDCHAR
STARTCHAR 0436
ENCODING 1078
SWIDTH 1040 0
DWIDTH 13 0
BBX 8 7 2 0
BITMAP
C9
4A
2A
3C
4A
49
89
ENDCHAR
STARTCHAR 0437
ENCODING 1079
SWIDTH 1040 0
DWIDTH 13 0
BBX 6 7 3 0
BITMAP
78
44
04
38
04
84
78
ENDCHAR
STARTCHAR 0438
ENCODING 1080
SWIDTH 1040 0
DWIDTH 13 0
BBX 6 7 3 0
BITMAP
84
8C
9C
94
A4
C4
C4
ENDCHAR
STARTCHAR 0439
ENCODING 1081
SWIDTH 1040 0
DWIDTH 13 0
BBX 6 9 3 0
BITMAP
48
30
84
8C
9C
94
A4
C4
C4
ENDCHAR
STARTCHAR 043A
ENCODING 1082
SWIDTH 1040 0
DWIDTH 13 0
BBX 5 7 4 0
BITMAP
98
90
A0
E0
90
90
88
ENDCHAR
STARTCHAR 043B
ENCODING 1083
SWIDTH 1040 0
DWIDTH 13 0
BBX 6 7 3 0
BITMAP
7C
44
44
44
44
44
84
ENDCHAR
STARTCHAR 043C
ENCODING 1084
SWIDTH 1040 0
DWIDTH 13 0
BBX 8 7 2 0
BITMAP
C1
C3
A3
A5
95
99
89
ENDCHAR
STARTCHAR 043D
ENCODING 1085
SWIDTH 1040 0
DWIDTH 13 0
BBX 6 7 3 0
BITMAP
84
84
84
FC
84
84
84
ENDCHAR
STARTCHAR 043E
ENCODING 1086
SWIDTH 1040 0
DWIDTH 13 0
BBX 7 7 3 0
BITMAP
78
C4
84
82
84
C4
78
ENDCHAR
STARTCHAR 043F
ENCODING 1087
SWIDTH 1040 0
DWIDTH 13 0
BBX 6 7 3 0
BITMAP
FC
84
84
84
84
84
84
ENDCHAR
STARTCHAR 0440
ENCODING 1088
SWIDTH 1040 0
DWIDTH 13 0
BBX 7 9 3 -2
BITMAP
BC
C6
82
82
C2
C4
B8
80
80
ENDCHAR
STARTCHAR 0441
ENCODING 1089
SWIDTH 1040 0
DWIDTH 13 0
BBX 6 7 3 0
BITMAP
38
44
80
80
80
44
38
ENDCHAR
STARTCHAR 0442
ENCODING 1090
SWIDTH 1040 0
DWIDTH 13 0
BBX 6 7 3 0
BITMAP
FC
10
10
10
10
10
10
ENDCHAR
STARTCHAR 0443
ENCODING 1091
SWIDTH 1040 0
DWIDTH 13 0
BBX 6 9 3 -2
BITMAP
84
44
44
28
28
30
10
10
60
ENDCHAR
STARTCHAR 0444
ENCODING 1092
SWIDTH 1040 0
DWIDTH 13 0
BBX 11 11 1 -1
BITMAP
0400
0400
0400
77C0
8C40
8420
8420
8420
8C40
7780
0400
ENDCHAR
STARTCHAR 0445
ENCODING 1093
SWIDTH 1040 0
DWIDTH 13 0
BBX 5 7 4 0
BITMAP
88
90
60
20
50
90
88
ENDCHAR
STARTCHAR 0446
ENCODING 1094
SWIDTH 1040 0
DWIDTH 13 0
BBX 6 9 3 -2
BITMAP
84
84
84
84
84
84
FC
04
04
ENDCHAR
STARTCHAR 0447
ENCODING 1095
SWIDTH 1040 0
DWIDTH 13 0
BBX 5 7 3 0
BITMAP
88
88
88
78
08
08
08
ENDCHAR
STARTCHAR 0448
ENCODING 1096
SWIDTH 1040 0
DWIDTH 13 0
BBX 8 7 2 0
BITMAP
89
89
89
89
89
89
FF
ENDCHAR
STARTCHAR 0449
ENCODING 1097
SWIDTH 1040 0
DWIDTH 13 0
BBX 9 9 2 -2
BITMAP
8900
8900
8900
8900
8900
8900
FF80
0080
0080
ENDCHAR
STARTCHAR 044A
ENCODING 1098
SWIDTH 1040 0
DWIDTH 13 0
BBX 8 7 2 0
BITMAP
F0
20
20
1E
21
21
1E
ENDCHAR
STARTCHAR 044B
ENCODING 1099
SWIDTH 1040 0
DWIDTH 13 0
BBX 7 7 3 0
BITMAP
82
82
82
F2
8A
8A
F2
ENDCHAR
STARTCHAR 044C
ENCODING 1100
SWIDTH 1040 0
DWIDTH 13 0
BBX 5 7 4 0
BITMAP
80
80
80
F8
88
88
F8
ENDCHAR
STARTCHAR 044D
ENCODING 1101
SWIDTH 1040 0
DWIDTH 13 0
BBX 6 7 3 0
BITMAP
78
84
04
3C
04
84
78
ENDCHAR
STARTCHAR 044E
ENCODING 1102
SWIDTH 1040 0
DWIDTH 13 0
BBX 8 7 2 0
BITMAP
4E
91
91
61
91
91
4E
ENDCHAR
STARTCHAR 044F
ENCODING 1103
SWIDTH 1040 0
DWIDTH 13 0
BBX 6 7 3 0
BITMAP
7C
84
84
7C
44
44
84
ENDCHAR
STARTCHAR 0451
ENCODING 1105
SWIDTH 1040 0
DWIDTH 13 0
BBX 6 9 3 0
BITMAP
48
00
38
44
84
FC
80
44
38
ENDCHAR
STARTCHAR 1E3F
ENCODING 7743
SWIDTH 960 0
DWIDTH 12 0
BBX 10 10 1 0
BITMAP
0200
0C00
0000
BB80
CC40
8840
8840
8840
8840
8840
ENDCHAR
STARTCHAR 2010
ENCODING 8208
SWIDTH 1040 0
DWIDTH 13 0
BBX 4 1 4 4
BITMAP
F0
ENDCHAR
STARTCHAR 2013
ENCODING 8211
SWIDTH 1040 0
DWIDTH 13 0
BBX 4 1 4 4
BITMAP
F0
ENDCHAR
STARTCHAR 2014
ENCODING 8212
SWIDTH 1040 0
DWIDTH 13 0
BBX 12 1 0 5
BITMAP
FFF0
ENDCHAR
STARTCHAR 2015
ENCODING 8213
SWIDTH 1040 0
DWIDTH 13 0
BBX 11 1 1 5
BITMAP
FFE0
ENDCHAR
STARTCHAR 2016
ENCODING 8214
SWIDTH 1040 0
DWIDTH 13 0
BBX 3 12 5 -1
BITMAP
20
A0
A0
A0
A0
A0
A0
A0
A0
A0
A0
20
ENDCHAR
STARTCHAR 2018
ENCODING 8216
SWIDTH 1040 0
DWIDTH 13 0
BBX 1 3 11 8
BITMAP
80
80
80
ENDCHAR
STARTCHAR 2019
ENCODING 8217
SWIDTH 1040 0
DWIDTH 13 0
BBX 1 3 1 8
BITMAP
80
80
80
ENDCHAR
STARTCHAR 201C
ENCODING 8220
SWIDTH 1040 0
DWIDTH 13 0
BBX 3 3 9 8
BITMAP
A0
C0
A0
ENDCHAR
STARTCHAR 201D
ENCODING 8221
SWIDTH 1040 0
DWIDTH 13 0
BBX 3 3 1 8
BITMAP
A0
A0
A0
ENDCHAR
STARTCHAR 2022
ENCODING 8226
SWIDTH 1040 0
DWIDTH 13 0
BBX 2 2 5 4
BITMAP
C0
C0
ENDCHAR
STARTCHAR 2025
ENCODING 8229
SWIDTH 1040 0
DWIDTH 13 0
BBX 8 2 2 4
BITMAP
C1
01
ENDCHAR
STARTCHAR 2026
ENCODING 8230
SWIDTH 1040 0
DWIDTH 13 0
BBX 10 2 1 4
BITMAP
C440
0440
ENDCHAR
STARTCHAR 2030
ENCODING 8240
SWIDTH 1040 0
DWIDTH 13 0
BBX 11 10 1 0
BITMAP
E200
A400
9400
A800
AE40
5AA0
29A0
29A0
4AA0
4660
ENDCHAR
STARTCHAR 2032
ENCODING 8242
SWIDTH 1040 0
DWIDTH 13 0
BBX 2 2 1 8
BITMAP
40
80
ENDCHAR
STARTCHAR 2033
ENCODING 8243
SWIDTH 1040 0
DWIDTH 13 0
BBX 4 3 1 8
BITMAP
50
A0
20
ENDCHAR
STARTCHAR 2035
ENCODING 8245
SWIDTH 1040 0
DWIDTH 13 0
BBX 2 4 5 7
BITMAP
80
80
40
40
ENDCHAR
STARTCHAR 203B
ENCODING 8251
SWIDTH 1040 0
DWIDTH 13 0
BBX 10 10 1 0
BITMAP
8C40
4C80
2100
1200
4CC0
4CC0
1200
2100
4C80
8C40
ENDCHAR
STARTCHAR 205D
ENCODING 8285
SWIDTH 1040 0
DWIDTH 13 0
BBX 1 10 6 0
BITMAP
80
80
00
00
80
80
00
00
00
80
ENDCHAR
STARTCHAR 20AC
ENCODING 8364
SWIDTH 720 0
DWIDTH 9 0
BBX 8 10 0 0
BITMAP
1E
21
20
FC
40
FC
40
21
21
1E
ENDCHAR
STARTCHAR 2103
ENCODING 8451
SWIDTH 1040 0
DWIDTH 13 0
BBX 12 11 0 0
BITMAP
E000
A3C0
6420
0830
0800
0800
0800
0800
0810
0420
03C0
ENDCHAR
STARTCHAR 2105
ENCODING 8453
SWIDTH 1040 0
DWIDTH 13 0
BBX 11 12 1 -1
BITMAP
7040
8840
8080
8100
8A00
7400
09C0
1220
1420
2420
4220
81C0
ENDCHAR
STARTCHAR 2109
ENCODING 8457
SWIDTH 1040 0
DWIDTH 13 0
BBX 10 11 0 0
BITMAP
6000
AFC0
6800
0800
0800
0FC0
0800
0800
0800
0800
0800
ENDCHAR
STARTCHAR 2116
ENCODING 8470
SWIDTH 1040 0
DWIDTH 13 0
BBX 11 10 1 0
BITMAP
8400
8400
C400
C5C0
A520
A620
9620
9520
8CC0
85E0
ENDCHAR
STARTCHAR 2121
ENCODING 8481
SWIDTH 1040 0
DWIDTH 13 0
BBX 12 6 0 4
BITMAP
FF40
2440
2740
2440
2440
2770
ENDCHAR
STARTCHAR 2122
ENCODING 8482
SWIDTH 1040 0
DWIDTH 13 0
BBX 11 6 0 4
BITMAP
FE20
2620
2560
2560
25A0
2480
ENDCHAR
STARTCHAR 2160
ENCODING 8544
SWIDTH 1040 0
DWIDTH 13 0
BBX 1 10 6 0
BITMAP
80
80
80
80
80
80
80
80
80
80
ENDCHAR
STARTCHAR 2161
ENCODING 8545
SWIDTH 1040 0
DWIDTH 13 0
BBX 4 10 4 0
BITMAP
90
90
90
90
90
90
90
90
90
90
ENDCHAR
STARTCHAR 2162
ENCODING 8546
SWIDTH 1040 0
DWIDTH 13 0
BBX 7 10 3 0
BITMAP
92
92
92
92
92
92
92
92
92
92
ENDCHAR
STARTCHAR 2163
ENCODING 8547
SWIDTH 1040 0
DWIDTH 13 0
BBX 11 10 1 0
BITMAP
5060
9040
8840
8840
8880
8480
8500
8500
8300
4200
ENDCHAR
STARTCHAR 2164
ENCODING 8548
SWIDTH 1040 0
DWIDTH 13 0
BBX 8 10 2 0
BITMAP
81
41
43
42
22
24
24
14
18
08
ENDCHAR
STARTCHAR 2165
ENCODING 8549
SWIDTH 1040 0
DWIDTH 13 0
BBX 10 10 1 0
BITMAP
8140
8240
4240
4240
4440
2440
2440
2840
1840
1040
ENDCHAR
STARTCHAR 2166
ENCODING 8550
SWIDTH 1040 0
DWIDTH 13 0
BBX 12 10 0 0
BITMAP
8290
4290
4290
4490
2490
2490
2890
1890
1890
1890
ENDCHAR
STARTCHAR 2167
ENCODING 8551
SWIDTH 1040 0
DWIDTH 13 0
BBX 12 10 0 0
BITMAP
8550
4550
4550
4950
4950
2950
2950
3150
1150
1150
ENDCHAR
STARTCHAR 2168
ENCODING 8552
SWIDTH 1040 0
DWIDTH 13 0
BBX 9 10 2 0
BITMAP
B080
9100
8900
8A00
8400
8600
8A00
9100
9080
A080
ENDCHAR
STARTCHAR 2169
ENCODING 8553
SWIDTH 1040 0
DWIDTH 13 0
BBX 8 10 2 0
BITMAP
43
62
24
14
18
18
34
22
42
C1
ENDCHAR
STARTCHAR 216A
ENCODING 8554
SWIDTH 1040 0
DWIDTH 13 0
BBX 10 10 1 0
BITMAP
C240
4440
2440
2840
1840
1840
2840
6440
4240
8240
ENDCHAR
STARTCHAR 216B
ENCODING 8555
SWIDTH 1040 0
DWIDTH 13 0
BBX 11 10 1 0
BITMAP
8520
C920
4920
3120
3120
3120
5120
4920
8520
8520
ENDCHAR
STARTCHAR 2170
ENCODING 8560
SWIDTH 1040 0
DWIDTH 13 0
BBX 1 10 6 0
BITMAP
80
00
00
80
80
80
80
80
80
80
ENDCHAR
STARTCHAR 2171
ENCODING 8561
SWIDTH 1040 0
DWIDTH 13 0
BBX 4 10 4 0
BITMAP
90
00
00
90
90
90
90
90
90
90
ENDCHAR
STARTCHAR 2172
ENCODING 8562
SWIDTH 1040 0
DWIDTH 13 0
BBX 7 10 3 0
BITMAP
92
00
00
92
92
92
92
92
92
92
ENDCHAR
STARTCHAR 2173
ENCODING 8563
SWIDTH 1040 0
DWIDTH 13 0
BBX 9 10 2 0
BITMAP
C000
0000
0000
9080
9100
8900
8A00
8A00
8600
8400
ENDCHAR
STARTCHAR 2174
ENCODING 8564
SWIDTH 1040 0
DWIDTH 13 0
BBX 6 7 3 0
BITMAP
84
44
48
48
28
30
10
ENDCHAR
STARTCHAR 2175
ENCODING 8565
SWIDTH 1040 0
DWIDTH 13 0
BBX 8 10 2 0
BITMAP
01
00
00
85
89
49
49
51
31
21
ENDCHAR
STARTCHAR 2176
ENCODING 8566
SWIDTH 1040 0
DWIDTH 13 0
BBX 10 10 1 0
BITMAP
0240
0000
0000
8640
4A40
4A40
4A40
3240
3240
3240
ENDCHAR
STARTCHAR 2177
ENCODING 8567
SWIDTH 1040 0
DWIDTH 13 0
BBX 10 10 1 0
BITMAP
0540
0000
0000
9540
9540
5540
5540
6540
6540
2540
ENDCHAR
STARTCHAR 2178
ENCODING 8568
SWIDTH 1040 0
DWIDTH 13 0
BBX 8 10 2 0
BITMAP
C0
00
00
51
4A
46
44
4A
49
51
ENDCHAR
STARTCHAR 2179
ENCODING 8569
SWIDTH 1040 0
DWIDTH 13 0
BBX 6 7 3 0
BITMAP
44
48
30
10
28
48
C4
ENDCHAR
STARTCHAR 2190
ENCODING 8592
SWIDTH 1040 0
DWIDTH 13 0
BBX 11 5 1 2
BITMAP
2000
4000
FFE0
4000
4000
ENDCHAR
STARTCHAR 2191
ENCODING 8593
SWIDTH 1040 0
DWIDTH 13 0
BBX 5 12 4 -1
BITMAP
20
60
B0
28
20
20
20
20
20
20
20
20
ENDCHAR
STARTCHAR 2192
ENCODING 8594
SWIDTH 1040 0
DWIDTH 13 0
BBX 11 5 1 2
BITMAP
0100
0080
FFE0
0040
0080
ENDCHAR
STARTCHAR 2193
ENCODING 8595
SWIDTH 1040 0
DWIDTH 13 0
BBX 5 12 4 -1
BITMAP
20
20
20
20
20
20
20
20
28
B0
60
20
ENDCHAR
STARTCHAR 2196
ENCODING 8598
SWIDTH 1040 0
DWIDTH 13 0
BBX 11 11 1 0
BITMAP
E000
C000
A000
1000
0800
0400
0200
0100
0080
0040
0020
ENDCHAR
STARTCHAR 2197
ENCODING 8599
SWIDTH 1040 0
DWIDTH 13 0
BBX 11 11 1 -1
BITMAP
0020
00C0
00C0
0100
0200
0400
0800
1000
2000
4000
8000
ENDCHAR
STARTCHAR 2198
ENCODING 8600
SWIDTH 1040 0
DWIDTH 13 0
BBX 11 11 1 0
BITMAP
8000
4000
2000
1000
0800
0400
0200
0100
00C0
0040
00A0
ENDCHAR
STARTCHAR 2199
ENCODING 8601
SWIDTH 1040 0
DWIDTH 13 0
BBX 11 12 1 -1
BITMAP
0020
0040
0080
0100
0200
0400
0800
1000
A000
C000
8000
6000
ENDCHAR
STARTCHAR 2208
ENCODING 8712
SWIDTH 1040 0
DWIDTH 13 0
BBX 8 8 2 1
BITMAP
3F
40
80
80
FF
80
40
3F
ENDCHAR
STARTCHAR 220F
ENCODING 8719
SWIDTH 1040 0
DWIDTH 13 0
BBX 9 10 2 0
BITMAP
FF80
4100
4100
4100
4100
4100
4100
4100
4100
4100
ENDCHAR
STARTCHAR 2211
ENCODING 8721
SWIDTH 1040 0
DWIDTH 13 0
BBX 8 10 2 0
BITMAP
7F
40
30
18
0C
08
10
20
40
FF
ENDCHAR
STARTCHAR 2215
ENCODING 8725
SWIDTH 1040 0
DWIDTH 13 0
BBX 7 12 3 -1
BITMAP
02
04
08
08
10
10
20
20
40
40
80
80
ENDCHAR
STARTCHAR 221A
ENCODING 8730
SWIDTH 1040 0
DWIDTH 13 0
BBX 11 12 1 0
BITMAP
0020
0020
0040
0080
0080
0100
0100
4200
A400
1400
1800
0800
ENDCHAR
STARTCHAR 221D
ENCODING 8733
SWIDTH 1040 0
DWIDTH 13 0
BBX 9 6 2 2
BITMAP
6180
9A00
8C00
8C00
9A00
6180
ENDCHAR
STARTCHAR 221E
ENCODING 8734
SWIDTH 1040 0
DWIDTH 13 0
BBX 11 6 1 2
BITMAP
7180
8A40
8C20
8C20
8A40
7180
ENDCHAR
STARTCHAR 221F
ENCODING 8735
SWIDTH 1040 0
DWIDTH 13 0
BBX 9 10 2 0
BITMAP
8000
8000
8000
8000
8000
8000
8000
8000
8000
FF80
ENDCHAR
STARTCHAR 2220
ENCODING 8736
SWIDTH 1040 0
DWIDTH 13 0
BBX 10 9 1 0
BITMAP
0100
0200
0400
0C00
0800
1000
2000
4000
FFC0
ENDCHAR
STARTCHAR 2223
ENCODING 8739
SWIDTH 1040 0
DWIDTH 13 0
BBX 1 10 6 0
BITMAP
80
80
80
80
80
80
80
80
80
80
ENDCHAR
STARTCHAR 2225
ENCODING 8741
SWIDTH 1040 0
DWIDTH 13 0
BBX 8 10 2 0
BITMAP
04
09
09
12
12
24
48
48
90
20
ENDCHAR
STARTCHAR 2227
ENCODING 8743
SWIDTH 1040 0
DWIDTH 13 0
BBX 9 9 2 0
BITMAP
0800
1800
1400
2400
2200
4200
4100
8100
8180
ENDCHAR
STARTCHAR 2228
ENCODING 8744
SWIDTH 1040 0
DWIDTH 13 0
BBX 9 9 2 1
BITMAP
8080
8100
4100
4200
2200
2400
1400
1800
0800
ENDCHAR
STARTCHAR 2229
ENCODING 8745
SWIDTH 1040 0
DWIDTH 13 0
BBX 7 10 3 0
BITMAP
38
C4
82
82
82
82
82
82
82
02
ENDCHAR
STARTCHAR 222A
ENCODING 8746
SWIDTH 1040 0
DWIDTH 13 0
BBX 7 10 3 0
BITMAP
02
82
82
82
82
82
82
82
C4
78
ENDCHAR
STARTCHAR 222B
ENCODING 8747
SWIDTH 1040 0
DWIDTH 13 0
BBX 6 12 3 -1
BITMAP
0C
14
10
10
10
10
10
10
10
10
20
E0
ENDCHAR
STARTCHAR 222E
ENCODING 8750
SWIDTH 1040 0
DWIDTH 13 0
BBX 6 12 3 -1
BITMAP
1C
10
10
10
78
58
58
38
10
10
20
E0
ENDCHAR
STARTCHAR 2234
ENCODING 8756
SWIDTH 1040 0
DWIDTH 13 0
BBX 9 9 2 1
BITMAP
0800
1800
0000
0000
0000
0000
0000
8100
8180
ENDCHAR
STARTCHAR 2235
ENCODING 8757
SWIDTH 1040 0
DWIDTH 13 0
BBX 9 9 2 0
BITMAP
8180
8100
0000
0000
0000
0000
0000
1800
0800
ENDCHAR
STARTCHAR 2236
ENCODING 8758
SWIDTH 1040 0
DWIDTH 13 0
BBX 2 8 5 1
BITMAP
C0
40
00
00
00
00
40
C0
ENDCHAR
STARTCHAR 2237
ENCODING 8759
SWIDTH 1040 0
DWIDTH 13 0
BBX 9 10 2 0
BITMAP
8100
8180
0000
0000
0000
0000
0000
0000
8180
8100
ENDCHAR
STARTCHAR 223D
ENCODING 8765
SWIDTH 1040 0
DWIDTH 13 0
BBX 11 6 1 2
BITMAP
6180
8240
8420
8820
8840
7180
ENDCHAR
STARTCHAR 2248
ENCODING 8776
SWIDTH 1040 0
DWIDTH 13 0
BBX 9 6 2 2
BITMAP
7000
9980
0700
6000
9880
0700
ENDCHAR
STARTCHAR 224C
ENCODING 8780
SWIDTH 1040 0
DWIDTH 13 0
BBX 11 10 1 0
BITMAP
6180
8240
8420
8820
8840
7180
0000
FFC0
0000
FFC0
ENDCHAR
STARTCHAR 2252
ENCODING 8786
SWIDTH 1040 0
DWIDTH 13 0
BBX 9 9 2 1
BITMAP
4000
0000
FF80
0000
0000
FF80
0000
0200
0200
ENDCHAR
STARTCHAR 2260
ENCODING 8800
SWIDTH 1040 0
DWIDTH 13 0
BBX 9 8 2 1
BITMAP
0400
0800
FF80
0800
1000
FF80
1000
2000
ENDCHAR
STARTCHAR 2261
ENCODING 8801
SWIDTH 1040 0
DWIDTH 13 0
BBX 9 6 2 2
BITMAP
FF80
0000
FF80
0000
0000
FF80
ENDCHAR
STARTCHAR 2264
ENCODING 8804
SWIDTH 1040 0
DWIDTH 13 0
BBX 8 10 2 0
BITMAP
01
06
18
E0
60
1C
C3
30
0E
01
ENDCHAR
STARTCHAR 2265
ENCODING 8805
SWIDTH 1040 0
DWIDTH 13 0
BBX 8 10 2 0
BITMAP
C0
30
0C
03
06
18
63
8C
30
C0
ENDCHAR
STARTCHAR 2266
ENCODING 8806
SWIDTH 1040 0
DWIDTH 13 0
BBX 8 10 2 0
BITMAP
01
0E
30
C0
30
0E
01
FF
00
FF
ENDCHAR
STARTCHAR 2267
ENCODING 8807
SWIDTH 1040 0
DWIDTH 13 0
BBX 9 10 2 0
BITMAP
C000
3000
0E00
0180
0E00
3000
C000
FF00
0000
FF00
ENDCHAR
STARTCHAR 226E
ENCODING 8814
SWIDTH 1040 0
DWIDTH 13 0
BBX 8 12 2 -1
BITMAP
08
09
0A
0C
38
C8
C8
38
0C
0A
09
08
ENDCHAR
STARTCHAR 226F
ENCODING 8815
SWIDTH 1040 0
DWIDTH 13 0
BBX 8 12 2 -1
BITMAP
08
88
68
18
0C
0B
0B
0C
18
68
88
08
ENDCHAR
STARTCHAR 2295
ENCODING 8853
SWIDTH 1040 0
DWIDTH 13 0
BBX 10 10 1 0
BITMAP
1E00
6580
8440
8440
FFC0
8440
8440
4480
4480
3F00
ENDCHAR
STARTCHAR 2299
ENCODING 8857
SWIDTH 1040 0
DWIDTH 13 0
BBX 10 10 1 0
BITMAP
1E00
6180
8040
8040
8C40
8440
8040
4080
4080
3F00
ENDCHAR
STARTCHAR 22A5
ENCODING 8869
SWIDTH 1040 0
DWIDTH 13 0
BBX 9 10 2 0
BITMAP
0800
0800
0800
0800
0800
0800
0800
0800
0800
FF80
ENDCHAR
STARTCHAR 22BF
ENCODING 8895
SWIDTH 1040 0
DWIDTH 13 0
BBX 9 10 2 0
BITMAP
0080
0180
0380
0680
0C80
1880
3080
2080
4080
FF80
ENDCHAR
STARTCHAR 22EF
ENCODING 8943
SWIDTH 1040 0
DWIDTH 13 0
BBX 10 2 1 4
BITMAP
C440
0440
ENDCHAR
STARTCHAR 2312
ENCODING 8978
SWIDTH 1040 0
DWIDTH 13 0
BBX 9 5 2 3
BITMAP
1C00
6200
8100
8100
8080
ENDCHAR
STARTCHAR 2460
ENCODING 9312
SWIDTH 1040 0
DWIDTH 13 0
BBX 12 12 0 -1
BITMAP
0F80
3040
4E20
8210
8210
8210
8210
8210
8210
4220
2040
1F80
ENDCHAR
STARTCHAR 2461
ENCODING 9313
SWIDTH 1040 0
DWIDTH 13 0
BBX 12 12 0 -1
BITMAP
0F80
3740
48A0
8090
8090
8310
8610
8810
8810
5FA0
2040
1F80
ENDCHAR
STARTCHAR 2462
ENCODING 9314
SWIDTH 1040 0
DWIDTH 13 0
BBX 12 12 0 -1
BITMAP
0F80
3740
48A0
8090
8090
8710
8090
8090
9090
4F20
2040
1F80
ENDCHAR
STARTCHAR 2463
ENCODING 9315
SWIDTH 1040 0
DWIDTH 13 0
BBX 12 12 0 -1
BITMAP
0F80
3040
4320
8310
8510
8910
9110
9F90
8110
4120
2040
1F80
ENDCHAR
STARTCHAR 2464
ENCODING 9316
SWIDTH 1040 0
DWIDTH 13 0
BBX 12 12 0 -1
BITMAP
0F80
3040
4FA0
8810
8810
8F10
8890
8090
8090
48A0
2740
1F80
ENDCHAR
STARTCHAR 2465
ENCODING 9317
SWIDTH 1040 0
DWIDTH 13 0
BBX 12 12 0 -1
BITMAP
0F80
3040
4720
8890
9010
9710
9890
9090
9090
48A0
2740
1F80
ENDCHAR
STARTCHAR 2466
ENCODING 9318
SWIDTH 1040 0
DWIDTH 13 0
BBX 12 12 0 -1
BITMAP
0F80
3040
5FA0
8090
8110
8210
8210
8210
8410
4420
2040
1F80
ENDCHAR
STARTCHAR 2467
ENCODING 9319
SWIDTH 1040 0
DWIDTH 13 0
BBX 12 12 0 -1
BITMAP
0F80
3040
4F20
8890
8890
8710
8890
9090
9090
48A0
2740
1F80
ENDCHAR
STARTCHAR 2468
ENCODING 9320
SWIDTH 1040 0
DWIDTH 13 0
BBX 12 12 0 -1
BITMAP
0F80
3040
4720
8890
9090
8890
8F90
8090
8890
4920
2640
1F80
ENDCHAR
STARTCHAR 2469
ENCODING 9321
SWIDTH 1040 0
DWIDTH 13 0
BBX 12 12 0 -1
BITMAP
0F80
3040
71A0
9250
9250
9250
9250
9250
9250
51A0
2040
1F80
ENDCHAR
STARTCHAR 2474
ENCODING 9332
SWIDTH 1040 0
DWIDTH 13 0
BBX 12 12 0 -1
BITMAP
4020
4E20
8210
8210
8210
8210
8210
8210
8210
8210
8220
4020
ENDCHAR
STARTCHAR 2475
ENCODING 9333
SWIDTH 1040 0
DWIDTH 13 0
BBX 12 12 0 -1
BITMAP
4020
4F20
9890
9090
8090
8110
8610
8C10
8810
9010
5FA0
4020
ENDCHAR
STARTCHAR 2476
ENCODING 9334
SWIDTH 1040 0
DWIDTH 13 0
BBX 12 12 0 -1
BITMAP
4020
4F20
9090
8090
8090
8710
8190
8090
9090
9090
4F20
4020
ENDCHAR
STARTCHAR 2477
ENCODING 9335
SWIDTH 1040 0
DWIDTH 13 0
BBX 12 12 0 -1
BITMAP
4020
8110
8310
8510
8510
8910
9110
BFD0
8110
8110
4120
4020
ENDCHAR
STARTCHAR 2478
ENCODING 9336
SWIDTH 1040 0
DWIDTH 13 0
BBX 12 12 0 -1
BITMAP
4020
4FA0
8810
9010
9710
9890
8090
80D0
8090
9890
4F20
4020
ENDCHAR
STARTCHAR 2479
ENCODING 9337
SWIDTH 1040 0
DWIDTH 13 0
BBX 12 12 0 -1
BITMAP
4020
4720
8890
9010
9710
9890
9090
9050
9090
9890
4F20
4020
ENDCHAR
STARTCHAR 247A
ENCODING 9338
SWIDTH 1040 0
DWIDTH 13 0
BBX 12 12 0 -1
BITMAP
4020
9FD0
8090
8090
8110
8310
8210
8210
8410
8410
4420
4020
ENDCHAR
STARTCHAR 247B
ENCODING 9339
SWIDTH 1040 0
DWIDTH 13 0
BBX 12 12 0 -1
BITMAP
4020
4F20
9090
9090
9090
8F10
9890
9050
9050
9090
4FA0
4020
ENDCHAR
STARTCHAR 247C
ENCODING 9340
SWIDTH 1040 0
DWIDTH 13 0
BBX 12 12 0 -1
BITMAP
4020
4F20
9090
9090
9090
90D0
99D0
8E90
8090
9090
4F20
4020
ENDCHAR
STARTCHAR 247D
ENCODING 9341
SWIDTH 1040 0
DWIDTH 13 0
BBX 12 12 0 -1
BITMAP
4020
71A0
9250
9250
9250
9230
9230
9250
9250
9250
51A0
4020
ENDCHAR
STARTCHAR 247E
ENCODING 9342
SWIDTH 1040 0
DWIDTH 13 0
BBX 12 12 0 -1
BITMAP
4020
B990
8890
8890
8890
8890
8890
8890
8890
8890
48A0
4020
ENDCHAR
STARTCHAR 247F
ENCODING 9343
SWIDTH 1040 0
DWIDTH 13 0
BBX 12 12 0 -1
BITMAP
4020
71E0
9250
9250
9050
9050
9090
9110
9210
9210
93D0
4020
ENDCHAR
STARTCHAR 2480
ENCODING 9344
SWIDTH 1040 0
DWIDTH 13 0
BBX 12 12 0 -1
BITMAP
4020
73A0
9250
9050
9050
9190
9050
9050
9050
9250
53A0
4020
ENDCHAR
STARTCHAR 2481
ENCODING 9345
SWIDTH 1040 0
DWIDTH 13 0
BBX 12 12 0 -1
BITMAP
4020
B0A0
9090
9190
9190
9290
9290
9490
97F0
9090
9090
4020
ENDCHAR
STARTCHAR 2482
ENCODING 9346
SWIDTH 1040 0
DWIDTH 13 0
BBX 12 12 0 -1
BITMAP
4020
B3D0
9210
9210
9390
9250
9050
9050
9050
9250
53A0
4020
ENDCHAR
STARTCHAR 2483
ENCODING 9347
SWIDTH 1040 0
DWIDTH 13 0
BBX 12 12 0 -1
BITMAP
4020
71E0
9250
9210
9390
9650
9250
9250
9250
9250
51A0
4020
ENDCHAR
STARTCHAR 2484
ENCODING 9348
SWIDTH 1040 0
DWIDTH 13 0
BBX 12 12 0 -1
BITMAP
4020
B3E0
9050
9050
9090
9090
9090
9110
9110
9110
5120
4020
ENDCHAR
STARTCHAR 2485
ENCODING 9349
SWIDTH 1040 0
DWIDTH 13 0
BBX 12 12 0 -1
BITMAP
4020
73A0
9250
9250
9250
9190
9250
9450
9450
9250
53A0
4020
ENDCHAR
STARTCHAR 2486
ENCODING 9350
SWIDTH 1040 0
DWIDTH 13 0
BBX 12 12 0 -1
BITMAP
4020
71A0
9250
9450
9450
9450
9250
91D0
9050
9250
53A0
4020
ENDCHAR
STARTCHAR 2487
ENCODING 9351
SWIDTH 1040 0
DWIDTH 13 0
BBX 12 12 0 -1
BITMAP
4020
59E0
A550
A630
8630
8A30
8A30
9230
A230
A150
7DE0
4020
ENDCHAR
STARTCHAR 2488
ENCODING 9352
SWIDTH 1040 0
DWIDTH 13 0
BBX 8 10 4 0
BITMAP
E0
20
20
20
20
20
20
20
20
21
ENDCHAR
STARTCHAR 2489
ENCODING 9353
SWIDTH 1040 0
DWIDTH 13 0
BBX 9 10 3 0
BITMAP
7800
C400
8400
0400
0C00
1000
6000
4000
8000
FE80
ENDCHAR
STARTCHAR 248A
ENCODING 9354
SWIDTH 1040 0
DWIDTH 13 0
BBX 9 10 3 0
BITMAP
7800
8400
0400
0400
3800
0C00
0400
8400
8400
7880
ENDCHAR
STARTCHAR 248B
ENCODING 9355
SWIDTH 1040 0
DWIDTH 13 0
BBX 10 10 2 0
BITMAP
0400
0C00
1400
1400
2400
4400
FF00
0400
0400
0440
ENDCHAR
STARTCHAR 248C
ENCODING 9356
SWIDTH 1040 0
DWIDTH 13 0
BBX 9 10 3 0
BITMAP
7C00
4000
8000
B800
C400
0400
0400
0400
C400
7880
ENDCHAR
STARTCHAR 248D
ENCODING 9357
SWIDTH 1040 0
DWIDTH 13 0
BBX 9 10 3 0
BITMAP
3800
4400
8000
B800
C400
8200
8200
8200
C400
7880
ENDCHAR
STARTCHAR 248E
ENCODING 9358
SWIDTH 1040 0
DWIDTH 13 0
BBX 9 10 3 0
BITMAP
FC00
0400
0800
0800
1000
1000
3000
2000
2000
2080
ENDCHAR
STARTCHAR 248F
ENCODING 9359
SWIDTH 1040 0
DWIDTH 13 0
BBX 9 10 3 0
BITMAP
7800
8400
8400
8400
7800
8400
8200
8200
8400
7880
ENDCHAR
STARTCHAR 2490
ENCODING 9360
SWIDTH 1040 0
DWIDTH 13 0
BBX 9 10 3 0
BITMAP
7800
8400
8400
8400
8600
CA00
7400
0400
8400
7880
ENDCHAR
STARTCHAR 2491
ENCODING 9361
SWIDTH 1040 0
DWIDTH 13 0
BBX 11 10 1 0
BITMAP
C700
4900
4880
5080
5080
5080
5080
4880
4900
4720
ENDCHAR
STARTCHAR 2492
ENCODING 9362
SWIDTH 1040 0
DWIDTH 13 0
BBX 11 10 1 0
BITMAP
C700
4100
4100
4100
4100
4100
4100
4100
4100
4120
ENDCHAR
STARTCHAR 2493
ENCODING 9363
SWIDTH 1040 0
DWIDTH 13 0
BBX 11 10 1 0
BITMAP
C700
4900
4880
4100
4100
4200
4400
4800
4800
4FA0
ENDCHAR
STARTCHAR 2494
ENCODING 9364
SWIDTH 1040 0
DWIDTH 13 0
BBX 11 10 1 0
BITMAP
C700
4900
4080
4100
4700
4100
4080
4880
4880
4720
ENDCHAR
STARTCHAR 2495
ENCODING 9365
SWIDTH 1040 0
DWIDTH 13 0
BBX 11 10 1 0
BITMAP
C100
4300
4300
4500
4500
4900
4900
5F80
4100
4120
ENDCHAR
STARTCHAR 2496
ENCODING 9366
SWIDTH 1040 0
DWIDTH 13 0
BBX 11 10 1 0
BITMAP
CF00
4800
4800
4E00
4900
4080
4080
4080
4900
4720
ENDCHAR
STARTCHAR 2497
ENCODING 9367
SWIDTH 1040 0
DWIDTH 13 0
BBX 11 10 1 0
BITMAP
C700
4900
4800
5600
4900
4880
4880
4880
4900
4720
ENDCHAR
STARTCHAR 2498
ENCODING 9368
SWIDTH 1040 0
DWIDTH 13 0
BBX 11 10 1 0
BITMAP
CF80
4080
4100
4100
4200
4200
4200
4400
4400
4420
ENDCHAR
STARTCHAR 2499
ENCODING 9369
SWIDTH 1040 0
DWIDTH 13 0
BBX 11 10 1 0
BITMAP
C700
4900
4880
4900
4700
4900
5080
5080
4880
4F20
ENDCHAR
STARTCHAR 249A
ENCODING 9370
SWIDTH 1040 0
DWIDTH 13 0
BBX 11 10 1 0
BITMAP
C700
4900
4880
4880
4880
4980
4680
4080
4900
4620
ENDCHAR
STARTCHAR 249B
ENCODING 9371
SWIDTH 1040 0
DWIDTH 13 0
BBX 11 10 1 0
BITMAP
6300
9480
9480
1480
2480
6480
4480
8480
8480
F320
ENDCHAR
STARTCHAR 2500
ENCODING 9472
SWIDTH 1040 0
DWIDTH 13 0
BBX 10 1 1 5
BITMAP
FFC0
ENDCHAR
STARTCHAR 2501
ENCODING 9473
SWIDTH 1040 0
DWIDTH 13 0
BBX 12 2 0 4
BITMAP
FFF0
FFF0
ENDCHAR
STARTCHAR 2502
ENCODING 9474
SWIDTH 1040 0
DWIDTH 13 0
BBX 1 12 6 -1
BITMAP
80
80
80
80
80
80
80
80
80
80
80
80
ENDCHAR
STARTCHAR 2503
ENCODING 9475
SWIDTH 1040 0
DWIDTH 13 0
BBX 2 14 5 -2
BITMAP
C0
C0
C0
C0
C0
C0
C0
C0
C0
C0
C0
C0
C0
C0
ENDCHAR
STARTCHAR 2504
ENCODING 9476
SWIDTH 1040 0
DWIDTH 13 0
BBX 1 1 10 5
BITMAP
80
ENDCHAR
STARTCHAR 2505
ENCODING 9477
SWIDTH 1040 0
DWIDTH 13 0
BBX 11 2 1 4
BITMAP
CCE0
CCE0
ENDCHAR
STARTCHAR 2506
ENCODING 9478
SWIDTH 1040 0
DWIDTH 13 0
BBX 1 10 6 0
BITMAP
80
00
00
00
80
80
00
00
00
80
ENDCHAR
STARTCHAR 2507
ENCODING 9479
SWIDTH 1040 0
DWIDTH 13 0
BBX 2 12 5 -1
BITMAP
C0
C0
C0
00
00
C0
C0
00
00
C0
C0
C0
ENDCHAR
STARTCHAR 2508
ENCODING 9480
SWIDTH 1040 0
DWIDTH 13 0
BBX 0 0 1 5
BITMAP
ENDCHAR
STARTCHAR 2509
ENCODING 9481
SWIDTH 1040 0
DWIDTH 13 0
BBX 11 2 1 4
BITMAP
9B60
9B60
ENDCHAR
STARTCHAR 250A
ENCODING 9482
SWIDTH 1040 0
DWIDTH 13 0
BBX 1 10 6 0
BITMAP
80
00
00
80
00
00
80
00
00
80
ENDCHAR
STARTCHAR 250B
ENCODING 9483
SWIDTH 1040 0
DWIDTH 13 0
BBX 2 12 5 -1
BITMAP
C0
C0
00
C0
C0
00
00
C0
C0
00
C0
C0
ENDCHAR
STARTCHAR 250C
ENCODING 9484
SWIDTH 1040 0
DWIDTH 13 0
BBX 5 6 6 -2
BITMAP
F8
80
80
80
80
80
ENDCHAR
STARTCHAR 250D
ENCODING 9485
SWIDTH 1040 0
DWIDTH 13 0
BBX 6 7 6 -2
BITMAP
FC
FC
80
80
80
80
80
ENDCHAR
STARTCHAR 250E
ENCODING 9486
SWIDTH 1040 0
DWIDTH 13 0
BBX 6 7 5 -2
BITMAP
FC
C0
C0
C0
C0
C0
C0
ENDCHAR
STARTCHAR 250F
ENCODING 9487
SWIDTH 1040 0
DWIDTH 13 0
BBX 7 8 5 -2
BITMAP
FE
FE
C0
C0
C0
C0
C0
C0
ENDCHAR
STARTCHAR 2510
ENCODING 9488
SWIDTH 1040 0
DWIDTH 13 0
BBX 5 6 1 -2
BITMAP
F8
08
08
08
08
08
ENDCHAR
STARTCHAR 2511
ENCODING 9489
SWIDTH 1040 0
DWIDTH 13 0
BBX 6 7 0 -2
BITMAP
FC
FC
04
04
04
04
04
ENDCHAR
STARTCHAR 2512
ENCODING 9490
SWIDTH 1040 0
DWIDTH 13 0
BBX 6 7 1 -2
BITMAP
FC
0C
0C
0C
0C
0C
0C
ENDCHAR
STARTCHAR 2513
ENCODING 9491
SWIDTH 1040 0
DWIDTH 13 0
BBX 7 8 0 -2
BITMAP
FE
FE
06
06
06
06
06
06
ENDCHAR
STARTCHAR 2514
ENCODING 9492
SWIDTH 1040 0
DWIDTH 13 0
BBX 5 6 6 5
BITMAP
80
80
80
80
80
F8
ENDCHAR
STARTCHAR 2515
ENCODING 9493
SWIDTH 1040 0
DWIDTH 13 0
BBX 6 7 6 4
BITMAP
80
80
80
80
80
FC
FC
ENDCHAR
STARTCHAR 2516
ENCODING 9494
SWIDTH 1040 0
DWIDTH 13 0
BBX 6 6 5 5
BITMAP
C0
C0
C0
C0
C0
FC
ENDCHAR
STARTCHAR 2517
ENCODING 9495
SWIDTH 1040 0
DWIDTH 13 0
BBX 7 7 5 4
BITMAP
C0
C0
C0
C0
C0
FE
FE
ENDCHAR
STARTCHAR 2518
ENCODING 9496
SWIDTH 1040 0
DWIDTH 13 0
BBX 5 6 1 5
BITMAP
08
08
08
08
08
F8
ENDCHAR
STARTCHAR 2519
ENCODING 9497
SWIDTH 1040 0
DWIDTH 13 0
BBX 6 7 0 4
BITMAP
04
04
04
04
04
FC
FC
ENDCHAR
STARTCHAR 251A
ENCODING 9498
SWIDTH 1040 0
DWIDTH 13 0
BBX 6 6 1 5
BITMAP
0C
0C
0C
0C
0C
FC
ENDCHAR
STARTCHAR 251B
ENCODING 9499
SWIDTH 1040 0
DWIDTH 13 0
BBX 7 7 0 4
BITMAP
06
06
06
06
06
FE
FE
ENDCHAR
STARTCHAR 251C
ENCODING 9500
SWIDTH 1040 0
DWIDTH 13 0
BBX 5 12 6 -2
BITMAP
80
80
80
80
80
80
F8
80
80
80
80
80
ENDCHAR
STARTCHAR 251D
ENCODING 9501
SWIDTH 1040 0
DWIDTH 13 0
BBX 6 12 6 -2
BITMAP
80
80
80
80
80
FC
FC
80
80
80
80
80
ENDCHAR
STARTCHAR 251E
ENCODING 9502
SWIDTH 1040 0
DWIDTH 13 0
BBX 6 12 5 -2
BITMAP
C0
C0
C0
C0
C0
C0
BC
80
80
80
80
80
ENDCHAR
STARTCHAR 251F
ENCODING 9503
SWIDTH 1040 0
DWIDTH 13 0
BBX 6 13 5 -2
BITMAP
80
80
80
80
80
80
FC
C0
C0
C0
C0
C0
C0
ENDCHAR
STARTCHAR 2520
ENCODING 9504
SWIDTH 1040 0
DWIDTH 13 0
BBX 6 13 5 -2
BITMAP
C0
C0
C0
C0
C0
C0
FC
C0
C0
C0
C0
C0
C0
ENDCHAR
STARTCHAR 2521
ENCODING 9505
SWIDTH 1040 0
DWIDTH 13 0
BBX 7 12 5 -2
BITMAP
C0
C0
C0
C0
C0
FE
FE
80
80
80
80
80
ENDCHAR
STARTCHAR 2522
ENCODING 9506
SWIDTH 1040 0
DWIDTH 13 0
BBX 7 13 5 -2
BITMAP
80
80
80
80
80
FE
FE
C0
C0
C0
C0
C0
C0
ENDCHAR
STARTCHAR 2523
ENCODING 9507
SWIDTH 1040 0
DWIDTH 13 0
BBX 7 13 5 -2
BITMAP
C0
C0
C0
C0
C0
FE
FE
C0
C0
C0
C0
C0
C0
ENDCHAR
STARTCHAR 2524
ENCODING 9508
SWIDTH 1040 0
DWIDTH 13 0
BBX 5 12 1 -2
BITMAP
08
08
08
08
08
08
F8
08
08
08
08
08
ENDCHAR
STARTCHAR 2525
ENCODING 9509
SWIDTH 1040 0
DWIDTH 13 0
BBX 6 12 0 -2
BITMAP
04
04
04
04
04
FC
FC
04
04
04
04
04
ENDCHAR
STARTCHAR 2526
ENCODING 9510
SWIDTH 1040 0
DWIDTH 13 0
BBX 6 13 1 -2
BITMAP
0C
0C
0C
0C
0C
0C
F4
04
04
04
04
04
04
ENDCHAR
STARTCHAR 2527
ENCODING 9511
SWIDTH 1040 0
DWIDTH 13 0
BBX 6 13 1 -2
BITMAP
08
08
08
08
08
08
FC
0C
0C
0C
0C
0C
0C
ENDCHAR
STARTCHAR 2528
ENCODING 9512
SWIDTH 1040 0
DWIDTH 13 0
BBX 6 13 1 -2
BITMAP
0C
0C
0C
0C
0C
0C
FC
0C
0C
0C
0C
0C
0C
ENDCHAR
STARTCHAR 2529
ENCODING 9513
SWIDTH 1040 0
DWIDTH 13 0
BBX 7 12 0 -2
BITMAP
06
06
06
06
06
FE
FE
04
04
04
04
04
ENDCHAR
STARTCHAR 252A
ENCODING 9514
SWIDTH 1040 0
DWIDTH 13 0
BBX 7 13 0 -2
BITMAP
04
04
04
04
04
FE
FE
06
06
06
06
06
06
ENDCHAR
STARTCHAR 252B
ENCODING 9515
SWIDTH 1040 0
DWIDTH 13 0
BBX 7 13 0 -2
BITMAP
06
06
06
06
06
FE
FE
06
06
06
06
06
06
ENDCHAR
STARTCHAR 252C
ENCODING 9516
SWIDTH 1040 0
DWIDTH 13 0
BBX 10 6 1 -2
BITMAP
FFC0
0800
0800
0800
0800
0800
ENDCHAR
STARTCHAR 252D
ENCODING 9517
SWIDTH 1040 0
DWIDTH 13 0
BBX 11 7 0 -2
BITMAP
FC00
FFE0
0400
0400
0400
0400
0400
ENDCHAR
STARTCHAR 252E
ENCODING 9518
SWIDTH 1040 0
DWIDTH 13 0
BBX 11 7 1 -2
BITMAP
07E0
FFE0
0800
0800
0800
0800
0800
ENDCHAR
STARTCHAR 252F
ENCODING 9519
SWIDTH 1040 0
DWIDTH 13 0
BBX 12 7 0 -2
BITMAP
FFF0
FFF0
0400
0400
0400
0400
0400
ENDCHAR
STARTCHAR 2530
ENCODING 9520
SWIDTH 1040 0
DWIDTH 13 0
BBX 10 7 1 -2
BITMAP
FFC0
0C00
0C00
0C00
0C00
0C00
0C00
ENDCHAR
STARTCHAR 2531
ENCODING 9521
SWIDTH 1040 0
DWIDTH 13 0
BBX 11 8 0 -2
BITMAP
FE00
FFE0
0600
0600
0600
0600
0600
0600
ENDCHAR
STARTCHAR 2532
ENCODING 9522
SWIDTH 1040 0
DWIDTH 13 0
BBX 11 8 1 -2
BITMAP
0FE0
FFE0
0C00
0C00
0C00
0C00
0C00
0C00
ENDCHAR
STARTCHAR 2533
ENCODING 9523
SWIDTH 1040 0
DWIDTH 13 0
BBX 12 8 0 -2
BITMAP
FFF0
FFF0
0600
0600
0600
0600
0600
0600
ENDCHAR
STARTCHAR 2534
ENCODING 9524
SWIDTH 1040 0
DWIDTH 13 0
BBX 10 6 1 5
BITMAP
0800
0800
0800
0800
0800
FFC0
ENDCHAR
STARTCHAR 2535
ENCODING 9525
SWIDTH 1040 0
DWIDTH 13 0
BBX 11 7 0 4
BITMAP
0400
0400
0400
0400
0400
FC00
FFE0
ENDCHAR
STARTCHAR 2536
ENCODING 9526
SWIDTH 1040 0
DWIDTH 13 0
BBX 11 7 1 4
BITMAP
0800
0800
0800
0800
0800
07E0
FFE0
ENDCHAR
STARTCHAR 2537
ENCODING 9527
SWIDTH 1040 0
DWIDTH 13 0
BBX 12 7 0 4
BITMAP
0400
0400
0400
0400
0400
FFF0
FFF0
ENDCHAR
STARTCHAR 2538
ENCODING 9528
SWIDTH 1040 0
DWIDTH 13 0
BBX 10 6 1 5
BITMAP
0C00
0C00
0C00
0C00
0C00
FFC0
ENDCHAR
STARTCHAR 2539
ENCODING 9529
SWIDTH 1040 0
DWIDTH 13 0
BBX 11 7 0 4
BITMAP
0600
0600
0600
0600
0600
FE00
FFE0
ENDCHAR
STARTCHAR 253A
ENCODING 9530
SWIDTH 1040 0
DWIDTH 13 0
BBX 11 7 1 4
BITMAP
0C00
0C00
0C00
0C00
0C00
0FE0
FFE0
ENDCHAR
STARTCHAR 253B
ENCODING 9531
SWIDTH 1040 0
DWIDTH 13 0
BBX 12 7 0 4
BITMAP
0600
0600
0600
0600
0600
FFF0
FFF0
ENDCHAR
STARTCHAR 253C
ENCODING 9532
SWIDTH 1040 0
DWIDTH 13 0
BBX 10 12 1 -2
BITMAP
0800
0800
0800
0800
0800
0800
FFC0
0800
0800
0800
0800
0800
ENDCHAR
STARTCHAR 253D
ENCODING 9533
SWIDTH 1040 0
DWIDTH 13 0
BBX 11 12 0 -2
BITMAP
0400
0400
0400
0400
0400
FC00
FFE0
0400
0400
0400
0400
0400
ENDCHAR
STARTCHAR 253E
ENCODING 9534
SWIDTH 1040 0
DWIDTH 13 0
BBX 11 12 1 -2
BITMAP
0800
0800
0800
0800
0800
07E0
FFE0
0800
0800
0800
0800
0800
ENDCHAR
STARTCHAR 253F
ENCODING 9535
SWIDTH 1040 0
DWIDTH 13 0
BBX 12 12 0 -2
BITMAP
0400
0400
0400
0400
0400
FFF0
FFF0
0400
0400
0400
0400
0400
ENDCHAR
STARTCHAR 2540
ENCODING 9536
SWIDTH 1040 0
DWIDTH 13 0
BBX 10 12 1 -2
BITMAP
0C00
0C00
0C00
0C00
0C00
0C00
FBC0
0800
0800
0800
0800
0800
ENDCHAR
STARTCHAR 2541
ENCODING 9537
SWIDTH 1040 0
DWIDTH 13 0
BBX 12 13 0 -1
BITMAP
0400
0400
0400
0400
0400
0400
FFF0
0600
0600
0600
0600
0600
0600
ENDCHAR
STARTCHAR 2542
ENCODING 9538
SWIDTH 1040 0
DWIDTH 13 0
BBX 10 13 1 -2
BITMAP
0C00
0C00
0C00
0C00
0C00
0C00
FFC0
0C00
0C00
0C00
0C00
0C00
0C00
ENDCHAR
STARTCHAR 2543
ENCODING 9539
SWIDTH 1040 0
DWIDTH 13 0
BBX 11 12 0 -2
BITMAP
0600
0600
0600
0600
0600
FE00
FFE0
0400
0400
0400
0400
0400
ENDCHAR
STARTCHAR 2544
ENCODING 9540
SWIDTH 1040 0
DWIDTH 13 0
BBX 11 12 1 -1
BITMAP
0C00
0C00
0C00
0C00
0C00
0FE0
FFE0
0800
0800
0800
0800
0800
ENDCHAR
STARTCHAR 2545
ENCODING 9541
SWIDTH 1040 0
DWIDTH 13 0
BBX 11 13 0 -2
BITMAP
0400
0400
0400
0400
0400
FE00
FFE0
0600
0600
0600
0600
0600
0600
ENDCHAR
STARTCHAR 2546
ENCODING 9542
SWIDTH 1040 0
DWIDTH 13 0
BBX 11 13 1 -2
BITMAP
0800
0800
0800
0800
0800
0FE0
FFE0
0C00
0C00
0C00
0C00
0C00
0C00
ENDCHAR
STARTCHAR 2547
ENCODING 9543
SWIDTH 1040 0
DWIDTH 13 0
BBX 12 12 0 -2
BITMAP
0600
0600
0600
0600
0600
FFF0
FFF0
0400
0400
0400
0400
0400
ENDCHAR
STARTCHAR 2548
ENCODING 9544
SWIDTH 1040 0
DWIDTH 13 0
BBX 12 13 0 -2
BITMAP
0400
0400
0400
0400
0400
FFF0
FFF0
0600
0600
0600
0600
0600
0600
ENDCHAR
STARTCHAR 2549
ENCODING 9545
SWIDTH 1040 0
DWIDTH 13 0
BBX 11 13 0 -2
BITMAP
0600
0600
0600
0600
0600
FE00
FFE0
0600
0600
0600
0600
0600
0600
ENDCHAR
STARTCHAR 254A
ENCODING 9546
SWIDTH 1040 0
DWIDTH 13 0
BBX 11 13 1 -2
BITMAP
0C00
0C00
0C00
0C00
0C00
0FE0
FFE0
0C00
0C00
0C00
0C00
0C00
0C00
ENDCHAR
STARTCHAR 254B
ENCODING 9547
SWIDTH 1040 0
DWIDTH 13 0
BBX 12 13 0 -2
BITMAP
0600
0600
0600
0600
0600
FFF0
FFF0
0600
0600
0600
0600
0600
0600
ENDCHAR
STARTCHAR 2550
ENCODING 9552
SWIDTH 1040 0
DWIDTH 13 0
BBX 12 2 0 4
BITMAP
FFF0
7FE0
ENDCHAR
STARTCHAR 2551
ENCODING 9553
SWIDTH 1040 0
DWIDTH 13 0
BBX 2 14 5 -2
BITMAP
80
C0
C0
C0
C0
C0
C0
C0
C0
C0
C0
C0
C0
80
ENDCHAR
STARTCHAR 2552
ENCODING 9554
SWIDTH 1040 0
DWIDTH 13 0
BBX 6 7 6 -2
BITMAP
FC
80
F8
80
80
80
80
ENDCHAR
STARTCHAR 2553
ENCODING 9555
SWIDTH 1040 0
DWIDTH 13 0
BBX 6 7 5 -2
BITMAP
FC
C0
C0
C0
C0
C0
80
ENDCHAR
STARTCHAR 2554
ENCODING 9556
SWIDTH 1040 0
DWIDTH 13 0
BBX 7 8 5 -2
BITMAP
FE
80
DC
C0
C0
C0
C0
80
ENDCHAR
STARTCHAR 2555
ENCODING 9557
SWIDTH 1040 0
DWIDTH 13 0
BBX 6 7 0 -2
BITMAP
FC
04
7C
04
04
04
04
ENDCHAR
STARTCHAR 2556
ENCODING 9558
SWIDTH 1040 0
DWIDTH 13 0
BBX 6 7 1 -2
BITMAP
FC
0C
0C
0C
0C
0C
08
ENDCHAR
STARTCHAR 2557
ENCODING 9559
SWIDTH 1040 0
DWIDTH 13 0
BBX 7 8 0 -2
BITMAP
FE
02
7E
06
06
06
06
04
ENDCHAR
STARTCHAR 2558
ENCODING 9560
SWIDTH 1040 0
DWIDTH 13 0
BBX 6 7 6 4
BITMAP
80
80
80
80
80
FC
F8
ENDCHAR
STARTCHAR 2559
ENCODING 9561
SWIDTH 1040 0
DWIDTH 13 0
BBX 6 6 5 5
BITMAP
C0
C0
C0
C0
C0
FC
ENDCHAR
STARTCHAR 255A
ENCODING 9562
SWIDTH 1040 0
DWIDTH 13 0
BBX 7 7 5 4
BITMAP
C0
C0
C0
C0
C0
BE
FC
ENDCHAR
STARTCHAR 255B
ENCODING 9563
SWIDTH 1040 0
DWIDTH 13 0
BBX 6 7 0 4
BITMAP
04
04
04
04
04
FC
7C
ENDCHAR
STARTCHAR 255C
ENCODING 9564
SWIDTH 1040 0
DWIDTH 13 0
BBX 6 6 1 5
BITMAP
0C
0C
0C
0C
0C
FC
ENDCHAR
STARTCHAR 255D
ENCODING 9565
SWIDTH 1040 0
DWIDTH 13 0
BBX 7 7 0 4
BITMAP
06
06
06
06
06
FE
7E
ENDCHAR
STARTCHAR 255E
ENCODING 9566
SWIDTH 1040 0
DWIDTH 13 0
BBX 6 12 6 -2
BITMAP
80
80
80
80
80
FC
80
F8
80
80
80
80
ENDCHAR
STARTCHAR 255F
ENCODING 9567
SWIDTH 1040 0
DWIDTH 13 0
BBX 6 13 5 -2
BITMAP
C0
C0
C0
C0
C0
C0
DC
C0
C0
C0
C0
C0
80
ENDCHAR
STARTCHAR 2560
ENCODING 9568
SWIDTH 1040 0
DWIDTH 13 0
BBX 7 13 5 -2
BITMAP
C0
C0
C0
C0
C0
BE
80
DC
C0
C0
C0
C0
80
ENDCHAR
STARTCHAR 2561
ENCODING 9569
SWIDTH 1040 0
DWIDTH 13 0
BBX 6 12 0 -2
BITMAP
04
04
04
04
04
FC
04
7C
04
04
04
04
ENDCHAR
STARTCHAR 2562
ENCODING 9570
SWIDTH 1040 0
DWIDTH 13 0
BBX 6 13 1 -2
BITMAP
0C
0C
0C
0C
0C
0C
FC
0C
0C
0C
0C
0C
08
ENDCHAR
STARTCHAR 2563
ENCODING 9571
SWIDTH 1040 0
DWIDTH 13 0
BBX 7 13 0 -2
BITMAP
06
06
06
06
06
FE
02
7E
06
06
06
06
04
ENDCHAR
STARTCHAR 2564
ENCODING 9572
SWIDTH 1040 0
DWIDTH 13 0
BBX 12 7 0 -2
BITMAP
FFF0
0000
7FE0
0400
0400
0400
0400
ENDCHAR
STARTCHAR 2565
ENCODING 9573
SWIDTH 1040 0
DWIDTH 13 0
BBX 10 7 1 -2
BITMAP
FFC0
0C00
0C00
0C00
0C00
0C00
0800
ENDCHAR
STARTCHAR 2566
ENCODING 9574
SWIDTH 1040 0
DWIDTH 13 0
BBX 12 8 0 -2
BITMAP
FFF0
0000
7EE0
0600
0600
0600
0600
0400
ENDCHAR
STARTCHAR 2567
ENCODING 9575
SWIDTH 1040 0
DWIDTH 13 0
BBX 12 7 0 4
BITMAP
0400
0400
0400
0400
0400
FFF0
7FE0
ENDCHAR
STARTCHAR 2568
ENCODING 9576
SWIDTH 1040 0
DWIDTH 13 0
BBX 10 6 1 5
BITMAP
0C00
0C00
0C00
0C00
0C00
FFC0
ENDCHAR
STARTCHAR 2569
ENCODING 9577
SWIDTH 1040 0
DWIDTH 13 0
BBX 12 7 0 4
BITMAP
0600
0600
0600
0600
0600
FDF0
7FE0
ENDCHAR
STARTCHAR 256A
ENCODING 9578
SWIDTH 1040 0
DWIDTH 13 0
BBX 12 12 0 -2
BITMAP
0400
0400
0400
0400
0400
FFF0
0400
7FE0
0400
0400
0400
0400
ENDCHAR
STARTCHAR 256B
ENCODING 9579
SWIDTH 1040 0
DWIDTH 13 0
BBX 10 13 1 -2
BITMAP
0C00
0C00
0C00
0C00
0C00
0C00
FFC0
0C00
0C00
0C00
0C00
0C00
0800
ENDCHAR
STARTCHAR 256C
ENCODING 9580
SWIDTH 1040 0
DWIDTH 13 0
BBX 12 13 0 -2
BITMAP
0600
0600
0600
0600
0600
FDF0
0000
7EE0
0600
0600
0600
0600
0400
ENDCHAR
STARTCHAR 256D
ENCODING 9581
SWIDTH 1040 0
DWIDTH 13 0
BBX 6 7 6 -2
BITMAP
0C
30
40
40
80
80
80
ENDCHAR
STARTCHAR 256E
ENCODING 9582
SWIDTH 1040 0
DWIDTH 13 0
BBX 6 6 0 -2
BITMAP
C0
30
08
04
04
04
ENDCHAR
STARTCHAR 256F
ENCODING 9583
SWIDTH 1040 0
DWIDTH 13 0
BBX 6 6 0 6
BITMAP
04
04
04
08
10
E0
ENDCHAR
STARTCHAR 2570
ENCODING 9584
SWIDTH 1040 0
DWIDTH 13 0
BBX 6 7 6 5
BITMAP
80
80
80
40
40
20
1C
ENDCHAR
STARTCHAR 2571
ENCODING 9585
SWIDTH 1040 0
DWIDTH 13 0
BBX 12 12 0 -1
BITMAP
0010
0020
0040
0080
0100
0200
0400
0800
1000
2000
4000
8000
ENDCHAR
STARTCHAR 2572
ENCODING 9586
SWIDTH 1040 0
DWIDTH 13 0
BBX 12 12 0 -1
BITMAP
8000
4000
2000
1000
0800
0400
0200
0100
0080
0040
0020
0010
ENDCHAR
STARTCHAR 2573
ENCODING 9587
SWIDTH 1040 0
DWIDTH 13 0
BBX 7 8 3 1
BITMAP
02
84
48
30
30
48
84
02
ENDCHAR
STARTCHAR 2581
ENCODING 9601
SWIDTH 1040 0
DWIDTH 13 0
BBX 12 2 0 -1
BITMAP
FFF0
FFF0
ENDCHAR
STARTCHAR 2582
ENCODING 9602
SWIDTH 1040 0
DWIDTH 13 0
BBX 12 4 0 -2
BITMAP
FFF0
FFF0
FFF0
FFF0
ENDCHAR
STARTCHAR 2583
ENCODING 9603
SWIDTH 1040 0
DWIDTH 13 0
BBX 12 5 0 -2
BITMAP
FFF0
FFF0
FFF0
FFF0
FFF0
ENDCHAR
STARTCHAR 2584
ENCODING 9604
SWIDTH 1040 0
DWIDTH 13 0
BBX 12 7 0 -2
BITMAP
FFF0
FFF0
FFF0
FFF0
FFF0
FFF0
FFF0
ENDCHAR
STARTCHAR 2585
ENCODING 9605
SWIDTH 1040 0
DWIDTH 13 0
BBX 12 9 0 -2
BITMAP
FFF0
FFF0
FFF0
FFF0
FFF0
FFF0
FFF0
FFF0
FFF0
ENDCHAR
STARTCHAR 2586
ENCODING 9606
SWIDTH 1040 0
DWIDTH 13 0
BBX 12 10 0 -2
BITMAP
FFF0
FFF0
FFF0
FFF0
FFF0
FFF0
FFF0
FFF0
FFF0
FFF0
ENDCHAR
STARTCHAR 2587
ENCODING 9607
SWIDTH 1040 0
DWIDTH 13 0
BBX 12 12 0 -2
BITMAP
FFF0
FFF0
FFF0
FFF0
FFF0
FFF0
FFF0
FFF0
FFF0
FFF0
FFF0
FFF0
ENDCHAR
STARTCHAR 2588
ENCODING 9608
SWIDTH 1040 0
DWIDTH 13 0
BBX 12 14 0 -2
BITMAP
FFF0
FFF0
FFF0
FFF0
FFF0
FFF0
FFF0
FFF0
FFF0
FFF0
FFF0
FFF0
FFF0
FFF0
ENDCHAR
STARTCHAR 2589
ENCODING 9609
SWIDTH 1040 0
DWIDTH 13 0
BBX 11 14 0 -2
BITMAP
FFE0
FFE0
FFE0
FFE0
FFE0
FFE0
FFE0
FFE0
FFE0
FFE0
FFE0
FFE0
FFE0
FFE0
ENDCHAR
STARTCHAR 258A
ENCODING 9610
SWIDTH 1040 0
DWIDTH 13 0
BBX 9 14 0 -2
BITMAP
FF80
FF80
FF80
FF80
FF80
FF80
FF80
FF80
FF80
FF80
FF80
FF80
FF80
FF80
ENDCHAR
STARTCHAR 258B
ENCODING 9611
SWIDTH 1040 0
DWIDTH 13 0
BBX 8 14 0 -2
BITMAP
FF
FF
FF
FF
FF
FF
FF
FF
FF
FF
FF
FF
FF
FF
ENDCHAR
STARTCHAR 258C
ENCODING 9612
SWIDTH 1040 0
DWIDTH 13 0
BBX 6 14 0 -2
BITMAP
FC
FC
FC
FC
FC
FC
FC
FC
FC
FC
FC
FC
FC
FC
ENDCHAR
STARTCHAR 258D
ENCODING 9613
SWIDTH 1040 0
DWIDTH 13 0
BBX 5 14 0 -2
BITMAP
F8
F8
F8
F8
F8
F8
F8
F8
F8
F8
F8
F8
F8
F8
ENDCHAR
STARTCHAR 258E
ENCODING 9614
SWIDTH 1040 0
DWIDTH 13 0
BBX 3 14 0 -2
BITMAP
E0
E0
E0
E0
E0
E0
E0
E0
E0
E0
E0
E0
E0
E0
ENDCHAR
STARTCHAR 258F
ENCODING 9615
SWIDTH 1040 0
DWIDTH 13 0
BBX 2 14 0 -2
BITMAP
C0
C0
C0
C0
C0
C0
C0
C0
C0
C0
C0
C0
C0
C0
ENDCHAR
STARTCHAR 2593
ENCODING 9619
SWIDTH 1040 0
DWIDTH 13 0
BBX 12 12 0 -1
BITMAP
FFF0
FFF0
DB50
FFF0
B4B0
B4B0
DB50
DB50
FFF0
B4B0
FFF0
FFF0
ENDCHAR
STARTCHAR 2594
ENCODING 9620
SWIDTH 1040 0
DWIDTH 13 0
BBX 12 2 0 9
BITMAP
FFF0
FFF0
ENDCHAR
STARTCHAR 2595
ENCODING 9621
SWIDTH 1040 0
DWIDTH 13 0
BBX 1 14 11 -2
BITMAP
80
80
80
80
80
80
80
80
80
80
80
80
80
80
ENDCHAR
STARTCHAR 25A0
ENCODING 9632
SWIDTH 1040 0
DWIDTH 13 0
BBX 9 10 2 0
BITMAP
FF80
FF80
FF80
FF80
FF80
FF80
FF80
FF80
FF80
FF80
ENDCHAR
STARTCHAR 25A1
ENCODING 9633
SWIDTH 1040 0
DWIDTH 13 0
BBX 9 10 2 0
BITMAP
FF80
8080
8080
8080
8080
8080
8080
8080
8080
FF80
ENDCHAR
STARTCHAR 25B2
ENCODING 9650
SWIDTH 1040 0
DWIDTH 13 0
BBX 11 10 1 1
BITMAP
0400
0C00
0E00
1E00
3F00
3F80
7F80
7FC0
FFC0
FFE0
ENDCHAR
STARTCHAR 25B3
ENCODING 9651
SWIDTH 1040 0
DWIDTH 13 0
BBX 11 10 1 1
BITMAP
0400
0C00
1200
1200
2100
2080
4080
8040
8040
FFE0
ENDCHAR
STARTCHAR 25BC
ENCODING 9660
SWIDTH 1040 0
DWIDTH 13 0
BBX 10 9 1 -1
BITMAP
FFC0
7FC0
7F80
3F80
3F00
1F00
1E00
0E00
0400
ENDCHAR
STARTCHAR 25BD
ENCODING 9661
SWIDTH 1040 0
DWIDTH 13 0
BBX 11 10 1 -1
BITMAP
FFE0
8040
8040
4080
4080
2100
1100
1200
0C00
0400
ENDCHAR
STARTCHAR 25C6
ENCODING 9670
SWIDTH 1040 0
DWIDTH 13 0
BBX 11 12 1 -1
BITMAP
0C00
0E00
1F00
3F80
7FC0
FFE0
FFE0
7FC0
3F80
1F00
0E00
0C00
ENDCHAR
STARTCHAR 25C7
ENCODING 9671
SWIDTH 1040 0
DWIDTH 13 0
BBX 12 12 0 -1
BITMAP
0600
0900
1080
2040
4020
8010
8010
4020
2040
1080
0900
0600
ENDCHAR
STARTCHAR 25CB
ENCODING 9675
SWIDTH 1040 0
DWIDTH 13 0
BBX 11 10 1 0
BITMAP
3F00
4080
8040
8020
8020
8020
8020
8040
4080
3F00
ENDCHAR
STARTCHAR 25CE
ENCODING 9678
SWIDTH 1040 0
DWIDTH 13 0
BBX 11 11 1 -1
BITMAP
3F80
DE40
A140
C0A0
C0A0
C0A0
C0A0
A140
5A40
2580
1E00
ENDCHAR
STARTCHAR 25CF
ENCODING 9679
SWIDTH 1040 0
DWIDTH 13 0
BBX 11 11 1 -1
BITMAP
1F00
7F80
7FC0
FFC0
FFE0
FFE0
FFE0
FFC0
7FC0
3F80
1E00
ENDCHAR
STARTCHAR 25E2
ENCODING 9698
SWIDTH 1040 0
DWIDTH 13 0
BBX 12 13 0 -1
BITMAP
0010
0010
0030
0070
00F0
01F0
03F0
07F0
0FF0
1FF0
3FF0
7FF0
FFF0
ENDCHAR
STARTCHAR 25E3
ENCODING 9699
SWIDTH 1040 0
DWIDTH 13 0
BBX 12 13 0 -1
BITMAP
8000
C000
E000
F000
F800
FC00
FE00
FF00
FF80
FFC0
FFE0
FFF0
FFF0
ENDCHAR
STARTCHAR 25E4
ENCODING 9700
SWIDTH 1040 0
DWIDTH 13 0
BBX 12 13 0 -2
BITMAP
FFF0
FFF0
FFE0
FFC0
FF80
FF00
FE00
FC00
F800
F000
E000
C000
8000
ENDCHAR
STARTCHAR 25E5
ENCODING 9701
SWIDTH 1040 0
DWIDTH 13 0
BBX 12 13 0 -2
BITMAP
FFF0
7FF0
3FF0
1FF0
0FF0
07F0
03F0
01F0
00F0
0070
0030
0010
0010
ENDCHAR
STARTCHAR 2605
ENCODING 9733
SWIDTH 1040 0
DWIDTH 13 0
BBX 12 11 0 0
BITMAP
0200
0600
0600
FFF0
3FE0
1FC0
0F80
0F80
1D80
10C0
0040
ENDCHAR
STARTCHAR 2606
ENCODING 9734
SWIDTH 1040 0
DWIDTH 13 0
BBX 12 11 0 0
BITMAP
0200
0600
0600
F9F0
4020
3040
1080
1080
1780
18C0
0040
ENDCHAR
STARTCHAR 2609
ENCODING 9737
SWIDTH 1040 0
DWIDTH 13 0
BBX 6 6 3 2
BITMAP
38
C4
94
84
44
38
ENDCHAR
STARTCHAR 2640
ENCODING 9792
SWIDTH 1040 0
DWIDTH 13 0
BBX 8 12 2 -1
BITMAP
1C
22
42
42
22
3C
08
FF
08
08
08
08
ENDCHAR
STARTCHAR 2642
ENCODING 9794
SWIDTH 1040 0
DWIDTH 13 0
BBX 7 12 3 -1
BITMAP
10
38
54
92
10
10
78
44
84
84
44
38
ENDCHAR
STARTCHAR 2E80
ENCODING 11904
SWIDTH 1040 0
DWIDTH 13 0
BBX 4 5 4 5
BITMAP
60
10
00
C0
20
ENDCHAR
STARTCHAR 2E81
ENCODING 11905
SWIDTH 1040 0
DWIDTH 13 0
BBX 9 11 1 -1
BITMAP
0080
7F00
4000
4000
4000
4000
4000
8000
8000
8000
8000
ENDCHAR
STARTCHAR 2E82
ENCODING 11906
SWIDTH 1040 0
DWIDTH 13 0
BBX 11 3 1 6
BITMAP
FFE0
0040
0040
ENDCHAR
STARTCHAR 2E83
ENCODING 11907
SWIDTH 1040 0
DWIDTH 13 0
BBX 8 11 3 0
BITMAP
80
80
80
80
80
80
80
80
81
81
FE
ENDCHAR
STARTCHAR 2E84
ENCODING 11908
SWIDTH 1040 0
DWIDTH 13 0
BBX 11 11 1 -1
BITMAP
FF80
0080
0080
0080
0080
0080
0080
0080
00A0
00A0
0060
ENDCHAR
STARTCHAR 2E85
ENCODING 11909
SWIDTH 1040 0
DWIDTH 13 0
BBX 3 12 1 -1
BITMAP
20
20
20
40
40
C0
40
40
40
40
40
40
ENDCHAR
STARTCHAR 2E86
ENCODING 11910
SWIDTH 1040 0
DWIDTH 13 0
BBX 9 11 1 -1
BITMAP
3F80
2080
2080
2080
2080
2080
2080
4080
4080
4080
8380
ENDCHAR
STARTCHAR 2E87
ENCODING 11911
SWIDTH 1040 0
DWIDTH 13 0
BBX 11 11 1 -1
BITMAP
7F80
4080
4080
4080
4080
4080
4080
4080
80A0
8060
8060
ENDCHAR
STARTCHAR 2E88
ENCODING 11912
SWIDTH 1040 0
DWIDTH 13 0
BBX 9 6 1 5
BITMAP
0800
1F80
1080
2100
C200
0200
ENDCHAR
STARTCHAR 2E89
ENCODING 11913
SWIDTH 1040 0
DWIDTH 13 0
BBX 4 11 7 0
BITMAP
10
90
90
90
90
90
90
90
10
10
30
ENDCHAR
STARTCHAR 2E8A
ENCODING 11914
SWIDTH 1040 0
DWIDTH 13 0
BBX 6 12 5 -1
BITMAP
80
80
80
80
80
FC
80
80
80
80
80
80
ENDCHAR
STARTCHAR 2E8B
ENCODING 11915
SWIDTH 1040 0
DWIDTH 13 0
BBX 8 6 3 0
BITMAP
FE
84
84
9D
81
FE
ENDCHAR
STARTCHAR 2E8C
ENCODING 11916
SWIDTH 1040 0
DWIDTH 13 0
BBX 9 5 2 6
BITMAP
0800
8880
8900
4900
0800
ENDCHAR
STARTCHAR 2E8D
ENCODING 11917
SWIDTH 1040 0
DWIDTH 13 0
BBX 8 4 2 7
BITMAP
10
91
4A
42
ENDCHAR
STARTCHAR 2E8E
ENCODING 11918
SWIDTH 1040 0
DWIDTH 13 0
BBX 11 11 1 -1
BITMAP
FFE0
1200
1200
1200
1200
1200
1200
2200
2220
4220
83C0
ENDCHAR
STARTCHAR 2E8F
ENCODING 11919
SWIDTH 1040 0
DWIDTH 13 0
BBX 11 12 1 -1
BITMAP
1000
1100
2080
2080
5240
9200
1200
1200
1200
2220
6220
C3C0
ENDCHAR
STARTCHAR 2E90
ENCODING 11920
SWIDTH 1040 0
DWIDTH 13 0
BBX 11 11 1 -1
BITMAP
0800
0800
0800
FFE0
0C00
0C00
1400
1400
3420
6420
C3C0
ENDCHAR
STARTCHAR 2E91
ENCODING 11921
SWIDTH 1040 0
DWIDTH 13 0
BBX 12 11 0 0
BITMAP
0880
1040
2F20
C910
0900
0900
0900
1100
1110
2110
40E0
ENDCHAR
STARTCHAR 2E92
ENCODING 11922
SWIDTH 1040 0
DWIDTH 13 0
BBX 9 11 2 -1
BITMAP
FF80
8080
8080
8080
FF80
8000
8000
8000
8080
8080
FF80
ENDCHAR
STARTCHAR 2E93
ENCODING 11923
SWIDTH 1040 0
DWIDTH 13 0
BBX 10 11 1 0
BITMAP
0800
0800
1000
2100
2200
7E00
0400
0900
3080
43C0
FC40
ENDCHAR
STARTCHAR 2E94
ENCODING 11924
SWIDTH 1040 0
DWIDTH 13 0
BBX 11 11 1 0
BITMAP
1000
1000
1000
1F80
2080
2080
2100
7F00
0100
0100
FFE0
ENDCHAR
STARTCHAR 2E95
ENCODING 11925
SWIDTH 1040 0
DWIDTH 13 0
BBX 10 10 1 0
BITMAP
FFC0
0040
0040
0040
7FC0
0040
0040
0040
0040
FFC0
ENDCHAR
STARTCHAR 2E96
ENCODING 11926
SWIDTH 1040 0
DWIDTH 13 0
BBX 5 12 1 -1
BITMAP
20
20
20
B0
A8
A0
20
20
20
20
20
20
ENDCHAR
STARTCHAR 2E97
ENCODING 11927
SWIDTH 1040 0
DWIDTH 13 0
BBX 10 7 2 -1
BITMAP
1000
1000
5480
9280
9240
1000
7000
ENDCHAR
STARTCHAR 2E98
ENCODING 11928
SWIDTH 1040 0
DWIDTH 13 0
BBX 4 12 1 -1
BITMAP
20
20
20
F0
20
20
30
E0
20
20
20
C0
ENDCHAR
STARTCHAR 2E99
ENCODING 11929
SWIDTH 1040 0
DWIDTH 13 0
BBX 11 12 1 -1
BITMAP
1000
2000
3FC0
6100
6100
9200
1200
0C00
0C00
1300
60C0
8020
ENDCHAR
STARTCHAR 2E9B
ENCODING 11931
SWIDTH 1040 0
DWIDTH 13 0
BBX 11 11 1 -1
BITMAP
FFC0
0400
4400
4400
7FE0
0800
0C00
1400
3420
4420
83C0
ENDCHAR
STARTCHAR 2E9C
ENCODING 11932
SWIDTH 1040 0
DWIDTH 13 0
BBX 10 4 1 6
BITMAP
FFC0
BFC0
8040
BFC0
ENDCHAR
STARTCHAR 2E9D
ENCODING 11933
SWIDTH 1040 0
DWIDTH 13 0
BBX 5 12 1 -1
BITMAP
F8
88
88
F8
88
88
88
F8
88
88
88
98
ENDCHAR
STARTCHAR 2E9E
ENCODING 11934
SWIDTH 1040 0
DWIDTH 13 0
BBX 10 11 1 0
BITMAP
0400
03C0
0C00
1F80
2080
5100
8A00
0600
0800
3000
4000
ENDCHAR
STARTCHAR 2E9F
ENCODING 11935
SWIDTH 1040 0
DWIDTH 13 0
BBX 12 11 0 -1
BITMAP
1FE0
1440
2240
2040
FFF0
2440
2240
2040
7FF0
0040
0180
ENDCHAR
STARTCHAR 2EA0
ENCODING 11936
SWIDTH 1040 0
DWIDTH 13 0
BBX 10 11 2 -1
BITMAP
FF80
8080
FF80
8800
8800
FFC0
8400
8400
8240
B940
C080
ENDCHAR
STARTCHAR 2EA1
ENCODING 11937
SWIDTH 1040 0
DWIDTH 13 0
BBX 3 11 1 0
BITMAP
60
00
00
C0
20
00
20
20
40
80
80
ENDCHAR
STARTCHAR 2EA2
ENCODING 11938
SWIDTH 1040 0
DWIDTH 13 0
BBX 10 11 1 -1
BITMAP
0400
0400
6480
1500
1600
0400
1500
6480
8440
0400
1800
ENDCHAR
STARTCHAR 2EA3
ENCODING 11939
SWIDTH 1040 0
DWIDTH 13 0
BBX 10 4 1 -1
BITMAP
5280
5240
9240
8A00
ENDCHAR
STARTCHAR 2EA4
ENCODING 11940
SWIDTH 1040 0
DWIDTH 13 0
BBX 10 6 1 5
BITMAP
00C0
FF00
0840
4880
4480
2500
ENDCHAR
STARTCHAR 2EA5
ENCODING 11941
SWIDTH 1040 0
DWIDTH 13 0
BBX 11 7 1 4
BITMAP
0040
7F80
4480
4480
4480
8440
8020
ENDCHAR
STARTCHAR 2EA6
ENCODING 11942
SWIDTH 1040 0
DWIDTH 13 0
BBX 3 12 4 -1
BITMAP
20
20
A0
A0
60
20
20
60
A0
20
20
20
ENDCHAR
STARTCHAR 2EA7
ENCODING 11943
SWIDTH 1040 0
DWIDTH 13 0
BBX 11 6 1 5
BITMAP
2400
2400
7FC0
4400
0400
FFE0
ENDCHAR
STARTCHAR 2EA8
ENCODING 11944
SWIDTH 1040 0
DWIDTH 13 0
BBX 4 12 1 -1
BITMAP
10
60
40
A0
20
20
60
A0
20
20
20
E0
ENDCHAR
STARTCHAR 2EA9
ENCODING 11945
SWIDTH 1040 0
DWIDTH 13 0
BBX 4 10 1 0
BITMAP
F0
40
40
40
F0
40
40
50
60
80
ENDCHAR
STARTCHAR 2EAA
ENCODING 11946
SWIDTH 1040 0
DWIDTH 13 0
BBX 5 10 1 0
BITMAP
F8
10
20
A0
B8
A0
A0
A0
A8
F0
ENDCHAR
STARTCHAR 2EAB
ENCODING 11947
SWIDTH 1040 0
DWIDTH 13 0
BBX 10 5 1 5
BITMAP
FFC0
9240
9240
9240
FFC0
ENDCHAR
STARTCHAR 2EAC
ENCODING 11948
SWIDTH 1040 0
DWIDTH 13 0
BBX 5 11 1 -1
BITMAP
F0
00
00
F8
20
B0
A8
A8
20
20
60
ENDCHAR
STARTCHAR 2EAD
ENCODING 11949
SWIDTH 1040 0
DWIDTH 13 0
BBX 5 12 1 -1
BITMAP
20
20
F8
10
10
20
70
A8
20
20
20
20
ENDCHAR
STARTCHAR 2EAE
ENCODING 11950
SWIDTH 1040 0
DWIDTH 13 0
BBX 11 5 1 6
BITMAP
0200
4200
7BE0
9500
1080
ENDCHAR
STARTCHAR 2EAF
ENCODING 11951
SWIDTH 1040 0
DWIDTH 13 0
BBX 6 11 1 -1
BITMAP
20
40
48
90
E0
28
48
F4
00
A8
A4
ENDCHAR
STARTCHAR 2EB0
ENCODING 11952
SWIDTH 1040 0
DWIDTH 13 0
BBX 4 10 1 1
BITMAP
40
40
90
E0
40
40
F0
00
30
C0
ENDCHAR
STARTCHAR 2EB1
ENCODING 11953
SWIDTH 1040 0
DWIDTH 13 0
BBX 10 5 1 5
BITMAP
FFC0
8140
9E40
8A40
B140
ENDCHAR
STARTCHAR 2EB2
ENCODING 11954
SWIDTH 1040 0
DWIDTH 13 0
BBX 10 5 1 5
BITMAP
FFC0
9240
9240
9240
FFC0
ENDCHAR
STARTCHAR 2EB3
ENCODING 11955
SWIDTH 1040 0
DWIDTH 13 0
BBX 10 4 1 6
BITMAP
FFC0
9240
9200
63C0
ENDCHAR
STARTCHAR 2EB4
ENCODING 11956
SWIDTH 1040 0
DWIDTH 13 0
BBX 11 11 1 -1
BITMAP
FFC0
9240
1200
1200
1200
1200
1200
2200
2220
4220
83C0
ENDCHAR
STARTCHAR 2EB5
ENCODING 11957
SWIDTH 1040 0
DWIDTH 13 0
BBX 10 10 1 0
BITMAP
FFC0
9240
9240
9240
9240
9240
9240
9240
9240
8040
ENDCHAR
STARTCHAR 2EB6
ENCODING 11958
SWIDTH 1040 0
DWIDTH 13 0
BBX 11 10 1 1
BITMAP
2100
1200
FFC0
0800
7FC0
0800
FFE0
1000
2000
C000
ENDCHAR
STARTCHAR 2EB7
ENCODING 11959
SWIDTH 1040 0
DWIDTH 13 0
BBX 11 6 1 5
BITMAP
2100
FFC0
0400
7FC0
0400
FFE0
ENDCHAR
STARTCHAR 2EB8
ENCODING 11960
SWIDTH 1040 0
DWIDTH 13 0
BBX 11 12 1 -1
BITMAP
1200
1200
73C0
1200
1200
FFE0
0400
0400
7FC0
0400
0400
0400
ENDCHAR
STARTCHAR 2EB9
ENCODING 11961
SWIDTH 1040 0
DWIDTH 13 0
BBX 11 9 1 2
BITMAP
0800
0840
7F80
0900
FFE0
0400
1800
6000
8000
ENDCHAR
STARTCHAR 2EBA
ENCODING 11962
SWIDTH 1040 0
DWIDTH 13 0
BBX 11 12 1 -1
BITMAP
0400
7FC0
0440
FFE0
0440
7FC0
0400
0400
0400
0400
0400
0400
ENDCHAR
STARTCHAR 2EBB
ENCODING 11963
SWIDTH 1040 0
DWIDTH 13 0
BBX 11 8 1 3
BITMAP
0400
7FC0
0440
FFE0
0440
7FC0
0400
7FC0
ENDCHAR
STARTCHAR 2EBC
ENCODING 11964
SWIDTH 1040 0
DWIDTH 13 0
BBX 6 11 3 -1
BITMAP
7C
44
54
54
44
4C
54
64
84
84
1C
ENDCHAR
STARTCHAR 2EBD
ENCODING 11965
SWIDTH 1040 0
DWIDTH 13 0
BBX 9 12 2 -1
BITMAP
1000
E780
8080
8080
8080
F780
8080
8080
8080
8080
F780
0080
ENDCHAR
STARTCHAR 2EBE
ENCODING 11966
SWIDTH 1040 0
DWIDTH 13 0
BBX 11 4 1 7
BITMAP
1100
1100
FFE0
1100
ENDCHAR
STARTCHAR 2EBF
ENCODING 11967
SWIDTH 1040 0
DWIDTH 13 0
BBX 11 4 1 7
BITMAP
2100
2100
FFE0
2100
ENDCHAR
STARTCHAR 2EC0
ENCODING 11968
SWIDTH 1040 0
DWIDTH 13 0
BBX 11 12 1 -1
BITMAP
1200
1200
1200
1200
1200
F3E0
1200
1200
1200
1200
1200
1200
ENDCHAR
STARTCHAR 2EC1
ENCODING 11969
SWIDTH 1040 0
DWIDTH 13 0
BBX 11 12 1 -1
BITMAP
0800
0780
0800
7FE0
4840
7F40
8FC0
8000
8F00
9120
9120
61C0
ENDCHAR
STARTCHAR 2EC2
ENCODING 11970
SWIDTH 1040 0
DWIDTH 13 0
BBX 5 12 1 -1
BITMAP
20
20
F0
10
10
28
70
A8
20
20
20
20
ENDCHAR
STARTCHAR 2EC3
ENCODING 11971
SWIDTH 1040 0
DWIDTH 13 0
BBX 11 6 1 5
BITMAP
FFE0
1200
1200
7FC0
9240
7FC0
ENDCHAR
STARTCHAR 2EC4
ENCODING 11972
SWIDTH 1040 0
DWIDTH 13 0
BBX 11 11 1 -1
BITMAP
FFE0
1200
1200
FFC0
9240
9240
A3C0
A040
8040
FFC0
8040
ENDCHAR
STARTCHAR 2EC5
ENCODING 11973
SWIDTH 1040 0
DWIDTH 13 0
BBX 11 11 1 -1
BITMAP
7F80
4080
4480
4480
4480
4880
4480
4C80
1420
3420
C3C0
ENDCHAR
STARTCHAR 2EC6
ENCODING 11974
SWIDTH 1040 0
DWIDTH 13 0
BBX 10 12 1 -1
BITMAP
1000
1F00
2200
FFC0
4440
7FC0
4440
4440
7FC0
4440
8440
8580
ENDCHAR
STARTCHAR 2EC7
ENCODING 11975
SWIDTH 1040 0
DWIDTH 13 0
BBX 10 12 1 -1
BITMAP
1000
3E00
6200
FFC0
4440
4E40
7140
4440
4E40
7140
4040
41C0
ENDCHAR
STARTCHAR 2EC8
ENCODING 11976
SWIDTH 1040 0
DWIDTH 13 0
BBX 4 11 1 0
BITMAP
40
20
00
00
C0
40
40
40
40
50
60
ENDCHAR
STARTCHAR 2EC9
ENCODING 11977
SWIDTH 1040 0
DWIDTH 13 0
BBX 10 11 1 -1
BITMAP
7F80
4080
4480
4480
4480
4880
4880
4880
1200
2180
C040
ENDCHAR
STARTCHAR 2ECA
ENCODING 11978
SWIDTH 1040 0
DWIDTH 13 0
BBX 5 10 1 -1
BITMAP
F8
88
88
F8
20
B8
A0
A0
A8
F0
ENDCHAR
STARTCHAR 2ECB
ENCODING 11979
SWIDTH 1040 0
DWIDTH 13 0
BBX 11 12 1 -1
BITMAP
0800
1000
FFE0
2000
2400
4400
7FC0
0400
FFE0
0400
0400
0400
ENDCHAR
STARTCHAR 2ECC
ENCODING 11980
SWIDTH 1040 0
DWIDTH 13 0
BBX 11 11 1 0
BITMAP
4000
0000
0000
0000
C000
4000
4000
4000
4000
E000
9FE0
ENDCHAR
STARTCHAR 2ECD
ENCODING 11981
SWIDTH 1040 0
DWIDTH 13 0
BBX 11 11 1 0
BITMAP
4000
0000
8000
4000
0000
C000
4000
4000
4000
E000
1FE0
ENDCHAR
STARTCHAR 2ECE
ENCODING 11982
SWIDTH 1040 0
DWIDTH 13 0
BBX 11 11 1 0
BITMAP
4000
0000
0000
E000
4000
6000
2000
2000
6000
6000
9FE0
ENDCHAR
STARTCHAR 2ECF
ENCODING 11983
SWIDTH 1040 0
DWIDTH 13 0
BBX 5 12 7 -1
BITMAP
F8
88
90
90
A0
90
90
88
88
B8
80
80
ENDCHAR
STARTCHAR 2ED0
ENCODING 11984
SWIDTH 1040 0
DWIDTH 13 0
BBX 5 11 1 0
BITMAP
40
40
F8
80
F8
20
F8
20
20
28
30
ENDCHAR
STARTCHAR 2ED1
ENCODING 11985
SWIDTH 1040 0
DWIDTH 13 0
BBX 11 11 1 -1
BITMAP
3FC0
3F80
2000
3F80
2000
FFE0
4880
4500
4300
58C0
6020
ENDCHAR
STARTCHAR 2ED2
ENCODING 11986
SWIDTH 1040 0
DWIDTH 13 0
BBX 11 11 1 -1
BITMAP
3FC0
3F80
4000
3F80
4000
FFE0
1000
2100
2080
7FC0
0040
ENDCHAR
STARTCHAR 2ED3
ENCODING 11987
SWIDTH 1040 0
DWIDTH 13 0
BBX 11 12 1 -1
BITMAP
2000
2080
2100
2E00
2000
FFE0
2400
2200
2100
2180
2C40
3020
ENDCHAR
STARTCHAR 2ED4
ENCODING 11988
SWIDTH 1040 0
DWIDTH 13 0
BBX 10 11 1 0
BITMAP
5FC0
2040
8040
8040
8040
8040
8040
8040
8040
8040
81C0
ENDCHAR
STARTCHAR 2ED5
ENCODING 11989
SWIDTH 1040 0
DWIDTH 13 0
BBX 9 12 2 -1
BITMAP
0800
FF00
8100
FF00
8000
FF00
FF00
8000
FF80
8080
FF80
8080
ENDCHAR
STARTCHAR 2ED6
ENCODING 11990
SWIDTH 1040 0
DWIDTH 13 0
BBX 4 12 1 -1
BITMAP
F0
90
A0
A0
A0
90
90
90
B0
80
80
80
ENDCHAR
STARTCHAR 2ED7
ENCODING 11991
SWIDTH 1040 0
DWIDTH 13 0
BBX 11 6 1 5
BITMAP
7FC0
0800
FFE0
FBA0
8820
7B80
ENDCHAR
STARTCHAR 2ED8
ENCODING 11992
SWIDTH 1040 0
DWIDTH 13 0
BBX 11 12 1 -1
BITMAP
0400
FFC0
0400
7FC0
FFE0
0000
3F80
3F80
4080
3F80
4080
0380
ENDCHAR
STARTCHAR 2ED9
ENCODING 11993
SWIDTH 1040 0
DWIDTH 13 0
BBX 10 12 1 -1
BITMAP
0400
0400
FFC0
0400
7FC0
0400
0400
FFC0
0440
0440
05C0
0400
ENDCHAR
STARTCHAR 2EDA
ENCODING 11994
SWIDTH 1040 0
DWIDTH 13 0
BBX 11 11 1 -1
BITMAP
FFE0
0800
7F80
4080
4480
4480
4480
4880
0A00
1180
E040
ENDCHAR
STARTCHAR 2EDB
ENCODING 11995
SWIDTH 1040 0
DWIDTH 13 0
BBX 12 11 0 -1
BITMAP
3FC0
2040
2140
3940
2D40
4640
4240
4520
48A0
50B0
8010
ENDCHAR
STARTCHAR 2EDC
ENCODING 11996
SWIDTH 1040 0
DWIDTH 13 0
BBX 11 10 1 0
BITMAP
FE00
0240
0280
0100
0180
0140
0100
0120
00A0
0060
ENDCHAR
STARTCHAR 2EDD
ENCODING 11997
SWIDTH 1040 0
DWIDTH 13 0
BBX 11 12 1 -1
BITMAP
0400
1A00
2900
FFE0
2080
3F80
2080
3FC0
2480
2300
2D80
3040
ENDCHAR
STARTCHAR 2EDE
ENCODING 11998
SWIDTH 1040 0
DWIDTH 13 0
BBX 6 12 1 -1
BITMAP
10
38
64
F8
48
78
78
40
78
40
78
40
ENDCHAR
STARTCHAR 2EDF
ENCODING 11999
SWIDTH 1040 0
DWIDTH 13 0
BBX 5 12 1 -1
BITMAP
20
50
A8
20
F8
F8
88
F8
90
90
E8
80
ENDCHAR
STARTCHAR 2EE0
ENCODING 12000
SWIDTH 1040 0
DWIDTH 13 0
BBX 4 11 1 -1
BITMAP
40
40
70
90
90
40
40
40
40
50
20
ENDCHAR
STARTCHAR 2EE1
ENCODING 12001
SWIDTH 1040 0
DWIDTH 13 0
BBX 11 12 1 -1
BITMAP
2480
4880
4480
2400
FFE0
7F80
4080
7F80
4080
7F80
7F80
4080
ENDCHAR
STARTCHAR 2EE2
ENCODING 12002
SWIDTH 1040 0
DWIDTH 13 0
BBX 10 11 1 -1
BITMAP
FF80
0080
2100
4100
4100
7FC0
0040
FF40
0040
0040
0180
ENDCHAR
STARTCHAR 2EE3
ENCODING 12003
SWIDTH 1040 0
DWIDTH 13 0
BBX 10 12 1 -1
BITMAP
3F80
4080
3C80
4480
FFC0
BFC0
2080
3F80
2080
3F80
2080
2300
ENDCHAR
STARTCHAR 2EE4
ENCODING 12004
SWIDTH 1040 0
DWIDTH 13 0
BBX 11 12 1 -1
BITMAP
0800
7F80
4880
7F80
4880
4880
7F80
0D00
1580
17E0
6420
87C0
ENDCHAR
STARTCHAR 2EE5
ENCODING 12005
SWIDTH 1040 0
DWIDTH 13 0
BBX 11 11 1 0
BITMAP
1000
1F00
2200
7FC0
C440
7FC0
4440
4440
7FC0
0000
FFE0
ENDCHAR
STARTCHAR 2EE6
ENCODING 12006
SWIDTH 1040 0
DWIDTH 13 0
BBX 10 12 1 -1
BITMAP
0800
7F80
4080
5880
4780
4000
7FC0
0040
FF40
0040
0040
01C0
ENDCHAR
STARTCHAR 2EE7
ENCODING 12007
SWIDTH 1040 0
DWIDTH 13 0
BBX 10 12 1 -1
BITMAP
0400
07C0
0400
FFC0
8140
9240
8E40
8E40
9140
A040
FFC0
8040
ENDCHAR
STARTCHAR 2EE8
ENCODING 12008
SWIDTH 1040 0
DWIDTH 13 0
BBX 11 12 1 -1
BITMAP
0400
FFC0
0800
7F80
0800
FFE0
1F00
3100
CA00
0C00
3380
C060
ENDCHAR
STARTCHAR 2EE9
ENCODING 12009
SWIDTH 1040 0
DWIDTH 13 0
BBX 11 12 1 -1
BITMAP
1000
FFC0
1200
FFE0
0800
7F80
4880
7F80
4880
7F80
3180
C040
ENDCHAR
STARTCHAR 2EEA
ENCODING 12010
SWIDTH 1040 0
DWIDTH 13 0
BBX 11 12 1 -1
BITMAP
7F80
4080
7F80
0800
7FC0
8840
7FC0
8840
8840
7FE0
0820
07C0
ENDCHAR
STARTCHAR 2EEB
ENCODING 12011
SWIDTH 1040 0
DWIDTH 13 0
BBX 11 12 1 -1
BITMAP
0800
FFE0
3100
0A00
1F00
E0E0
2080
3F80
4080
3F80
4080
8080
ENDCHAR
STARTCHAR 2EEC
ENCODING 12012
SWIDTH 1040 0
DWIDTH 13 0
BBX 11 12 1 -1
BITMAP
0800
FFE0
1100
1200
0C00
3380
C060
2100
2100
2100
2100
4100
ENDCHAR
STARTCHAR 2EED
ENCODING 12013
SWIDTH 1040 0
DWIDTH 13 0
BBX 11 12 1 -1
BITMAP
0400
27C0
2400
FFE0
A140
9A40
BFC0
8C40
9B40
A840
8040
7FC0
ENDCHAR
STARTCHAR 2EEE
ENCODING 12014
SWIDTH 1040 0
DWIDTH 13 0
BBX 11 12 1 -1
BITMAP
0400
27C0
2400
2400
FFE0
8440
8840
8E40
9140
A040
FFC0
0040
ENDCHAR
STARTCHAR 2EEF
ENCODING 12015
SWIDTH 1040 0
DWIDTH 13 0
BBX 11 12 1 -1
BITMAP
0800
7FC0
1100
FFE0
0000
7F80
4880
7F80
4880
7FA0
0820
07C0
ENDCHAR
STARTCHAR 2EF0
ENCODING 12016
SWIDTH 1040 0
DWIDTH 13 0
BBX 11 12 1 -1
BITMAP
0800
1180
1000
FFE0
1200
1280
1280
1300
2200
2E20
5220
83C0
ENDCHAR
STARTCHAR 2EF1
ENCODING 12017
SWIDTH 1040 0
DWIDTH 13 0
BBX 11 11 1 0
BITMAP
7FC0
4040
7BC0
8C00
6BC0
ECC0
4DC0
6D40
FBC0
EC20
0FE0
ENDCHAR
STARTCHAR 2EF2
ENCODING 12018
SWIDTH 1040 0
DWIDTH 13 0
BBX 11 12 1 -1
BITMAP
3E00
2400
FF80
7F80
4880
7F80
7FC0
8840
7FC0
7FE0
0820
07C0
ENDCHAR
STARTCHAR 2EF3
ENCODING 12019
SWIDTH 1040 0
DWIDTH 13 0
BBX 11 12 1 -1
BITMAP
1000
1F00
2200
FFC0
8840
8840
7FC0
8840
7FC0
8820
0820
07C0
ENDCHAR
STARTCHAR 2F00
ENCODING 12032
SWIDTH 1040 0
DWIDTH 13 0
BBX 11 1 1 5
BITMAP
FFE0
ENDCHAR
STARTCHAR 2F01
ENCODING 12033
SWIDTH 1040 0
DWIDTH 13 0
BBX 1 12 6 -1
BITMAP
80
80
80
80
80
80
80
80
80
80
80
80
ENDCHAR
STARTCHAR 2F02
ENCODING 12034
SWIDTH 1040 0
DWIDTH 13 0
BBX 4 5 4 2
BITMAP
80
40
20
30
10
ENDCHAR
STARTCHAR 2F03
ENCODING 12035
SWIDTH 1040 0
DWIDTH 13 0
BBX 5 12 2 -1
BITMAP
08
08
08
08
08
08
10
10
10
20
40
80
ENDCHAR
STARTCHAR 2F04
ENCODING 12036
SWIDTH 1040 0
DWIDTH 13 0
BBX 9 10 2 0
BITMAP
FF00
0200
0400
1800
3000
4000
8080
8080
8080
FF00
ENDCHAR
STARTCHAR 2F05
ENCODING 12037
SWIDTH 1040 0
DWIDTH 13 0
BBX 3 12 4 -1
BITMAP
20
20
20
20
20
20
20
20
20
20
20
E0
ENDCHAR
STARTCHAR 2F06
ENCODING 12038
SWIDTH 1040 0
DWIDTH 13 0
BBX 11 8 1 1
BITMAP
7F80
0000
0000
0000
0000
0000
0000
FFE0
ENDCHAR
STARTCHAR 2F07
ENCODING 12039
SWIDTH 1040 0
DWIDTH 13 0
BBX 11 4 1 7
BITMAP
0800
0C00
0400
FFE0
ENDCHAR
STARTCHAR 2F08
ENCODING 12040
SWIDTH 1040 0
DWIDTH 13 0
BBX 10 12 1 -1
BITMAP
0400
0400
0400
0400
0C00
0C00
0A00
1200
1100
2080
4040
8000
ENDCHAR
STARTCHAR 2F09
ENCODING 12041
SWIDTH 1040 0
DWIDTH 13 0
BBX 11 11 1 -1
BITMAP
2200
2200
2200
2200
2200
2200
2200
2200
2220
4220
81C0
ENDCHAR
STARTCHAR 2F0A
ENCODING 12042
SWIDTH 1040 0
DWIDTH 13 0
BBX 11 12 1 -1
BITMAP
1000
0800
0400
0400
0A00
0A00
0A00
1100
2100
2080
C040
8020
ENDCHAR
STARTCHAR 2F0B
ENCODING 12043
SWIDTH 1040 0
DWIDTH 13 0
BBX 11 11 1 -1
BITMAP
0200
1200
1100
2100
2100
2100
2100
2080
4080
4040
8020
ENDCHAR
STARTCHAR 2F0C
ENCODING 12044
SWIDTH 1040 0
DWIDTH 13 0
BBX 10 11 1 -1
BITMAP
FFC0
8040
8040
8040
8040
8040
8040
8040
8040
8040
81C0
ENDCHAR
STARTCHAR 2F0D
ENCODING 12045
SWIDTH 1040 0
DWIDTH 13 0
BBX 10 3 1 7
BITMAP
FFC0
8040
8000
ENDCHAR
STARTCHAR 2F0E
ENCODING 12046
SWIDTH 1040 0
DWIDTH 13 0
BBX 2 10 1 0
BITMAP
80
40
00
00
00
00
40
40
80
80
ENDCHAR
STARTCHAR 2F0F
ENCODING 12047
SWIDTH 1040 0
DWIDTH 13 0
BBX 11 11 1 -1
BITMAP
3F00
2100
2100
2100
2100
2100
2100
2100
4120
4120
81C0
ENDCHAR
STARTCHAR 2F10
ENCODING 12048
SWIDTH 1040 0
DWIDTH 13 0
BBX 10 11 1 -1
BITMAP
8040
8040
8040
8040
8040
8040
8040
8040
8040
FFC0
0040
ENDCHAR
STARTCHAR 2F11
ENCODING 12049
SWIDTH 1040 0
DWIDTH 13 0
BBX 10 10 1 0
BITMAP
FFC0
0840
0840
0840
0840
1040
1040
2080
4080
8780
ENDCHAR
STARTCHAR 2F12
ENCODING 12050
SWIDTH 1040 0
DWIDTH 13 0
BBX 10 12 1 -1
BITMAP
0800
0800
0800
FFC0
0840
0840
0840
1040
1040
2040
4080
8380
ENDCHAR
STARTCHAR 2F13
ENCODING 12051
SWIDTH 1040 0
DWIDTH 13 0
BBX 10 12 1 -1
BITMAP
1000
2000
3FC0
4040
4040
8040
8080
0080
0080
0080
0080
0700
ENDCHAR
STARTCHAR 2F14
ENCODING 12052
SWIDTH 1040 0
DWIDTH 13 0
BBX 8 11 3 -1
BITMAP
80
80
86
88
F0
80
80
80
81
81
FE
ENDCHAR
STARTCHAR 2F15
ENCODING 12053
SWIDTH 1040 0
DWIDTH 13 0
BBX 10 10 1 0
BITMAP
FFC0
8000
8000
8000
8000
8000
8000
8000
8000
7FC0
ENDCHAR
STARTCHAR 2F16
ENCODING 12054
SWIDTH 1040 0
DWIDTH 13 0
BBX 11 10 1 0
BITMAP
FFE0
4000
4000
4000
4000
4000
4000
4000
4000
7FC0
ENDCHAR
STARTCHAR 2F17
ENCODING 12055
SWIDTH 1040 0
DWIDTH 13 0
BBX 11 12 1 -1
BITMAP
0400
0400
0400
0400
0400
FFE0
0400
0400
0400
0400
0400
0400
ENDCHAR
STARTCHAR 2F18
ENCODING 12056
SWIDTH 1040 0
DWIDTH 13 0
BBX 6 12 4 -1
BITMAP
80
80
80
80
C0
B0
88
84
80
80
80
80
ENDCHAR
STARTCHAR 2F19
ENCODING 12057
SWIDTH 1040 0
DWIDTH 13 0
BBX 5 11 6 -1
BITMAP
F8
88
88
88
88
88
88
88
98
80
80
ENDCHAR
STARTCHAR 2F1A
ENCODING 12058
SWIDTH 1040 0
DWIDTH 13 0
BBX 11 10 1 -1
BITMAP
7FE0
4000
4000
4000
4000
4000
4000
4000
8000
8000
ENDCHAR
STARTCHAR 2F1B
ENCODING 12059
SWIDTH 1040 0
DWIDTH 13 0
BBX 10 10 1 0
BITMAP
0800
0800
0800
1000
1000
2100
2080
4080
47C0
F840
ENDCHAR
STARTCHAR 2F1C
ENCODING 12060
SWIDTH 1040 0
DWIDTH 13 0
BBX 10 11 1 -1
BITMAP
FF80
2080
2080
1100
1100
0A00
0400
0A00
1100
60C0
8000
ENDCHAR
STARTCHAR 2F1D
ENCODING 12061
SWIDTH 1040 0
DWIDTH 13 0
BBX 9 10 2 0
BITMAP
FF80
8080
8080
8080
8080
8080
8080
8080
FF80
8080
ENDCHAR
STARTCHAR 2F1E
ENCODING 12062
SWIDTH 1040 0
DWIDTH 13 0
BBX 10 11 1 -1
BITMAP
FFC0
8040
8040
8040
8040
8040
8040
8040
8040
FFC0
8040
ENDCHAR
STARTCHAR 2F1F
ENCODING 12063
SWIDTH 1040 0
DWIDTH 13 0
BBX 11 11 1 0
BITMAP
0400
0400
0400
0400
7FC0
0400
0400
0400
0400
0400
FFE0
ENDCHAR
STARTCHAR 2F20
ENCODING 12064
SWIDTH 1040 0
DWIDTH 13 0
BBX 11 11 1 0
BITMAP
0400
0400
0400
0400
FFE0
0400
0400
0400
0400
0400
7FC0
ENDCHAR
STARTCHAR 2F21
ENCODING 12065
SWIDTH 1040 0
DWIDTH 13 0
BBX 11 12 1 -1
BITMAP
0800
1000
1F00
3100
3100
4A00
0C00
0400
0A00
3100
60C0
8020
ENDCHAR
STARTCHAR 2F22
ENCODING 12066
SWIDTH 1040 0
DWIDTH 13 0
BBX 11 12 1 -1
BITMAP
0800
0800
1F80
3100
2100
5100
0A00
0C00
0E00
1300
60C0
8020
ENDCHAR
STARTCHAR 2F23
ENCODING 12067
SWIDTH 1040 0
DWIDTH 13 0
BBX 9 12 2 -1
BITMAP
1000
1000
3F80
2100
4100
9200
0A00
0400
0800
1000
6000
8000
ENDCHAR
STARTCHAR 2F24
ENCODING 12068
SWIDTH 1040 0
DWIDTH 13 0
BBX 11 12 1 -1
BITMAP
0400
0400
0400
FFE0
0400
0C00
0A00
0A00
1100
2080
C040
8020
ENDCHAR
STARTCHAR 2F25
ENCODING 12069
SWIDTH 1040 0
DWIDTH 13 0
BBX 11 12 1 -1
BITMAP
0800
0800
1000
FFE0
1100
2100
2100
6200
1E00
0F00
3080
C040
ENDCHAR
STARTCHAR 2F26
ENCODING 12070
SWIDTH 1040 0
DWIDTH 13 0
BBX 11 11 1 -1
BITMAP
7FC0
0180
0200
0400
FFE0
0400
0400
0400
0400
0400
1C00
ENDCHAR
STARTCHAR 2F27
ENCODING 12071
SWIDTH 1040 0
DWIDTH 13 0
BBX 10 5 1 6
BITMAP
0800
0800
FFC0
8040
8040
ENDCHAR
STARTCHAR 2F28
ENCODING 12072
SWIDTH 1040 0
DWIDTH 13 0
BBX 11 12 1 -1
BITMAP
0100
0100
0100
FFE0
0100
2100
1100
1900
0900
0100
0100
0F00
ENDCHAR
STARTCHAR 2F29
ENCODING 12073
SWIDTH 1040 0
DWIDTH 13 0
BBX 11 12 1 -1
BITMAP
0400
0400
0400
2480
4480
4480
4440
8440
8420
0420
0400
1800
ENDCHAR
STARTCHAR 2F2A
ENCODING 12074
SWIDTH 1040 0
DWIDTH 13 0
BBX 11 11 1 -1
BITMAP
0800
0800
0800
FFE0
0C00
0C00
1400
1400
3420
6420
C3C0
ENDCHAR
STARTCHAR 2F2B
ENCODING 12075
SWIDTH 1040 0
DWIDTH 13 0
BBX 10 11 1 -1
BITMAP
7FC0
4040
7FC0
4000
4000
4000
4000
4000
8000
8000
8000
ENDCHAR
STARTCHAR 2F2C
ENCODING 12076
SWIDTH 1040 0
DWIDTH 13 0
BBX 9 12 2 -1
BITMAP
0800
0800
8880
8880
8880
8880
8880
FF80
0880
0800
0800
0800
ENDCHAR
STARTCHAR 2F2D
ENCODING 12077
SWIDTH 1040 0
DWIDTH 13 0
BBX 10 12 1 -1
BITMAP
0400
0400
0400
8440
8440
8440
8440
8440
8440
8440
FFC0
0040
ENDCHAR
STARTCHAR 2F2E
ENCODING 12078
SWIDTH 1040 0
DWIDTH 13 0
BBX 10 12 1 -1
BITMAP
2000
2480
2480
4900
4900
9200
8900
4900
4480
2440
2240
0040
ENDCHAR
STARTCHAR 2F2F
ENCODING 12079
SWIDTH 1040 0
DWIDTH 13 0
BBX 11 10 1 0
BITMAP
FFC0
0400
0400
0400
0400
0400
0400
0400
0400
FFE0
ENDCHAR
STARTCHAR 2F30
ENCODING 12080
SWIDTH 1040 0
DWIDTH 13 0
BBX 9 11 2 -1
BITMAP
FF00
0100
0100
0100
FF00
8000
8000
8000
8080
8080
FF80
ENDCHAR
STARTCHAR 2F31
ENCODING 12081
SWIDTH 1040 0
DWIDTH 13 0
BBX 9 12 2 -1
BITMAP
0800
0800
FF80
8880
8880
8880
8880
8880
8880
8B80
0800
0800
ENDCHAR
STARTCHAR 2F32
ENCODING 12082
SWIDTH 1040 0
DWIDTH 13 0
BBX 11 11 1 -1
BITMAP
FFC0
0400
0400
0400
FFE0
0400
0400
0400
0400
0400
0400
ENDCHAR
STARTCHAR 2F33
ENCODING 12083
SWIDTH 1040 0
DWIDTH 13 0
BBX 10 11 1 0
BITMAP
0800
0800
1000
2100
2200
7E00
0400
0900
3080
43C0
FC40
ENDCHAR
STARTCHAR 2F34
ENCODING 12084
SWIDTH 1040 0
DWIDTH 13 0
BBX 11 12 1 -1
BITMAP
0400
0400
7FE0
4000
4000
4000
4000
4000
4000
4000
8000
8000
ENDCHAR
STARTCHAR 2F35
ENCODING 12085
SWIDTH 1040 0
DWIDTH 13 0
BBX 11 10 1 0
BITMAP
F000
2000
4000
7000
1000
A000
6000
6000
7000
8FE0
ENDCHAR
STARTCHAR 2F36
ENCODING 12086
SWIDTH 1040 0
DWIDTH 13 0
BBX 11 12 1 -1
BITMAP
1100
1100
1100
1100
1100
FFE0
1100
2100
2100
2100
4100
8100
ENDCHAR
STARTCHAR 2F37
ENCODING 12087
SWIDTH 1040 0
DWIDTH 13 0
BBX 11 11 1 0
BITMAP
0500
0480
0400
FFE0
0400
0400
0200
0200
0120
0120
00C0
ENDCHAR
STARTCHAR 2F38
ENCODING 12088
SWIDTH 1040 0
DWIDTH 13 0
BBX 9 11 2 -1
BITMAP
FF00
0100
0100
FF00
8000
8000
FF80
0080
0080
0100
0F00
ENDCHAR
STARTCHAR 2F39
ENCODING 12089
SWIDTH 1040 0
DWIDTH 13 0
BBX 10 10 1 0
BITMAP
FFC0
0040
0040
0040
7FC0
0040
0040
0040
0040
FFC0
ENDCHAR
STARTCHAR 2F3A
ENCODING 12090
SWIDTH 1040 0
DWIDTH 13 0
BBX 9 10 2 1
BITMAP
0600
1800
E100
0200
0C00
7080
0180
0600
1800
E000
ENDCHAR
STARTCHAR 2F3B
ENCODING 12091
SWIDTH 1040 0
DWIDTH 13 0
BBX 3 12 1 -1
BITMAP
20
40
80
20
20
40
C0
40
40
40
40
40
ENDCHAR
STARTCHAR 2F3C
ENCODING 12092
SWIDTH 1040 0
DWIDTH 13 0
BBX 11 12 1 -1
BITMAP
1000
0C00
0200
1000
5080
5040
5040
9020
90A0
90A0
1100
1F00
ENDCHAR
STARTCHAR 2F3D
ENCODING 12093
SWIDTH 1040 0
DWIDTH 13 0
BBX 11 12 1 -1
BITMAP
0800
0900
0800
FFC0
0800
0880
0500
0600
0600
1A20
E140
00C0
ENDCHAR
STARTCHAR 2F3E
ENCODING 12094
SWIDTH 1040 0
DWIDTH 13 0
BBX 10 12 1 -1
BITMAP
00C0
7F00
4000
7FC0
4040
4040
4040
7FC0
4040
4000
8000
8000
ENDCHAR
STARTCHAR 2F3F
ENCODING 12095
SWIDTH 1040 0
DWIDTH 13 0
BBX 11 12 1 -1
BITMAP
0080
FF00
0400
0400
FFC0
0400
0400
FFE0
0400
0400
0400
3800
ENDCHAR
STARTCHAR 2F40
ENCODING 12096
SWIDTH 1040 0
DWIDTH 13 0
BBX 11 12 1 -1
BITMAP
0400
0400
FFE0
0400
0400
7F80
1100
1200
0E00
0E00
3180
C060
ENDCHAR
STARTCHAR 2F41
ENCODING 12097
SWIDTH 1040 0
DWIDTH 13 0
BBX 11 11 1 0
BITMAP
0800
07C0
0800
0800
7F80
1100
1200
0E00
0E00
7180
8060
ENDCHAR
STARTCHAR 2F42
ENCODING 12098
SWIDTH 1040 0
DWIDTH 13 0
BBX 11 12 1 -1
BITMAP
0800
0400
FFE0
2100
2100
1100
0A00
0C00
0C00
1300
60C0
8020
ENDCHAR
STARTCHAR 2F43
ENCODING 12099
SWIDTH 1040 0
DWIDTH 13 0
BBX 11 12 1 -1
BITMAP
0100
0100
1900
0500
4100
3100
1100
01E0
7F00
8100
0100
0100
ENDCHAR
STARTCHAR 2F44
ENCODING 12100
SWIDTH 1040 0
DWIDTH 13 0
BBX 11 12 1 -1
BITMAP
0080
3F00
2000
2000
3FE0
4200
4200
4200
4200
4200
8200
8200
ENDCHAR
STARTCHAR 2F45
ENCODING 12101
SWIDTH 1040 0
DWIDTH 13 0
BBX 11 12 1 -1
BITMAP
0800
0400
FFE0
0800
0800
0F80
1080
1080
1080
2080
4080
8700
ENDCHAR
STARTCHAR 2F46
ENCODING 12102
SWIDTH 1040 0
DWIDTH 13 0
BBX 11 11 1 -1
BITMAP
FFC0
0800
0800
FFE0
0C00
0C00
1400
1400
2420
4420
83C0
ENDCHAR
STARTCHAR 2F47
ENCODING 12103
SWIDTH 1040 0
DWIDTH 13 0
BBX 8 11 2 -1
BITMAP
FF
81
81
81
FF
81
81
81
81
FF
81
ENDCHAR
STARTCHAR 2F48
ENCODING 12104
SWIDTH 1040 0
DWIDTH 13 0
BBX 9 11 2 -1
BITMAP
FF80
8080
8080
8080
FE80
8080
8080
8080
8080
FF80
8080
ENDCHAR
STARTCHAR 2F49
ENCODING 12105
SWIDTH 1040 0
DWIDTH 13 0
BBX 9 11 1 -1
BITMAP
3F80
2080
2080
3F80
2080
2080
3F80
4080
4080
4080
8380
ENDCHAR
STARTCHAR 2F4A
ENCODING 12106
SWIDTH 1040 0
DWIDTH 13 0
BBX 11 12 1 -1
BITMAP
0400
0400
0400
FFE0
0C00
1600
1500
2580
44C0
8420
0400
0400
ENDCHAR
STARTCHAR 2F4B
ENCODING 12107
SWIDTH 1040 0
DWIDTH 13 0
BBX 11 12 1 -1
BITMAP
1000
1000
3FC0
2040
4480
8400
0C00
0C00
1200
3100
60C0
8020
ENDCHAR
STARTCHAR 2F4C
ENCODING 12108
SWIDTH 1040 0
DWIDTH 13 0
BBX 11 11 1 0
BITMAP
0400
0400
0400
2400
2400
27C0
2400
2400
2400
2400
FFE0
ENDCHAR
STARTCHAR 2F4D
ENCODING 12109
SWIDTH 1040 0
DWIDTH 13 0
BBX 11 11 1 -1
BITMAP
FFE0
0800
1F80
2080
4100
1900
0600
0400
0800
3000
4000
ENDCHAR
STARTCHAR 2F4E
ENCODING 12110
SWIDTH 1040 0
DWIDTH 13 0
BBX 11 12 1 -1
BITMAP
1E00
1200
2200
2200
41C0
8000
7F80
1100
0A00
0C00
3380
C060
ENDCHAR
STARTCHAR 2F4F
ENCODING 12111
SWIDTH 1040 0
DWIDTH 13 0
BBX 12 11 0 -1
BITMAP
1FE0
2240
2240
FFF0
2240
2440
2440
3FF0
0440
1840
2180
ENDCHAR
STARTCHAR 2F50
ENCODING 12112
SWIDTH 1040 0
DWIDTH 13 0
BBX 11 11 1 0
BITMAP
8400
8400
8440
7C80
8300
8400
8400
8420
8420
B420
C3C0
ENDCHAR
STARTCHAR 2F51
ENCODING 12113
SWIDTH 1040 0
DWIDTH 13 0
BBX 11 12 1 -1
BITMAP
0080
0F00
F800
0800
3F80
C800
0800
FFC0
0800
0820
0840
0FC0
ENDCHAR
STARTCHAR 2F52
ENCODING 12114
SWIDTH 1040 0
DWIDTH 13 0
BBX 10 12 2 -1
BITMAP
0100
1E00
E800
8800
8800
FFC0
8800
8400
8400
8240
B340
C180
ENDCHAR
STARTCHAR 2F53
ENCODING 12115
SWIDTH 1040 0
DWIDTH 13 0
BBX 11 12 1 -1
BITMAP
2000
3FC0
4000
BF80
8000
FF80
0080
0080
0080
00A0
00A0
0040
ENDCHAR
STARTCHAR 2F54
ENCODING 12116
SWIDTH 1040 0
DWIDTH 13 0
BBX 11 12 1 -1
BITMAP
0400
0400
0440
F480
1500
1600
2500
2500
4480
8460
0400
1C00
ENDCHAR
STARTCHAR 2F55
ENCODING 12117
SWIDTH 1040 0
DWIDTH 13 0
BBX 10 12 1 -1
BITMAP
0400
0400
0400
4440
4480
4480
0C00
0A00
1200
2100
40C0
8000
ENDCHAR
STARTCHAR 2F56
ENCODING 12118
SWIDTH 1040 0
DWIDTH 13 0
BBX 11 11 1 0
BITMAP
0F80
7480
4480
4480
4480
4480
4480
4440
8440
8420
0020
ENDCHAR
STARTCHAR 2F57
ENCODING 12119
SWIDTH 1040 0
DWIDTH 13 0
BBX 11 12 1 -1
BITMAP
1000
1100
2080
4040
9100
1200
0A00
0C00
0C00
1300
60C0
8020
ENDCHAR
STARTCHAR 2F58
ENCODING 12120
SWIDTH 1040 0
DWIDTH 13 0
BBX 10 12 1 -1
BITMAP
0080
3100
0E00
1B00
E0C0
2100
1200
0A00
0C00
1A00
61C0
8000
ENDCHAR
STARTCHAR 2F59
ENCODING 12121
SWIDTH 1040 0
DWIDTH 13 0
BBX 7 12 2 -1
BITMAP
42
42
42
7E
02
02
FE
22
22
42
42
82
ENDCHAR
STARTCHAR 2F5A
ENCODING 12122
SWIDTH 1040 0
DWIDTH 13 0
BBX 11 12 1 -1
BITMAP
4200
4200
4200
7FE0
4000
4000
7F00
4100
4100
4100
8100
8100
ENDCHAR
STARTCHAR 2F5B
ENCODING 12123
SWIDTH 1040 0
DWIDTH 13 0
BBX 11 11 1 -1
BITMAP
FFC0
0100
4100
4100
FFE0
0500
0900
1100
6100
8100
0700
ENDCHAR
STARTCHAR 2F5C
ENCODING 12124
SWIDTH 1040 0
DWIDTH 13 0
BBX 11 12 1 -1
BITMAP
0400
2400
2400
7FC0
4400
8400
0400
FFE0
0400
0400
0400
0400
ENDCHAR
STARTCHAR 2F5D
ENCODING 12125
SWIDTH 1040 0
DWIDTH 13 0
BBX 11 11 1 0
BITMAP
0900
0880
0800
FFE0
0C00
0C00
1200
1200
2100
40C0
8020
ENDCHAR
STARTCHAR 2F5E
ENCODING 12126
SWIDTH 1040 0
DWIDTH 13 0
BBX 11 11 1 -1
BITMAP
0800
0400
FFE0
0800
1100
2200
7E00
0400
0880
1080
7FC0
ENDCHAR
STARTCHAR 2F5F
ENCODING 12127
SWIDTH 1040 0
DWIDTH 13 0
BBX 11 10 1 0
BITMAP
FFC0
0400
0400
0400
7FC0
0400
0500
0480
0400
FFE0
ENDCHAR
STARTCHAR 2F60
ENCODING 12128
SWIDTH 1040 0
DWIDTH 13 0
BBX 11 12 1 -1
BITMAP
0040
1F80
6880
4880
4880
4880
4880
4880
4940
8940
8F20
0820
ENDCHAR
STARTCHAR 2F61
ENCODING 12129
SWIDTH 1040 0
DWIDTH 13 0
BBX 11 11 1 -1
BITMAP
FFE0
1000
1F00
2100
2900
2900
2500
2100
2120
5D20
61E0
ENDCHAR
STARTCHAR 2F62
ENCODING 12130
SWIDTH 1040 0
DWIDTH 13 0
BBX 11 12 1 -1
BITMAP
2080
2100
FFE0
2100
2100
2100
3F00
2100
2100
2100
3F00
2080
ENDCHAR
STARTCHAR 2F63
ENCODING 12131
SWIDTH 1040 0
DWIDTH 13 0
BBX 11 11 1 0
BITMAP
0400
2400
2400
7FC0
4400
8400
7FC0
0400
0400
0400
FFE0
ENDCHAR
STARTCHAR 2F64
ENCODING 12132
SWIDTH 1040 0
DWIDTH 13 0
BBX 10 11 1 -1
BITMAP
7FC0
4440
4440
7FC0
4440
4440
7FC0
8440
8440
8440
05C0
ENDCHAR
STARTCHAR 2F65
ENCODING 12133
SWIDTH 1040 0
DWIDTH 13 0
BBX 10 11 1 -1
BITMAP
FFC0
8440
8440
8440
FFC0
8440
8440
8440
8440
FFC0
8040
ENDCHAR
STARTCHAR 2F66
ENCODING 12134
SWIDTH 1040 0
DWIDTH 13 0
BBX 11 10 1 0
BITMAP
FFC0
0440
0480
2400
4780
4400
4400
6400
9400
8FE0
ENDCHAR
STARTCHAR 2F67
ENCODING 12135
SWIDTH 1040 0
DWIDTH 13 0
BBX 11 12 1 -1
BITMAP
0400
3FE0
A000
A000
2000
4000
C000
4000
4000
4000
8000
8000
ENDCHAR
STARTCHAR 2F68
ENCODING 12136
SWIDTH 1040 0
DWIDTH 13 0
BBX 10 7 1 4
BITMAP
7C80
1300
5240
2140
2080
4040
8000
ENDCHAR
STARTCHAR 2F69
ENCODING 12137
SWIDTH 1040 0
DWIDTH 13 0
BBX 9 12 2 -1
BITMAP
0800
1000
FF00
8100
8100
8100
FF00
8100
8100
8100
FF00
8080
ENDCHAR
STARTCHAR 2F6A
ENCODING 12138
SWIDTH 1040 0
DWIDTH 13 0
BBX 10 12 1 -1
BITMAP
0400
0400
7FC0
4440
4400
7F80
5080
4900
8600
8600
9980
2040
ENDCHAR
STARTCHAR 2F6B
ENCODING 12139
SWIDTH 1040 0
DWIDTH 13 0
BBX 12 10 0 0
BITMAP
3FE0
2920
2920
2920
2920
2920
2920
2920
2920
FFF0
ENDCHAR
STARTCHAR 2F6C
ENCODING 12140
SWIDTH 1040 0
DWIDTH 13 0
BBX 8 11 2 -1
BITMAP
FF
81
81
FF
81
81
FF
81
81
FF
81
ENDCHAR
STARTCHAR 2F6D
ENCODING 12141
SWIDTH 1040 0
DWIDTH 13 0
BBX 11 11 1 -1
BITMAP
7F80
1100
0E00
FFE0
0440
0CC0
1580
2400
C400
0400
1C00
ENDCHAR
STARTCHAR 2F6E
ENCODING 12142
SWIDTH 1040 0
DWIDTH 13 0
BBX 11 12 1 -1
BITMAP
2000
2000
3FC0
4400
8800
FFE0
0C00
0C00
1200
3100
60C0
8000
ENDCHAR
STARTCHAR 2F6F
ENCODING 12143
SWIDTH 1040 0
DWIDTH 13 0
BBX 11 11 1 -1
BITMAP
FFE0
1000
1000
2000
3FC0
6040
A040
2040
2040
3FC0
2040
ENDCHAR
STARTCHAR 2F70
ENCODING 12144
SWIDTH 1040 0
DWIDTH 13 0
BBX 11 11 1 -1
BITMAP
7F80
0000
0000
FFE0
0400
2480
2480
4440
C440
8400
1C00
ENDCHAR
STARTCHAR 2F71
ENCODING 12145
SWIDTH 1040 0
DWIDTH 13 0
BBX 10 12 1 -1
BITMAP
0400
0400
FFC0
8840
8A40
9240
9140
BFC0
8040
8040
8040
81C0
ENDCHAR
STARTCHAR 2F72
ENCODING 12146
SWIDTH 1040 0
DWIDTH 13 0
BBX 11 12 1 -1
BITMAP
0080
1F00
6400
0400
FFE0
0C00
1600
2500
4480
8460
0400
0400
ENDCHAR
STARTCHAR 2F73
ENCODING 12147
SWIDTH 1040 0
DWIDTH 13 0
BBX 10 12 1 -1
BITMAP
0800
0800
FFC0
8040
8240
1200
1100
2100
2080
4080
C040
8000
ENDCHAR
STARTCHAR 2F74
ENCODING 12148
SWIDTH 1040 0
DWIDTH 13 0
BBX 11 11 1 0
BITMAP
0800
0400
FFC0
0000
2080
2100
2100
1100
1200
0200
FFE0
ENDCHAR
STARTCHAR 2F75
ENCODING 12149
SWIDTH 1040 0
DWIDTH 13 0
BBX 11 12 1 -1
BITMAP
2000
4200
7BE0
A480
A880
2080
2080
2080
2080
2080
2080
2380
ENDCHAR
STARTCHAR 2F76
ENCODING 12150
SWIDTH 1040 0
DWIDTH 13 0
BBX 11 12 1 -1
BITMAP
0400
4480
2480
2500
0500
FFE0
0C00
1600
2580
C4C0
0420
0400
ENDCHAR
STARTCHAR 2F77
ENCODING 12151
SWIDTH 1040 0
DWIDTH 13 0
BBX 11 12 1 -1
BITMAP
0800
1000
2300
4600
7880
1080
FFC0
0400
2580
4440
8460
1C00
ENDCHAR
STARTCHAR 2F78
ENCODING 12152
SWIDTH 1040 0
DWIDTH 13 0
BBX 11 12 1 -1
BITMAP
2000
2000
7FC0
4400
0400
FFE0
0400
4440
4440
4440
7FC0
0040
ENDCHAR
STARTCHAR 2F79
ENCODING 12153
SWIDTH 1040 0
DWIDTH 13 0
BBX 10 11 1 -1
BITMAP
FFC0
8040
8940
AD40
9340
9140
9AC0
A2C0
A440
8440
81C0
ENDCHAR
STARTCHAR 2F7A
ENCODING 12154
SWIDTH 1040 0
DWIDTH 13 0
BBX 11 12 1 -1
BITMAP
2100
1100
FFC0
0400
0400
7FC0
0400
0400
FFE0
0400
0400
0400
ENDCHAR
STARTCHAR 2F7B
ENCODING 12155
SWIDTH 1040 0
DWIDTH 13 0
BBX 10 11 1 -1
BITMAP
FFC0
0840
4A40
4940
2940
18C0
2940
CE40
0840
0840
39C0
ENDCHAR
STARTCHAR 2F7C
ENCODING 12156
SWIDTH 1040 0
DWIDTH 13 0
BBX 11 12 1 -1
BITMAP
0800
0840
7F80
0900
FFE0
0C00
1080
7300
9C00
1040
1040
1F80
ENDCHAR
STARTCHAR 2F7D
ENCODING 12157
SWIDTH 1040 0
DWIDTH 13 0
BBX 11 11 1 -1
BITMAP
FFE0
0800
FFC0
9240
9240
9240
9240
9240
9240
9240
80C0
ENDCHAR
STARTCHAR 2F7E
ENCODING 12158
SWIDTH 1040 0
DWIDTH 13 0
BBX 11 12 1 -1
BITMAP
0400
FFC0
0400
0400
7FC0
0400
FFE0
0C00
1600
6580
8460
0400
ENDCHAR
STARTCHAR 2F7F
ENCODING 12159
SWIDTH 1040 0
DWIDTH 13 0
BBX 11 11 1 -1
BITMAP
FFE0
2080
3F80
2080
2080
3F80
2080
21E0
FE80
0080
0080
ENDCHAR
STARTCHAR 2F80
ENCODING 12160
SWIDTH 1040 0
DWIDTH 13 0
BBX 11 12 1 -1
BITMAP
0400
7FC0
0440
FFE0
0440
7FC0
0400
7FC0
0400
FFE0
0400
0400
ENDCHAR
STARTCHAR 2F81
ENCODING 12161
SWIDTH 1040 0
DWIDTH 13 0
BBX 10 12 1 -1
BITMAP
0400
0400
FFC0
8C40
8A40
B540
8840
8C40
9340
A1C0
8040
81C0
ENDCHAR
STARTCHAR 2F82
ENCODING 12162
SWIDTH 1040 0
DWIDTH 13 0
BBX 11 11 1 -1
BITMAP
7FC0
8400
8400
7FC0
8040
8040
7FC0
8400
8400
8400
7FE0
ENDCHAR
STARTCHAR 2F83
ENCODING 12163
SWIDTH 1040 0
DWIDTH 13 0
BBX 8 11 2 0
BITMAP
10
FF
81
FF
81
81
FF
81
81
FF
80
ENDCHAR
STARTCHAR 2F84
ENCODING 12164
SWIDTH 1040 0
DWIDTH 13 0
BBX 11 10 1 0
BITMAP
FFE0
1000
2100
4FC0
3040
0400
7FC0
0400
0400
FFE0
ENDCHAR
STARTCHAR 2F85
ENCODING 12165
SWIDTH 1040 0
DWIDTH 13 0
BBX 9 12 2 -1
BITMAP
1000
E780
8080
8080
8080
F780
8080
8080
8080
8080
FF80
0080
ENDCHAR
STARTCHAR 2F86
ENCODING 12166
SWIDTH 1040 0
DWIDTH 13 0
BBX 11 12 1 -1
BITMAP
0080
3F00
4400
0400
FFE0
0400
0400
7F80
4080
4080
7F80
4080
ENDCHAR
STARTCHAR 2F87
ENCODING 12167
SWIDTH 1040 0
DWIDTH 13 0
BBX 11 12 1 -1
BITMAP
2080
2080
7880
4FE0
8880
D480
3480
27E0
2080
4080
C080
8080
ENDCHAR
STARTCHAR 2F88
ENCODING 12168
SWIDTH 1040 0
DWIDTH 13 0
BBX 11 12 1 -1
BITMAP
0800
3F80
2080
2880
2480
2080
FFE0
4080
4C80
4280
4080
8380
ENDCHAR
STARTCHAR 2F89
ENCODING 12169
SWIDTH 1040 0
DWIDTH 13 0
BBX 10 11 2 -1
BITMAP
FF00
8100
FF00
8100
FF00
9000
8900
8600
8200
B180
C040
ENDCHAR
STARTCHAR 2F8A
ENCODING 12170
SWIDTH 1040 0
DWIDTH 13 0
BBX 10 12 1 -1
BITMAP
1000
1E00
2200
FFC0
4440
4440
7FC0
4000
4000
4040
4040
3FC0
ENDCHAR
STARTCHAR 2F8B
ENCODING 12171
SWIDTH 1040 0
DWIDTH 13 0
BBX 11 12 1 -1
BITMAP
2000
2100
AB40
AB40
AB40
AB40
AB40
FBC0
2920
4100
4100
8000
ENDCHAR
STARTCHAR 2F8C
ENCODING 12172
SWIDTH 1040 0
DWIDTH 13 0
BBX 10 12 1 -1
BITMAP
0800
0780
0800
7FC0
4040
4840
4840
BF80
8800
8800
8840
87C0
ENDCHAR
STARTCHAR 2F8D
ENCODING 12173
SWIDTH 1040 0
DWIDTH 13 0
BBX 11 12 1 -1
BITMAP
0400
0400
7FC0
4440
4440
4440
7FC0
0400
0480
0440
FFC0
0020
ENDCHAR
STARTCHAR 2F8E
ENCODING 12174
SWIDTH 1040 0
DWIDTH 13 0
BBX 12 11 0 0
BITMAP
0200
0400
3FE0
2920
2920
2920
2920
2920
2920
2920
FFF0
ENDCHAR
STARTCHAR 2F8F
ENCODING 12175
SWIDTH 1040 0
DWIDTH 13 0
BBX 11 12 1 -1
BITMAP
2000
2FC0
4000
A000
2FE0
4080
C080
4080
4080
4080
4080
0380
ENDCHAR
STARTCHAR 2F90
ENCODING 12176
SWIDTH 1040 0
DWIDTH 13 0
BBX 11 11 1 -1
BITMAP
0800
0400
FFE0
0C00
1440
2280
6300
A100
2100
22C0
3C60
ENDCHAR
STARTCHAR 2F91
ENCODING 12177
SWIDTH 1040 0
DWIDTH 13 0
BBX 11 10 1 0
BITMAP
FFE0
1200
1200
7FC0
9240
9240
9240
9E40
8040
8040
ENDCHAR
STARTCHAR 2F92
ENCODING 12178
SWIDTH 1040 0
DWIDTH 13 0
BBX 11 11 1 -1
BITMAP
7F80
4080
7F80
4080
7F80
4080
7F80
1200
1220
2220
C3C0
ENDCHAR
STARTCHAR 2F93
ENCODING 12179
SWIDTH 1040 0
DWIDTH 13 0
BBX 10 12 1 -1
BITMAP
1000
1F00
2200
FFC0
4440
7FC0
4440
4440
7FC0
4440
8440
8580
ENDCHAR
STARTCHAR 2F94
ENCODING 12180
SWIDTH 1040 0
DWIDTH 13 0
BBX 11 12 1 -1
BITMAP
0800
0400
FFE0
0000
7F80
0000
7F80
0000
7F80
4080
7F80
4080
ENDCHAR
STARTCHAR 2F95
ENCODING 12181
SWIDTH 1040 0
DWIDTH 13 0
BBX 11 12 1 -1
BITMAP
1000
1100
2080
C440
0C00
1200
2180
FFE0
2080
2080
3F80
2080
ENDCHAR
STARTCHAR 2F96
ENCODING 12182
SWIDTH 1040 0
DWIDTH 13 0
BBX 11 10 1 0
BITMAP
FFC0
0000
7F80
4080
4080
7F80
0100
1100
1200
FFE0
ENDCHAR
STARTCHAR 2F97
ENCODING 12183
SWIDTH 1040 0
DWIDTH 13 0
BBX 10 11 1 -1
BITMAP
FFC0
0800
3840
C580
0F00
3500
C680
1A80
6240
8400
1C00
ENDCHAR
STARTCHAR 2F98
ENCODING 12184
SWIDTH 1040 0
DWIDTH 13 0
BBX 8 12 2 -1
BITMAP
02
1C
E1
4A
0C
F4
0A
72
8E
32
C2
0C
ENDCHAR
STARTCHAR 2F99
ENCODING 12185
SWIDTH 1040 0
DWIDTH 13 0
BBX 10 11 1 -1
BITMAP
7F80
4080
7F80
4080
4080
7F80
4080
7F80
0000
3180
C040
ENDCHAR
STARTCHAR 2F9A
ENCODING 12186
SWIDTH 1040 0
DWIDTH 13 0
BBX 11 12 1 -1
BITMAP
0400
0400
7FC0
0400
FFE0
1200
5280
5240
9240
9200
2200
4E00
ENDCHAR
STARTCHAR 2F9B
ENCODING 12187
SWIDTH 1040 0
DWIDTH 13 0
BBX 11 12 1 -1
BITMAP
0400
0400
7FC0
0400
FFE0
0400
2400
4780
6400
6400
9400
8FE0
ENDCHAR
STARTCHAR 2F9C
ENCODING 12188
SWIDTH 1040 0
DWIDTH 13 0
BBX 10 11 1 -1
BITMAP
7F80
4080
4080
7F80
0400
2400
47C0
6400
6400
9C00
87C0
ENDCHAR
STARTCHAR 2F9D
ENCODING 12189
SWIDTH 1040 0
DWIDTH 13 0
BBX 10 12 1 -1
BITMAP
0800
3F80
2080
3F80
2080
3FC0
20C0
FF80
0280
0C80
3080
C300
ENDCHAR
STARTCHAR 2F9E
ENCODING 12190
SWIDTH 1040 0
DWIDTH 13 0
BBX 11 12 1 -1
BITMAP
0400
FFE0
0400
7F80
4480
7F80
4480
7F80
0400
FFE0
0400
0400
ENDCHAR
STARTCHAR 2F9F
ENCODING 12191
SWIDTH 1040 0
DWIDTH 13 0
BBX 11 12 1 -1
BITMAP
0800
0400
FFC0
2100
1100
FFE0
0400
0400
FFC0
0400
0400
0400
ENDCHAR
STARTCHAR 2FA0
ENCODING 12192
SWIDTH 1040 0
DWIDTH 13 0
BBX 11 11 1 -1
BITMAP
7FC0
4000
7FC0
4000
7FE0
9440
9240
9380
9100
94C0
1820
ENDCHAR
STARTCHAR 2FA1
ENCODING 12193
SWIDTH 1040 0
DWIDTH 13 0
BBX 11 12 1 -1
BITMAP
0080
1F00
60C0
FF00
00C0
7F00
8400
2780
6400
6400
9C00
87E0
ENDCHAR
STARTCHAR 2FA2
ENCODING 12194
SWIDTH 1040 0
DWIDTH 13 0
BBX 10 12 2 -1
BITMAP
FF00
8100
8100
FF00
0000
FF80
8880
FF80
8000
8040
8040
FF80
ENDCHAR
STARTCHAR 2FA3
ENCODING 12195
SWIDTH 1040 0
DWIDTH 13 0
BBX 11 11 1 -1
BITMAP
FFE0
1200
FFC0
9240
9240
A3C0
8040
FFC0
8040
FFC0
8040
ENDCHAR
STARTCHAR 2FA4
ENCODING 12196
SWIDTH 1040 0
DWIDTH 13 0
BBX 11 12 1 -1
BITMAP
0080
7F00
0480
2500
0500
FFE0
0C00
1600
2580
C4C0
8420
0400
ENDCHAR
STARTCHAR 2FA5
ENCODING 12197
SWIDTH 1040 0
DWIDTH 13 0
BBX 11 10 1 0
BITMAP
7FC0
4440
7FC0
4440
4440
7FC0
0400
FFC0
0400
FFE0
ENDCHAR
STARTCHAR 2FA6
ENCODING 12198
SWIDTH 1040 0
DWIDTH 13 0
BBX 11 11 1 0
BITMAP
0400
0C00
1200
2180
FF60
0400
FFC0
0400
2500
2500
FFE0
ENDCHAR
STARTCHAR 2FA7
ENCODING 12199
SWIDTH 1040 0
DWIDTH 13 0
BBX 11 11 1 -1
BITMAP
3FC0
3F80
2000
3F80
2000
FFE0
4880
4500
4300
58C0
6020
ENDCHAR
STARTCHAR 2FA8
ENCODING 12200
SWIDTH 1040 0
DWIDTH 13 0
BBX 10 12 1 -1
BITMAP
FBC0
8A40
FBC0
8A40
FBC0
8040
8040
8040
8040
8040
8040
81C0
ENDCHAR
STARTCHAR 2FA9
ENCODING 12201
SWIDTH 1040 0
DWIDTH 13 0
BBX 11 12 1 -1
BITMAP
0800
7F80
4080
7F80
4000
7FC0
4040
7FC0
0400
FFE0
0400
0400
ENDCHAR
STARTCHAR 2FAA
ENCODING 12202
SWIDTH 1040 0
DWIDTH 13 0
BBX 11 12 1 -1
BITMAP
0400
7F80
0480
FFE0
0480
7F80
4400
2480
0700
3500
C4C0
1800
ENDCHAR
STARTCHAR 2FAB
ENCODING 12203
SWIDTH 1040 0
DWIDTH 13 0
BBX 11 12 1 -1
BITMAP
1400
2400
3FC0
4400
C400
FFC0
4400
4400
7FC0
4400
7FE0
4000
ENDCHAR
STARTCHAR 2FAC
ENCODING 12204
SWIDTH 1040 0
DWIDTH 13 0
BBX 11 11 1 -1
BITMAP
FFE0
0400
FFC0
8440
B540
84C0
8640
B540
8440
8440
85C0
ENDCHAR
STARTCHAR 2FAD
ENCODING 12205
SWIDTH 1040 0
DWIDTH 13 0
BBX 11 12 1 -1
BITMAP
0400
FFC0
0800
7FC0
FFE0
0000
7F80
4880
7F80
4080
4080
4380
ENDCHAR
STARTCHAR 2FAE
ENCODING 12206
SWIDTH 1040 0
DWIDTH 13 0
BBX 11 12 1 -1
BITMAP
0200
1200
F3E0
1200
1200
F3C0
1200
1200
F3E0
1200
1200
0200
ENDCHAR
STARTCHAR 2FAF
ENCODING 12207
SWIDTH 1040 0
DWIDTH 13 0
BBX 11 12 1 -1
BITMAP
FFE0
0800
0800
FFC0
9240
9E40
9240
9240
9E40
9240
FFC0
8040
ENDCHAR
STARTCHAR 2FB0
ENCODING 12208
SWIDTH 1040 0
DWIDTH 13 0
BBX 11 12 1 -1
BITMAP
0100
FFE0
2100
1F00
0400
7F80
4480
7F80
0400
FFE0
0400
0400
ENDCHAR
STARTCHAR 2FB1
ENCODING 12209
SWIDTH 1040 0
DWIDTH 13 0
BBX 11 12 1 -1
BITMAP
0800
7F80
1080
FFE0
7F80
4080
7F80
FFC0
0200
FFE0
0200
0200
ENDCHAR
STARTCHAR 2FB2
ENCODING 12210
SWIDTH 1040 0
DWIDTH 13 0
BBX 11 11 1 0
BITMAP
0200
1200
F3C0
1200
1200
F3C0
1200
1200
F3C0
1200
FFE0
ENDCHAR
STARTCHAR 2FB3
ENCODING 12211
SWIDTH 1040 0
DWIDTH 13 0
BBX 11 12 1 -1
BITMAP
0800
FFC0
2100
1200
FFE0
0000
7F80
4080
7F80
4080
7F80
4080
ENDCHAR
STARTCHAR 2FB4
ENCODING 12212
SWIDTH 1040 0
DWIDTH 13 0
BBX 11 11 1 -1
BITMAP
FFE0
0800
7F80
4080
7F80
4080
7F80
4080
7F80
3180
C040
ENDCHAR
STARTCHAR 2FB5
ENCODING 12213
SWIDTH 1040 0
DWIDTH 13 0
BBX 12 11 0 -1
BITMAP
3FC0
20C0
3F40
2440
3FC0
34C0
5FA0
4420
44B0
4FB0
9050
ENDCHAR
STARTCHAR 2FB6
ENCODING 12214
SWIDTH 1040 0
DWIDTH 13 0
BBX 11 12 1 -1
BITMAP
FF00
1140
2980
E940
28A0
FF60
2940
4980
49C0
4880
88A0
8060
ENDCHAR
STARTCHAR 2FB7
ENCODING 12215
SWIDTH 1040 0
DWIDTH 13 0
BBX 11 12 1 -1
BITMAP
0400
1A00
2900
FFE0
2080
3F80
2080
3FC0
2480
2300
2D80
3040
ENDCHAR
STARTCHAR 2FB8
ENCODING 12216
SWIDTH 1040 0
DWIDTH 13 0
BBX 11 12 1 -1
BITMAP
2100
1200
FFE0
0800
7F80
4080
7F80
4080
7F80
4080
7F80
4080
ENDCHAR
STARTCHAR 2FB9
ENCODING 12217
SWIDTH 1040 0
DWIDTH 13 0
BBX 11 12 1 -1
BITMAP
0180
7E00
0400
FFE0
1600
6580
BFE0
4080
3F80
4080
3F80
0080
ENDCHAR
STARTCHAR 2FBA
ENCODING 12218
SWIDTH 1040 0
DWIDTH 13 0
BBX 10 11 1 -1
BITMAP
7FC0
4400
7F80
4400
7F80
4400
7FC0
5540
5540
9040
0180
ENDCHAR
STARTCHAR 2FBB
ENCODING 12219
SWIDTH 1040 0
DWIDTH 13 0
BBX 10 12 1 -1
BITMAP
3F80
4080
3C80
4480
FFC0
BFC0
2080
3F80
2080
3F80
2080
2300
ENDCHAR
STARTCHAR 2FBC
ENCODING 12220
SWIDTH 1040 0
DWIDTH 13 0
BBX 11 12 1 -1
BITMAP
0800
FFE0
0000
3F80
2080
3F80
FFC0
8040
9F40
9F40
8040
80C0
ENDCHAR
STARTCHAR 2FBD
ENCODING 12221
SWIDTH 1040 0
DWIDTH 13 0
BBX 11 10 1 0
BITMAP
7840
4080
7B00
7840
4080
FF00
4020
4840
4880
F700
ENDCHAR
STARTCHAR 2FBE
ENCODING 12222
SWIDTH 1040 0
DWIDTH 13 0
BBX 10 12 1 -1
BITMAP
FFC0
9140
BBC0
9140
FFC0
8040
8040
8040
8040
8040
8040
80C0
ENDCHAR
STARTCHAR 2FBF
ENCODING 12223
SWIDTH 1040 0
DWIDTH 13 0
BBX 10 12 1 -1
BITMAP
0900
A540
9B40
AEC0
B140
8440
FFC0
4080
5F00
6040
4040
3F80
ENDCHAR
STARTCHAR 2FC0
ENCODING 12224
SWIDTH 1040 0
DWIDTH 13 0
BBX 11 11 1 -1
BITMAP
FFE0
3F80
4080
3F80
0000
FFC0
9240
BFC0
8440
8440
84C0
ENDCHAR
STARTCHAR 2FC1
ENCODING 12225
SWIDTH 1040 0
DWIDTH 13 0
BBX 11 12 1 -1
BITMAP
0800
7F80
4880
7F80
4880
4880
7F80
0D00
1580
17E0
6420
87C0
ENDCHAR
STARTCHAR 2FC2
ENCODING 12226
SWIDTH 1040 0
DWIDTH 13 0
BBX 11 12 1 -1
BITMAP
1000
1F00
2200
7FC0
C440
7FC0
4440
4440
7FC0
5280
5240
8920
ENDCHAR
STARTCHAR 2FC3
ENCODING 12227
SWIDTH 1040 0
DWIDTH 13 0
BBX 11 12 1 -1
BITMAP
0800
7F80
4080
7F80
7F80
4000
7FE0
4000
7FC0
A540
9440
8180
ENDCHAR
STARTCHAR 2FC4
ENCODING 12228
SWIDTH 1040 0
DWIDTH 13 0
BBX 10 11 1 0
BITMAP
07C0
0800
FFC0
8940
9640
8D40
AAC0
9140
A440
FFC0
8040
ENDCHAR
STARTCHAR 2FC5
ENCODING 12229
SWIDTH 1040 0
DWIDTH 13 0
BBX 11 12 1 -1
BITMAP
0400
FFE0
9200
FFC0
9240
FFC0
8000
A260
BF80
A200
AE20
31C0
ENDCHAR
STARTCHAR 2FC6
ENCODING 12230
SWIDTH 1040 0
DWIDTH 13 0
BBX 10 12 1 -1
BITMAP
0400
FFC0
2500
6580
8C40
3700
C8C0
1F00
7300
0C00
1B00
E080
ENDCHAR
STARTCHAR 2FC7
ENCODING 12231
SWIDTH 1040 0
DWIDTH 13 0
BBX 11 12 1 -1
BITMAP
0800
FFE0
9100
9100
BFE0
9180
9A80
B740
D540
D520
9100
1100
ENDCHAR
STARTCHAR 2FC8
ENCODING 12232
SWIDTH 1040 0
DWIDTH 13 0
BBX 11 12 1 -1
BITMAP
1000
FFC0
1E00
0000
FFE0
0800
7F80
7F80
4880
7F80
3180
C040
ENDCHAR
STARTCHAR 2FC9
ENCODING 12233
SWIDTH 1040 0
DWIDTH 13 0
BBX 11 12 1 -1
BITMAP
0180
7E00
FFE0
1E00
2580
CC40
3700
C5E0
1600
1600
E5C0
1800
ENDCHAR
STARTCHAR 2FCA
ENCODING 12234
SWIDTH 1040 0
DWIDTH 13 0
BBX 11 12 1 -1
BITMAP
7FC0
4440
5540
5640
7FC0
0400
7FC0
0400
FFE0
4200
5240
8020
ENDCHAR
STARTCHAR 2FCB
ENCODING 12235
SWIDTH 1040 0
DWIDTH 13 0
BBX 11 12 1 -1
BITMAP
4A00
4A80
FFE0
2400
2500
7FC0
8440
9640
A540
A440
8440
04C0
ENDCHAR
STARTCHAR 2FCC
ENCODING 12236
SWIDTH 1040 0
DWIDTH 13 0
BBX 11 12 1 -1
BITMAP
7FC0
9240
9240
73C0
F3C0
9240
F3C0
9240
F3C0
9220
1220
0FC0
ENDCHAR
STARTCHAR 2FCD
ENCODING 12237
SWIDTH 1040 0
DWIDTH 13 0
BBX 10 12 1 -1
BITMAP
3F00
A140
BF40
BF40
A140
BF40
FBC0
0A00
FBC0
4A40
8A40
8A40
ENDCHAR
STARTCHAR 2FCE
ENCODING 12238
SWIDTH 1040 0
DWIDTH 13 0
BBX 11 12 1 -1
BITMAP
2100
F900
27E0
F900
0100
FFC0
8A40
FA80
5180
5980
F240
0C20
ENDCHAR
STARTCHAR 2FCF
ENCODING 12239
SWIDTH 1040 0
DWIDTH 13 0
BBX 11 11 1 0
BITMAP
73C0
73C0
8040
7FC0
4080
7A80
4980
7A80
4940
7B60
4420
ENDCHAR
STARTCHAR 2FD0
ENCODING 12240
SWIDTH 1040 0
DWIDTH 13 0
BBX 11 12 1 -1
BITMAP
7F80
4080
7F80
7F80
7F80
7FC0
8440
FFC0
7FC0
FFE0
2100
C100
ENDCHAR
STARTCHAR 2FD1
ENCODING 12241
SWIDTH 1040 0
DWIDTH 13 0
BBX 11 12 1 -1
BITMAP
0800
FFE0
1240
FD80
5540
B5A0
0080
3F80
4080
7F80
4080
8080
ENDCHAR
STARTCHAR 2FD2
ENCODING 12242
SWIDTH 1040 0
DWIDTH 13 0
BBX 11 12 1 -1
BITMAP
0400
27C0
2400
FFE0
9240
9B40
A4C0
FFC0
9240
ADC0
FFC0
0040
ENDCHAR
STARTCHAR 2FD3
ENCODING 12243
SWIDTH 1040 0
DWIDTH 13 0
BBX 11 12 1 -1
BITMAP
2200
FBC0
5400
FBC0
03C0
FC00
8BC0
FBC0
FC00
8BC0
8C20
93C0
ENDCHAR
STARTCHAR 2FD4
ENCODING 12244
SWIDTH 1040 0
DWIDTH 13 0
BBX 11 11 1 0
BITMAP
7FC0
4040
7BC0
8C00
6BC0
ECC0
4DC0
6D40
FBC0
EC20
0FE0
ENDCHAR
STARTCHAR 2FD5
ENCODING 12245
SWIDTH 1040 0
DWIDTH 13 0
BBX 11 12 1 -1
BITMAP
0C00
1200
7FC0
8020
EFC0
EFC0
0000
7FC0
5240
7FC0
5240
5080
ENDCHAR
STARTCHAR 2FF0
ENCODING 12272
SWIDTH 1040 0
DWIDTH 13 0
BBX 1 8 11 1
BITMAP
80
80
00
80
80
00
80
80
ENDCHAR
STARTCHAR 2FF1
ENCODING 12273
SWIDTH 1040 0
DWIDTH 13 0
BBX 1 8 11 1
BITMAP
80
80
00
80
80
00
80
80
ENDCHAR
STARTCHAR 2FF2
ENCODING 12274
SWIDTH 1040 0
DWIDTH 13 0
BBX 8 10 4 0
BITMAP
80
01
81
80
01
01
80
81
01
80
ENDCHAR
STARTCHAR 2FF3
ENCODING 12275
SWIDTH 1040 0
DWIDTH 13 0
BBX 1 8 11 1
BITMAP
80
80
00
80
80
00
80
80
ENDCHAR
STARTCHAR 2FF4
ENCODING 12276
SWIDTH 1040 0
DWIDTH 13 0
BBX 4 8 8 1
BITMAP
10
90
00
90
10
80
90
10
ENDCHAR
STARTCHAR 2FF5
ENCODING 12277
SWIDTH 1040 0
DWIDTH 13 0
BBX 4 8 8 1
BITMAP
10
10
00
90
90
00
90
90
ENDCHAR
STARTCHAR 2FF6
ENCODING 12278
SWIDTH 1040 0
DWIDTH 13 0
BBX 4 8 8 1
BITMAP
90
90
00
90
90
00
10
10
ENDCHAR
STARTCHAR 2FF7
ENCODING 12279
SWIDTH 1040 0
DWIDTH 13 0
BBX 1 8 11 1
BITMAP
80
00
00
80
80
00
00
80
ENDCHAR
STARTCHAR 2FF8
ENCODING 12280
SWIDTH 1040 0
DWIDTH 13 0
BBX 9 9 3 1
BITMAP
0080
8080
8000
0080
8080
8000
0080
0080
8000
ENDCHAR
STARTCHAR 2FF9
ENCODING 12281
SWIDTH 1040 0
DWIDTH 13 0
BBX 1 8 11 1
BITMAP
80
80
00
80
80
00
80
80
ENDCHAR
STARTCHAR 2FFA
ENCODING 12282
SWIDTH 1040 0
DWIDTH 13 0
BBX 9 9 3 0
BITMAP
8000
0080
0080
8000
8080
0080
8000
8080
0080
ENDCHAR
STARTCHAR 2FFB
ENCODING 12283
SWIDTH 1040 0
DWIDTH 13 0
BBX 9 7 3 2
BITMAP
8080
8080
0000
8080
0080
0000
8080
ENDCHAR
STARTCHAR 3000
ENCODING 12288
SWIDTH 1040 0
DWIDTH 13 0
BBX 0 0 0 0
BITMAP
ENDCHAR
STARTCHAR 3001
ENCODING 12289
SWIDTH 1040 0
DWIDTH 13 0
BBX 3 4 1 -1
BITMAP
80
40
60
20
ENDCHAR
STARTCHAR 3002
ENCODING 12290
SWIDTH 1040 0
DWIDTH 13 0
BBX 4 4 1 -1
BITMAP
60
90
90
60
ENDCHAR
STARTCHAR 3003
ENCODING 12291
SWIDTH 1040 0
DWIDTH 13 0
BBX 4 5 4 2
BITMAP
50
50
90
90
A0
ENDCHAR
STARTCHAR 3005
ENCODING 12293
SWIDTH 1040 0
DWIDTH 13 0
BBX 9 10 1 1
BITMAP
0800
1000
1F80
2080
2100
4100
9A00
0400
0200
0100
ENDCHAR
STARTCHAR 3006
ENCODING 12294
SWIDTH 1040 0
DWIDTH 13 0
BBX 10 10 1 0
BITMAP
0040
0080
0100
3A00
4400
8A00
9100
B000
A000
C000
ENDCHAR
STARTCHAR 3007
ENCODING 12295
SWIDTH 1040 0
DWIDTH 13 0
BBX 11 12 1 -1
BITMAP
1E00
2180
4040
8040
8040
8020
8020
8040
8040
4040
2180
1E00
ENDCHAR
STARTCHAR 3008
ENCODING 12296
SWIDTH 1040 0
DWIDTH 13 0
BBX 4 12 8 -1
BITMAP
10
20
20
40
80
80
80
80
40
20
20
10
ENDCHAR
STARTCHAR 3009
ENCODING 12297
SWIDTH 1040 0
DWIDTH 13 0
BBX 4 12 1 -1
BITMAP
80
80
40
40
20
10
10
20
40
40
80
80
ENDCHAR
STARTCHAR 300A
ENCODING 12298
SWIDTH 1040 0
DWIDTH 13 0
BBX 5 12 7 -1
BITMAP
28
30
50
60
A0
A0
A0
A0
60
50
30
28
ENDCHAR
STARTCHAR 300B
ENCODING 12299
SWIDTH 1040 0
DWIDTH 13 0
BBX 5 12 0 -1
BITMAP
20
60
50
30
28
18
18
28
30
50
60
A0
ENDCHAR
STARTCHAR 300C
ENCODING 12300
SWIDTH 1040 0
DWIDTH 13 0
BBX 3 6 9 4
BITMAP
E0
80
80
80
80
80
ENDCHAR
STARTCHAR 300D
ENCODING 12301
SWIDTH 1040 0
DWIDTH 13 0
BBX 3 7 1 -1
BITMAP
20
20
20
20
20
20
E0
ENDCHAR
STARTCHAR 300E
ENCODING 12302
SWIDTH 1040 0
DWIDTH 13 0
BBX 4 8 8 3
BITMAP
F0
F0
C0
C0
C0
C0
C0
C0
ENDCHAR
STARTCHAR 300F
ENCODING 12303
SWIDTH 1040 0
DWIDTH 13 0
BBX 4 8 1 -1
BITMAP
30
50
50
50
50
50
D0
F0
ENDCHAR
STARTCHAR 3010
ENCODING 12304
SWIDTH 1040 0
DWIDTH 13 0
BBX 2 12 9 -1
BITMAP
C0
C0
C0
80
80
80
80
80
80
C0
C0
C0
ENDCHAR
STARTCHAR 3011
ENCODING 12305
SWIDTH 1040 0
DWIDTH 13 0
BBX 3 12 1 -1
BITMAP
E0
60
60
60
60
60
60
60
60
60
60
E0
ENDCHAR
STARTCHAR 3012
ENCODING 12306
SWIDTH 1040 0
DWIDTH 13 0
BBX 10 10 1 0
BITMAP
FFC0
0000
0000
FFC0
0400
0400
0400
0400
0400
0400
ENDCHAR
STARTCHAR 3013
ENCODING 12307
SWIDTH 1040 0
DWIDTH 13 0
BBX 9 10 2 0
BITMAP
FF80
FF80
FF80
FF80
0000
0000
FF80
FF80
FF80
FF80
ENDCHAR
STARTCHAR 3014
ENCODING 12308
SWIDTH 1040 0
DWIDTH 13 0
BBX 2 12 9 -1
BITMAP
40
80
80
80
80
80
80
80
80
80
80
40
ENDCHAR
STARTCHAR 3015
ENCODING 12309
SWIDTH 1040 0
DWIDTH 13 0
BBX 3 12 1 -1
BITMAP
80
40
20
20
20
20
20
20
20
20
40
80
ENDCHAR
STARTCHAR 3016
ENCODING 12310
SWIDTH 1040 0
DWIDTH 13 0
BBX 4 12 8 -1
BITMAP
F0
A0
A0
C0
C0
C0
C0
C0
C0
A0
A0
F0
ENDCHAR
STARTCHAR 3017
ENCODING 12311
SWIDTH 1040 0
DWIDTH 13 0
BBX 4 12 1 -1
BITMAP
F0
90
50
50
50
50
50
50
50
50
90
F0
ENDCHAR
STARTCHAR 301D
ENCODING 12317
SWIDTH 1040 0
DWIDTH 13 0
BBX 5 4 7 7
BITMAP
D0
50
28
28
ENDCHAR
STARTCHAR 301E
ENCODING 12318
SWIDTH 1040 0
DWIDTH 13 0
BBX 5 4 0 7
BITMAP
28
50
50
80
ENDCHAR
STARTCHAR 3021
ENCODING 12321
SWIDTH 1040 0
DWIDTH 13 0
BBX 1 12 6 -1
BITMAP
80
80
80
80
80
80
80
80
80
80
80
80
ENDCHAR
STARTCHAR 3022
ENCODING 12322
SWIDTH 1040 0
DWIDTH 13 0
BBX 5 12 4 -1
BITMAP
08
88
88
88
88
88
88
88
88
88
88
08
ENDCHAR
STARTCHAR 3023
ENCODING 12323
SWIDTH 1040 0
DWIDTH 13 0
BBX 8 12 2 -1
BITMAP
81
89
89
89
89
89
89
89
89
89
89
81
ENDCHAR
STARTCHAR 3024
ENCODING 12324
SWIDTH 1040 0
DWIDTH 13 0
BBX 7 8 2 1
BITMAP
02
02
64
14
08
14
22
C0
ENDCHAR
STARTCHAR 3025
ENCODING 12325
SWIDTH 1040 0
DWIDTH 13 0
BBX 6 12 3 -1
BITMAP
20
44
44
84
C8
30
4C
84
84
84
44
38
ENDCHAR
STARTCHAR 3026
ENCODING 12326
SWIDTH 1040 0
DWIDTH 13 0
BBX 11 5 1 4
BITMAP
0400
0400
0400
0400
FFE0
ENDCHAR
STARTCHAR 3027
ENCODING 12327
SWIDTH 1040 0
DWIDTH 13 0
BBX 11 8 1 2
BITMAP
0400
0400
0400
0400
FFE0
0000
0000
FFE0
ENDCHAR
STARTCHAR 3028
ENCODING 12328
SWIDTH 1040 0
DWIDTH 13 0
BBX 11 10 1 1
BITMAP
0400
0400
0400
FFE0
0000
0000
FFC0
0000
0000
FFE0
ENDCHAR
STARTCHAR 3029
ENCODING 12329
SWIDTH 1040 0
DWIDTH 13 0
BBX 9 11 2 0
BITMAP
2000
3F80
4200
4200
B200
1C00
0C00
0E00
1200
6000
8000
ENDCHAR
STARTCHAR 3033
ENCODING 12339
SWIDTH 1040 0
DWIDTH 13 0
BBX 6 11 3 -1
BITMAP
04
08
08
18
10
30
20
40
40
80
80
ENDCHAR
STARTCHAR 3034
ENCODING 12340
SWIDTH 1040 0
DWIDTH 13 0
BBX 9 11 3 -1
BITMAP
0400
0800
0B00
1A80
1000
3000
2000
4000
4000
8000
8000
ENDCHAR
STARTCHAR 3035
ENCODING 12341
SWIDTH 1040 0
DWIDTH 13 0
BBX 7 12 3 0
BITMAP
80
80
40
40
20
30
10
08
08
0C
04
06
ENDCHAR
STARTCHAR 3038
ENCODING 12344
SWIDTH 1040 0
DWIDTH 13 0
BBX 11 12 1 -1
BITMAP
0400
0400
0400
0400
0400
FFE0
0400
0400
0400
0400
0400
0400
ENDCHAR
STARTCHAR 3039
ENCODING 12345
SWIDTH 1040 0
DWIDTH 13 0
BBX 11 12 1 -1
BITMAP
1100
1100
1100
1100
1100
FFE0
1100
1100
1100
1100
1100
1100
ENDCHAR
STARTCHAR 303A
ENCODING 12346
SWIDTH 1040 0
DWIDTH 13 0
BBX 11 12 1 -1
BITMAP
2080
2480
2480
2480
2480
FFE0
4480
4480
4480
4480
8480
8080
ENDCHAR
STARTCHAR 303E
ENCODING 12350
SWIDTH 1040 0
DWIDTH 13 0
BBX 10 8 2 1
BITMAP
7040
0F40
0000
0840
FF40
0800
FF40
1040
ENDCHAR
STARTCHAR 303F
ENCODING 12351
SWIDTH 480 0
DWIDTH 6 0
BBX 6 10 0 0
BITMAP
FC
CC
D4
B4
94
A4
B4
B4
CC
FC
ENDCHAR
STARTCHAR 3041
ENCODING 12353
SWIDTH 1040 0
DWIDTH 13 0
BBX 8 9 2 -1
BITMAP
10
7E
20
3E
69
A9
91
62
04
ENDCHAR
STARTCHAR 3042
ENCODING 12354
SWIDTH 1040 0
DWIDTH 13 0
BBX 10 11 1 0
BITMAP
1000
1000
7F00
1100
1E00
3380
5240
9440
9840
98C0
6300
ENDCHAR
STARTCHAR 3043
ENCODING 12355
SWIDTH 1040 0
DWIDTH 13 0
BBX 7 7 3 0
BITMAP
80
84
82
82
A2
A0
40
ENDCHAR
STARTCHAR 3044
ENCODING 12356
SWIDTH 1040 0
DWIDTH 13 0
BBX 9 9 2 0
BITMAP
8000
8200
8100
8080
8080
9080
9080
5000
6000
ENDCHAR
STARTCHAR 3045
ENCODING 12357
SWIDTH 1040 0
DWIDTH 13 0
BBX 6 8 3 0
BITMAP
78
00
78
84
04
04
0C
70
ENDCHAR
STARTCHAR 3046
ENCODING 12358
SWIDTH 1040 0
DWIDTH 13 0
BBX 8 10 2 0
BITMAP
7E
00
00
7E
81
01
01
01
06
38
ENDCHAR
STARTCHAR 3047
ENCODING 12359
SWIDTH 1040 0
DWIDTH 13 0
BBX 8 8 2 0
BITMAP
3C
00
7C
08
10
38
48
87
ENDCHAR
STARTCHAR 3048
ENCODING 12360
SWIDTH 1040 0
DWIDTH 13 0
BBX 10 10 2 0
BITMAP
3C00
0000
0000
7C00
0800
1000
3800
4400
8400
07C0
ENDCHAR
STARTCHAR 3049
ENCODING 12361
SWIDTH 1040 0
DWIDTH 13 0
BBX 8 9 2 -1
BITMAP
20
22
F9
20
3E
61
A9
A9
66
ENDCHAR
STARTCHAR 304A
ENCODING 12362
SWIDTH 1040 0
DWIDTH 13 0
BBX 10 11 1 0
BITMAP
1000
1000
1080
FC40
1000
1700
3880
5040
9440
9440
7380
ENDCHAR
STARTCHAR 304B
ENCODING 12363
SWIDTH 1040 0
DWIDTH 13 0
BBX 11 10 1 1
BITMAP
1000
1000
3C80
E240
2240
2220
2200
4200
4400
9C00
ENDCHAR
STARTCHAR 304C
ENCODING 12364
SWIDTH 1040 0
DWIDTH 13 0
BBX 11 11 1 0
BITMAP
0040
10A0
1040
3C80
E240
2240
2220
4200
4200
4400
9C00
ENDCHAR
STARTCHAR 304D
ENCODING 12365
SWIDTH 1040 0
DWIDTH 13 0
BBX 9 10 2 1
BITMAP
1000
1F00
E800
0780
FC00
0200
7F00
8000
8000
7E00
ENDCHAR
STARTCHAR 304E
ENCODING 12366
SWIDTH 1040 0
DWIDTH 13 0
BBX 10 11 2 0
BITMAP
0140
10C0
1E00
E800
0B00
F400
0200
7E00
8000
8000
7E00
ENDCHAR
STARTCHAR 304F
ENCODING 12367
SWIDTH 1040 0
DWIDTH 13 0
BBX 6 10 3 0
BITMAP
08
10
20
C0
80
80
40
30
18
0C
ENDCHAR
STARTCHAR 3050
ENCODING 12368
SWIDTH 1040 0
DWIDTH 13 0
BBX 8 10 2 0
BITMAP
04
09
13
62
C0
40
20
18
0C
06
ENDCHAR
STARTCHAR 3051
ENCODING 12369
SWIDTH 1040 0
DWIDTH 13 0
BBX 9 10 2 -1
BITMAP
8200
8200
8200
9F80
8200
8200
C200
C200
C200
8C00
ENDCHAR
STARTCHAR 3052
ENCODING 12370
SWIDTH 1040 0
DWIDTH 13 0
BBX 10 11 2 -1
BITMAP
0040
82C0
8280
8280
9F00
8200
8200
C200
C200
8400
8C00
ENDCHAR
STARTCHAR 3053
ENCODING 12371
SWIDTH 1040 0
DWIDTH 13 0
BBX 8 9 2 0
BITMAP
7F
04
08
00
40
80
80
C0
3F
ENDCHAR
STARTCHAR 3054
ENCODING 12372
SWIDTH 1040 0
DWIDTH 13 0
BBX 9 9 2 0
BITMAP
7E00
0C80
0180
0000
4000
8000
8000
C000
7F00
ENDCHAR
STARTCHAR 3055
ENCODING 12373
SWIDTH 1040 0
DWIDTH 13 0
BBX 8 11 2 0
BITMAP
08
08
09
FE
04
02
3E
41
80
80
7E
ENDCHAR
STARTCHAR 3056
ENCODING 12374
SWIDTH 1040 0
DWIDTH 13 0
BBX 9 11 2 0
BITMAP
0280
0900
0900
FE00
0400
0200
3E00
C100
8000
8000
7E00
ENDCHAR
STARTCHAR 3057
ENCODING 12375
SWIDTH 1040 0
DWIDTH 13 0
BBX 8 10 3 0
BITMAP
80
80
80
80
80
81
82
82
84
78
ENDCHAR
STARTCHAR 3058
ENCODING 12376
SWIDTH 1040 0
DWIDTH 13 0
BBX 8 10 3 0
BITMAP
8C
86
80
80
80
81
82
82
84
78
ENDCHAR
STARTCHAR 3059
ENCODING 12377
SWIDTH 1040 0
DWIDTH 13 0
BBX 10 11 1 -1
BITMAP
0200
7FC0
8200
0A00
3600
2200
2600
1A00
0400
0C00
1000
ENDCHAR
STARTCHAR 305A
ENCODING 12378
SWIDTH 1040 0
DWIDTH 13 0
BBX 11 12 1 -1
BITMAP
00A0
0240
3FC0
C200
1A00
2600
2200
2600
1A00
0400
0C00
1000
ENDCHAR
STARTCHAR 305B
ENCODING 12379
SWIDTH 1040 0
DWIDTH 13 0
BBX 11 10 1 0
BITMAP
2100
2100
2160
FF80
2100
2100
2700
2000
2000
1FC0
ENDCHAR
STARTCHAR 305C
ENCODING 12380
SWIDTH 1040 0
DWIDTH 13 0
BBX 11 11 1 0
BITMAP
0020
2160
2140
2160
FF80
2100
2100
2600
2000
2000
1F80
ENDCHAR
STARTCHAR 305D
ENCODING 12381
SWIDTH 1040 0
DWIDTH 13 0
BBX 10 10 1 0
BITMAP
3F00
0200
0400
0800
3FC0
C400
0800
0800
0800
0700
ENDCHAR
STARTCHAR 305E
ENCODING 12382
SWIDTH 1040 0
DWIDTH 13 0
BBX 11 10 1 0
BITMAP
3F00
0240
04A0
0800
3FC0
C400
0800
0800
0800
0F00
ENDCHAR
STARTCHAR 305F
ENCODING 12383
SWIDTH 1040 0
DWIDTH 13 0
BBX 10 10 1 0
BITMAP
1000
1000
F800
2000
27C0
2000
2000
4800
4800
87C0
ENDCHAR
STARTCHAR 3060
ENCODING 12384
SWIDTH 1040 0
DWIDTH 13 0
BBX 10 11 1 0
BITMAP
0080
1140
1080
F800
2000
27C0
2000
4000
4800
4800
87C0
ENDCHAR
STARTCHAR 3061
ENCODING 12385
SWIDTH 1040 0
DWIDTH 13 0
BBX 9 10 1 1
BITMAP
1000
1080
FF00
1000
2000
2F00
3080
0080
0080
3F00
ENDCHAR
STARTCHAR 3062
ENCODING 12386
SWIDTH 1040 0
DWIDTH 13 0
BBX 10 11 1 0
BITMAP
0140
10C0
1080
FF00
1000
2000
2F00
7080
0080
0080
3F00
ENDCHAR
STARTCHAR 3063
ENCODING 12387
SWIDTH 1040 0
DWIDTH 13 0
BBX 8 6 2 0
BITMAP
7E
81
01
01
02
1C
ENDCHAR
STARTCHAR 3064
ENCODING 12388
SWIDTH 1040 0
DWIDTH 13 0
BBX 10 8 1 1
BITMAP
1F00
E080
0040
0040
0040
00C0
0180
1E00
ENDCHAR
STARTCHAR 3065
ENCODING 12389
SWIDTH 1040 0
DWIDTH 13 0
BBX 11 10 1 0
BITMAP
0020
0060
1F00
E080
0040
0040
0040
0080
0180
1E00
ENDCHAR
STARTCHAR 3066
ENCODING 12390
SWIDTH 1040 0
DWIDTH 13 0
BBX 10 9 1 0
BITMAP
FFC0
0200
0400
0800
0800
0800
0800
0400
0300
ENDCHAR
STARTCHAR 3067
ENCODING 12391
SWIDTH 1040 0
DWIDTH 13 0
BBX 10 9 1 0
BITMAP
FFC0
0240
04C0
0880
0800
0800
0800
0400
0300
ENDCHAR
STARTCHAR 3068
ENCODING 12392
SWIDTH 1040 0
DWIDTH 13 0
BBX 8 10 2 0
BITMAP
20
20
21
16
38
40
80
80
C0
3F
ENDCHAR
STARTCHAR 3069
ENCODING 12393
SWIDTH 1040 0
DWIDTH 13 0
BBX 9 11 2 0
BITMAP
0100
2280
2100
2100
1700
1800
6000
8000
8000
C000
7F00
ENDCHAR
STARTCHAR 306A
ENCODING 12394
SWIDTH 1040 0
DWIDTH 13 0
BBX 10 11 1 0
BITMAP
1000
1000
1000
F9C0
2000
2100
4100
4F00
9180
1140
0E00
ENDCHAR
STARTCHAR 306B
ENCODING 12395
SWIDTH 1040 0
DWIDTH 13 0
BBX 9 10 2 0
BITMAP
8000
9F80
8000
8000
8000
9000
D000
9000
8F80
8000
ENDCHAR
STARTCHAR 306C
ENCODING 12396
SWIDTH 1040 0
DWIDTH 13 0
BBX 11 10 1 0
BITMAP
4200
4200
3D00
6480
6440
A840
9B40
94C0
6460
03A0
ENDCHAR
STARTCHAR 306D
ENCODING 12397
SWIDTH 1040 0
DWIDTH 13 0
BBX 11 10 1 0
BITMAP
2000
2000
E780
2880
3040
2040
6040
A7C0
24E0
27A0
ENDCHAR
STARTCHAR 306E
ENCODING 12398
SWIDTH 1040 0
DWIDTH 13 0
BBX 10 9 1 0
BITMAP
3F80
44C0
4440
8840
8840
8840
9040
6180
0600
ENDCHAR
STARTCHAR 306F
ENCODING 12399
SWIDTH 1040 0
DWIDTH 13 0
BBX 9 10 2 0
BITMAP
8200
8200
9F80
8200
8200
8200
CE00
9380
A280
9E00
ENDCHAR
STARTCHAR 3070
ENCODING 12400
SWIDTH 1040 0
DWIDTH 13 0
BBX 11 11 1 0
BITMAP
0020
4140
4100
5FC0
8100
8100
8100
A700
D980
5140
4E00
ENDCHAR
STARTCHAR 3071
ENCODING 12401
SWIDTH 1040 0
DWIDTH 13 0
BBX 10 11 2 0
BITMAP
00C0
8340
8280
9F80
8200
8200
8200
CE00
9380
A280
9E00
ENDCHAR
STARTCHAR 3072
ENCODING 12402
SWIDTH 1040 0
DWIDTH 13 0
BBX 10 10 2 0
BITMAP
3000
E200
4300
4300
8280
8240
8200
8200
C400
7800
ENDCHAR
STARTCHAR 3073
ENCODING 12403
SWIDTH 1040 0
DWIDTH 13 0
BBX 11 10 1 1
BITMAP
18A0
F140
2100
2180
4140
4100
4100
4100
6200
3C00
ENDCHAR
STARTCHAR 3074
ENCODING 12404
SWIDTH 1040 0
DWIDTH 13 0
BBX 11 10 1 1
BITMAP
00E0
F160
2100
2180
4140
4100
4100
4100
6200
3C00
ENDCHAR
STARTCHAR 3075
ENCODING 12405
SWIDTH 1040 0
DWIDTH 13 0
BBX 11 10 1 0
BITMAP
1800
0600
0400
0800
0800
4480
4240
4240
8220
1E00
ENDCHAR
STARTCHAR 3076
ENCODING 12406
SWIDTH 1040 0
DWIDTH 13 0
BBX 11 10 1 0
BITMAP
1800
0640
04A0
0840
0800
4480
4240
4240
8220
1C00
ENDCHAR
STARTCHAR 3077
ENCODING 12407
SWIDTH 1040 0
DWIDTH 13 0
BBX 11 10 1 0
BITMAP
1800
06C0
04C0
0840
0800
4480
4640
4240
8220
1C00
ENDCHAR
STARTCHAR 3078
ENCODING 12408
SWIDTH 1040 0
DWIDTH 13 0
BBX 11 7 1 1
BITMAP
1800
2400
4200
C300
8180
0040
0020
ENDCHAR
STARTCHAR 3079
ENCODING 12409
SWIDTH 1040 0
DWIDTH 13 0
BBX 11 8 1 1
BITMAP
0080
18C0
2480
4600
C300
8180
00C0
0020
ENDCHAR
STARTCHAR 307A
ENCODING 12410
SWIDTH 1040 0
DWIDTH 13 0
BBX 11 9 1 1
BITMAP
0080
0140
1940
2480
4600
C300
8180
00C0
0020
ENDCHAR
STARTCHAR 307B
ENCODING 12411
SWIDTH 1040 0
DWIDTH 13 0
BBX 9 10 2 0
BITMAP
8000
9F80
8200
9F80
8200
8200
CE00
9380
A280
9E00
ENDCHAR
STARTCHAR 307C
ENCODING 12412
SWIDTH 1040 0
DWIDTH 13 0
BBX 11 11 1 0
BITMAP
0020
4060
5F80
4100
8100
9FC0
8100
A700
D980
5140
4E00
ENDCHAR
STARTCHAR 307D
ENCODING 12413
SWIDTH 1040 0
DWIDTH 13 0
BBX 11 10 1 1
BITMAP
40E0
4FE0
4100
9FC0
8100
8100
A700
D980
5140
4E00
ENDCHAR
STARTCHAR 307E
ENCODING 12414
SWIDTH 1040 0
DWIDTH 13 0
BBX 9 10 2 0
BITMAP
0800
FF80
0800
0800
FF00
0800
7800
8E00
8980
7000
ENDCHAR
STARTCHAR 307F
ENCODING 12415
SWIDTH 1040 0
DWIDTH 13 0
BBX 11 11 1 -1
BITMAP
7C00
0400
0880
0880
1880
7780
90C0
9120
A100
6200
0400
ENDCHAR
STARTCHAR 3080
ENCODING 12416
SWIDTH 1040 0
DWIDTH 13 0
BBX 10 10 1 0
BITMAP
1000
FD80
2040
2040
D000
9000
9080
6080
2080
3F00
ENDCHAR
STARTCHAR 3081
ENCODING 12417
SWIDTH 1040 0
DWIDTH 13 0
BBX 10 10 1 0
BITMAP
2200
2200
3F00
22C0
6440
9440
9840
9040
6180
0600
ENDCHAR
STARTCHAR 3082
ENCODING 12418
SWIDTH 1040 0
DWIDTH 13 0
BBX 9 10 2 0
BITMAP
2000
2000
FC00
2000
2000
FD00
2080
2080
2100
1E00
ENDCHAR
STARTCHAR 3083
ENCODING 12419
SWIDTH 1040 0
DWIDTH 13 0
BBX 8 9 2 -1
BITMAP
48
46
79
A1
21
26
10
10
10
ENDCHAR
STARTCHAR 3084
ENCODING 12420
SWIDTH 1040 0
DWIDTH 13 0
BBX 10 12 1 -1
BITMAP
0200
2200
2380
3C40
D040
1040
1440
1380
1000
0800
0800
0800
ENDCHAR
STARTCHAR 3085
ENCODING 12421
SWIDTH 1040 0
DWIDTH 13 0
BBX 8 8 2 -1
BITMAP
08
8E
B9
C9
C9
A9
9E
10
ENDCHAR
STARTCHAR 3086
ENCODING 12422
SWIDTH 1040 0
DWIDTH 13 0
BBX 10 11 1 -1
BITMAP
0200
4200
5F80
B240
A240
C240
D440
9C80
0700
0800
1000
ENDCHAR
STARTCHAR 3087
ENCODING 12423
SWIDTH 1040 0
DWIDTH 13 0
BBX 7 9 3 -1
BITMAP
10
10
1E
10
10
70
98
96
E0
ENDCHAR
STARTCHAR 3088
ENCODING 12424
SWIDTH 1040 0
DWIDTH 13 0
BBX 8 11 2 0
BITMAP
08
08
08
0F
08
08
08
78
8E
89
F0
ENDCHAR
STARTCHAR 3089
ENCODING 12425
SWIDTH 1040 0
DWIDTH 13 0
BBX 9 10 2 0
BITMAP
3000
0C00
4000
4000
9E00
E100
8080
0100
0100
7E00
ENDCHAR
STARTCHAR 308A
ENCODING 12426
SWIDTH 1040 0
DWIDTH 13 0
BBX 7 11 3 0
BITMAP
80
98
A4
C2
82
82
82
84
04
08
70
ENDCHAR
STARTCHAR 308B
ENCODING 12427
SWIDTH 1040 0
DWIDTH 13 0
BBX 10 10 1 0
BITMAP
3F00
0200
0400
0800
1700
3880
C040
1C40
2280
1F00
ENDCHAR
STARTCHAR 308C
ENCODING 12428
SWIDTH 1040 0
DWIDTH 13 0
BBX 11 11 1 -1
BITMAP
2000
2000
E300
2C80
3080
2100
6100
A120
2120
20C0
2000
ENDCHAR
STARTCHAR 308D
ENCODING 12429
SWIDTH 1040 0
DWIDTH 13 0
BBX 9 10 2 0
BITMAP
7E00
0400
0800
1000
2E00
7100
8080
0080
0100
3E00
ENDCHAR
STARTCHAR 308E
ENCODING 12430
SWIDTH 1040 0
DWIDTH 13 0
BBX 8 9 2 -1
BITMAP
20
20
6E
31
61
A1
21
2E
20
ENDCHAR
STARTCHAR 308F
ENCODING 12431
SWIDTH 1040 0
DWIDTH 13 0
BBX 10 11 1 -1
BITMAP
2000
2000
E700
28C0
3040
2040
6040
A040
20C0
2700
2000
ENDCHAR
STARTCHAR 3090
ENCODING 12432
SWIDTH 1040 0
DWIDTH 13 0
BBX 10 10 1 0
BITMAP
3E00
0400
0400
1F00
2880
4840
9040
9740
94C0
6780
ENDCHAR
STARTCHAR 3091
ENCODING 12433
SWIDTH 1040 0
DWIDTH 13 0
BBX 10 10 1 -1
BITMAP
3E00
0400
1E00
3980
4880
3480
1F00
1000
3B80
C440
ENDCHAR
STARTCHAR 3092
ENCODING 12434
SWIDTH 1040 0
DWIDTH 13 0
BBX 8 11 2 0
BITMAP
10
10
FF
20
58
EB
8C
34
24
20
3F
ENDCHAR
STARTCHAR 3093
ENCODING 12435
SWIDTH 1040 0
DWIDTH 13 0
BBX 10 10 1 1
BITMAP
1000
1000
1000
2000
2C00
7400
4440
4440
4440
8380
ENDCHAR
STARTCHAR 3094
ENCODING 12436
SWIDTH 1040 0
DWIDTH 13 0
BBX 10 10 2 0
BITMAP
7E00
0140
0080
7E00
8100
0100
0100
0200
0600
3800
ENDCHAR
STARTCHAR 3095
ENCODING 12437
SWIDTH 1040 0
DWIDTH 13 0
BBX 9 9 2 -1
BITMAP
2000
2000
FA00
2500
4480
4480
4800
8800
9800
ENDCHAR
STARTCHAR 3096
ENCODING 12438
SWIDTH 1040 0
DWIDTH 13 0
BBX 8 8 2 -1
BITMAP
44
42
9F
82
82
C4
44
4C
ENDCHAR
STARTCHAR 309B
ENCODING 12443
SWIDTH 1040 0
DWIDTH 13 0
BBX 3 2 0 9
BITMAP
A0
60
ENDCHAR
STARTCHAR 309C
ENCODING 12444
SWIDTH 1040 0
DWIDTH 13 0
BBX 2 2 0 9
BITMAP
C0
C0
ENDCHAR
STARTCHAR 309D
ENCODING 12445
SWIDTH 1040 0
DWIDTH 13 0
BBX 5 7 4 1
BITMAP
80
C0
60
30
10
08
30
ENDCHAR
STARTCHAR 309E
ENCODING 12446
SWIDTH 1040 0
DWIDTH 13 0
BBX 6 8 4 2
BITMAP
14
8C
40
20
10
10
10
60
ENDCHAR
STARTCHAR 30A1
ENCODING 12449
SWIDTH 1040 0
DWIDTH 13 0
BBX 7 8 3 0
BITMAP
FE
02
04
28
20
20
40
C0
ENDCHAR
STARTCHAR 30A2
ENCODING 12450
SWIDTH 1040 0
DWIDTH 13 0
BBX 10 10 1 0
BITMAP
7FC0
0040
0880
0980
0A00
0800
0800
1800
3000
E000
ENDCHAR
STARTCHAR 30A3
ENCODING 12451
SWIDTH 1040 0
DWIDTH 13 0
BBX 8 9 2 -1
BITMAP
01
02
0C
18
E8
08
08
08
08
ENDCHAR
STARTCHAR 30A4
ENCODING 12452
SWIDTH 1040 0
DWIDTH 13 0
BBX 9 10 1 0
BITMAP
0080
0100
0200
0C00
1400
E400
0400
0400
0400
0400
ENDCHAR
STARTCHAR 30A5
ENCODING 12453
SWIDTH 1040 0
DWIDTH 13 0
BBX 7 8 3 0
BITMAP
10
FE
82
82
04
04
08
30
ENDCHAR
STARTCHAR 30A6
ENCODING 12454
SWIDTH 1040 0
DWIDTH 13 0
BBX 9 10 2 0
BITMAP
0800
0800
FF80
8080
8100
8100
0100
0200
0C00
3800
ENDCHAR
STARTCHAR 30A7
ENCODING 12455
SWIDTH 1040 0
DWIDTH 13 0
BBX 8 6 2 0
BITMAP
7F
08
08
08
08
FF
ENDCHAR
STARTCHAR 30A8
ENCODING 12456
SWIDTH 1040 0
DWIDTH 13 0
BBX 10 8 1 1
BITMAP
7F80
0400
0400
0400
0400
0400
0400
FFC0
ENDCHAR
STARTCHAR 30A9
ENCODING 12457
SWIDTH 1040 0
DWIDTH 13 0
BBX 8 9 2 -1
BITMAP
04
04
FF
0C
14
24
44
84
04
ENDCHAR
STARTCHAR 30AA
ENCODING 12458
SWIDTH 1040 0
DWIDTH 13 0
BBX 10 10 1 0
BITMAP
0200
0200
FFC0
0600
0600
0A00
1200
6200
8200
0200
ENDCHAR
STARTCHAR 30AB
ENCODING 12459
SWIDTH 1040 0
DWIDTH 13 0
BBX 10 11 1 0
BITMAP
0800
0800
0800
7FC0
0840
0880
0880
1080
1080
2080
C380
ENDCHAR
STARTCHAR 30AC
ENCODING 12460
SWIDTH 1040 0
DWIDTH 13 0
BBX 11 11 1 0
BITMAP
00C0
08A0
0800
7FC0
0880
0880
0880
1080
1080
2080
C380
ENDCHAR
STARTCHAR 30AD
ENCODING 12461
SWIDTH 1040 0
DWIDTH 13 0
BBX 10 10 1 0
BITMAP
0800
0880
3F00
4800
0400
07C0
FC00
0400
0400
0400
ENDCHAR
STARTCHAR 30AE
ENCODING 12462
SWIDTH 1040 0
DWIDTH 13 0
BBX 10 12 1 -1
BITMAP
0140
0880
0800
1F80
6800
0400
07C0
FC00
0400
0400
0400
0200
ENDCHAR
STARTCHAR 30AF
ENCODING 12463
SWIDTH 1040 0
DWIDTH 13 0
BBX 8 11 2 0
BITMAP
10
10
3F
21
41
82
02
04
08
10
60
ENDCHAR
STARTCHAR 30B0
ENCODING 12464
SWIDTH 1040 0
DWIDTH 13 0
BBX 10 11 2 -1
BITMAP
0040
10C0
3F80
6100
4200
8200
0600
0400
0800
1000
6000
ENDCHAR
STARTCHAR 30B1
ENCODING 12465
SWIDTH 1040 0
DWIDTH 13 0
BBX 10 10 1 0
BITMAP
1000
2000
3FC0
4200
C200
8200
0400
0400
0800
3000
ENDCHAR
STARTCHAR 30B2
ENCODING 12466
SWIDTH 1040 0
DWIDTH 13 0
BBX 11 11 1 0
BITMAP
00C0
10A0
2000
3FC0
4200
C200
8200
0400
0400
0800
3000
ENDCHAR
STARTCHAR 30B3
ENCODING 12467
SWIDTH 1040 0
DWIDTH 13 0
BBX 8 9 2 0
BITMAP
FF
01
01
01
01
01
01
FF
01
ENDCHAR
STARTCHAR 30B4
ENCODING 12468
SWIDTH 1040 0
DWIDTH 13 0
BBX 10 11 2 0
BITMAP
0040
0080
FF00
0100
0100
0100
0100
0100
0100
FF00
0100
ENDCHAR
STARTCHAR 30B5
ENCODING 12469
SWIDTH 1040 0
DWIDTH 13 0
BBX 11 10 1 0
BITMAP
2100
2100
FFE0
2100
2100
2100
0100
0200
0600
1C00
ENDCHAR
STARTCHAR 30B6
ENCODING 12470
SWIDTH 1040 0
DWIDTH 13 0
BBX 11 11 1 0
BITMAP
0020
2160
2140
FFC0
2100
2100
2100
0100
0200
0600
0C00
ENDCHAR
STARTCHAR 30B7
ENCODING 12471
SWIDTH 1040 0
DWIDTH 13 0
BBX 9 10 2 0
BITMAP
4000
3000
0000
8080
6080
0100
0200
0400
3800
C000
ENDCHAR
STARTCHAR 30B8
ENCODING 12472
SWIDTH 1040 0
DWIDTH 13 0
BBX 10 11 2 0
BITMAP
0040
40C0
3080
0080
8080
6080
0100
0200
0400
1800
E000
ENDCHAR
STARTCHAR 30B9
ENCODING 12473
SWIDTH 1040 0
DWIDTH 13 0
BBX 10 9 1 0
BITMAP
7F00
0100
0200
0200
0400
0A00
1180
60C0
8040
ENDCHAR
STARTCHAR 30BA
ENCODING 12474
SWIDTH 1040 0
DWIDTH 13 0
BBX 11 11 1 0
BITMAP
00A0
0060
7F00
0100
0200
0200
0400
0A00
1100
6080
C040
ENDCHAR
STARTCHAR 30BB
ENCODING 12475
SWIDTH 1040 0
DWIDTH 13 0
BBX 10 10 1 0
BITMAP
1000
1000
11C0
FE40
1080
1100
1000
1000
1000
0FC0
ENDCHAR
STARTCHAR 30BC
ENCODING 12476
SWIDTH 1040 0
DWIDTH 13 0
BBX 11 11 1 0
BITMAP
0040
10A0
1000
10C0
FF40
1080
1100
1200
1000
1000
1F80
ENDCHAR
STARTCHAR 30BD
ENCODING 12477
SWIDTH 1040 0
DWIDTH 13 0
BBX 8 10 2 0
BITMAP
01
81
41
41
42
02
04
0C
18
30
ENDCHAR
STARTCHAR 30BE
ENCODING 12478
SWIDTH 1040 0
DWIDTH 13 0
BBX 10 11 2 0
BITMAP
0180
0140
8000
4100
4100
4200
0200
0400
0C00
1800
3000
ENDCHAR
STARTCHAR 30BF
ENCODING 12479
SWIDTH 1040 0
DWIDTH 13 0
BBX 9 11 2 -1
BITMAP
1000
1000
3F80
2100
4100
9200
0E00
0400
0800
1000
6000
ENDCHAR
STARTCHAR 30C0
ENCODING 12480
SWIDTH 1040 0
DWIDTH 13 0
BBX 11 12 1 -1
BITMAP
0820
1040
1F80
2080
4100
D900
0600
0200
0400
1800
3000
4000
ENDCHAR
STARTCHAR 30C1
ENCODING 12481
SWIDTH 1040 0
DWIDTH 13 0
BBX 10 10 1 0
BITMAP
0380
7C00
0400
0400
FFC0
0400
0400
0800
1800
3000
ENDCHAR
STARTCHAR 30C2
ENCODING 12482
SWIDTH 1040 0
DWIDTH 13 0
BBX 11 10 1 0
BITMAP
0380
7CA0
0460
0400
FFC0
0400
0400
0800
1800
3000
ENDCHAR
STARTCHAR 30C3
ENCODING 12483
SWIDTH 1040 0
DWIDTH 13 0
BBX 8 8 2 0
BITMAP
10
91
49
42
02
04
08
10
ENDCHAR
STARTCHAR 30C4
ENCODING 12484
SWIDTH 1040 0
DWIDTH 13 0
BBX 9 9 2 1
BITMAP
9080
9080
8900
4100
0200
0200
0400
0800
3000
ENDCHAR
STARTCHAR 30C5
ENCODING 12485
SWIDTH 1040 0
DWIDTH 13 0
BBX 11 11 1 0
BITMAP
00A0
0060
8800
4880
4480
2080
0100
0100
0200
0400
1800
ENDCHAR
STARTCHAR 30C6
ENCODING 12486
SWIDTH 1040 0
DWIDTH 13 0
BBX 10 10 1 0
BITMAP
7F80
0000
0000
FFC0
0400
0400
0400
0800
1800
6000
ENDCHAR
STARTCHAR 30C7
ENCODING 12487
SWIDTH 1040 0
DWIDTH 13 0
BBX 11 10 1 0
BITMAP
7F20
0060
0040
FFC0
0400
0400
0400
0800
1800
6000
ENDCHAR
STARTCHAR 30C8
ENCODING 12488
SWIDTH 1040 0
DWIDTH 13 0
BBX 6 10 4 0
BITMAP
80
80
80
80
E0
98
84
80
80
80
ENDCHAR
STARTCHAR 30C9
ENCODING 12489
SWIDTH 1040 0
DWIDTH 13 0
BBX 7 10 4 0
BITMAP
84
8A
80
80
E0
98
84
80
80
80
ENDCHAR
STARTCHAR 30CA
ENCODING 12490
SWIDTH 1040 0
DWIDTH 13 0
BBX 10 10 1 0
BITMAP
0400
0400
0400
FFC0
0400
0400
0400
0800
1000
6000
ENDCHAR
STARTCHAR 30CB
ENCODING 12491
SWIDTH 1040 0
DWIDTH 13 0
BBX 10 8 1 1
BITMAP
7F80
0000
0000
0000
0000
0000
0000
FFC0
ENDCHAR
STARTCHAR 30CC
ENCODING 12492
SWIDTH 1040 0
DWIDTH 13 0
BBX 8 10 2 0
BITMAP
FF
01
02
22
14
0C
0E
13
60
80
ENDCHAR
STARTCHAR 30CD
ENCODING 12493
SWIDTH 1040 0
DWIDTH 13 0
BBX 10 12 1 -1
BITMAP
0400
0400
7F80
0080
0100
0600
1E00
6580
8440
0400
0400
0400
ENDCHAR
STARTCHAR 30CE
ENCODING 12494
SWIDTH 1040 0
DWIDTH 13 0
BBX 8 10 2 0
BITMAP
01
01
02
02
04
0C
18
30
60
80
ENDCHAR
STARTCHAR 30CF
ENCODING 12495
SWIDTH 1040 0
DWIDTH 13 0
BBX 10 9 1 1
BITMAP
1100
1100
2100
2100
2080
6080
4040
8040
8000
ENDCHAR
STARTCHAR 30D0
ENCODING 12496
SWIDTH 1040 0
DWIDTH 13 0
BBX 11 10 1 0
BITMAP
00C0
12A0
1100
2100
2100
2100
4080
4080
8040
8000
ENDCHAR
STARTCHAR 30D1
ENCODING 12497
SWIDTH 1040 0
DWIDTH 13 0
BBX 11 10 1 0
BITMAP
00E0
12A0
1140
2100
2100
2100
4080
40C0
8040
8000
ENDCHAR
STARTCHAR 30D2
ENCODING 12498
SWIDTH 1040 0
DWIDTH 13 0
BBX 7 10 3 0
BITMAP
80
80
86
98
E0
80
80
80
80
FE
ENDCHAR
STARTCHAR 30D3
ENCODING 12499
SWIDTH 1040 0
DWIDTH 13 0
BBX 10 11 2 0
BITMAP
0180
0140
8000
8300
8C00
7000
8000
8000
8000
4000
7F00
ENDCHAR
STARTCHAR 30D4
ENCODING 12500
SWIDTH 1040 0
DWIDTH 13 0
BBX 9 11 3 0
BITMAP
0180
8280
8180
8200
9C00
E000
8000
8000
8000
8000
FE00
ENDCHAR
STARTCHAR 30D5
ENCODING 12501
SWIDTH 1040 0
DWIDTH 13 0
BBX 9 9 2 0
BITMAP
FF80
0100
0100
0100
0200
0600
0C00
1800
6000
ENDCHAR
STARTCHAR 30D6
ENCODING 12502
SWIDTH 1040 0
DWIDTH 13 0
BBX 10 11 2 -1
BITMAP
0140
0080
FF00
0100
0100
0100
0200
0600
0C00
1800
6000
ENDCHAR
STARTCHAR 30D7
ENCODING 12503
SWIDTH 1040 0
DWIDTH 13 0
BBX 10 10 2 1
BITMAP
01C0
FFC0
0100
0100
0100
0200
0400
0C00
1000
6000
ENDCHAR
STARTCHAR 30D8
ENCODING 12504
SWIDTH 1040 0
DWIDTH 13 0
BBX 11 7 1 1
BITMAP
1800
2400
4200
C300
8180
0040
0020
ENDCHAR
STARTCHAR 30D9
ENCODING 12505
SWIDTH 1040 0
DWIDTH 13 0
BBX 11 8 1 2
BITMAP
0140
18C0
2400
4600
C300
8180
0040
0020
ENDCHAR
STARTCHAR 30DA
ENCODING 12506
SWIDTH 1040 0
DWIDTH 13 0
BBX 11 9 1 1
BITMAP
0080
0140
1940
2480
4200
C300
8180
00C0
0020
ENDCHAR
STARTCHAR 30DB
ENCODING 12507
SWIDTH 1040 0
DWIDTH 13 0
BBX 10 10 1 0
BITMAP
0400
0400
FFC0
0400
2500
2480
4480
4440
8440
0400
ENDCHAR
STARTCHAR 30DC
ENCODING 12508
SWIDTH 1040 0
DWIDTH 13 0
BBX 11 12 1 -1
BITMAP
00C0
04A0
0400
FFC0
0400
2500
2480
4480
4440
8440
0400
0400
ENDCHAR
STARTCHAR 30DD
ENCODING 12509
SWIDTH 1040 0
DWIDTH 13 0
BBX 11 12 1 -1
BITMAP
00E0
04E0
0400
FFC0
0400
2500
2480
4480
4440
8440
0400
0400
ENDCHAR
STARTCHAR 30DE
ENCODING 12510
SWIDTH 1040 0
DWIDTH 13 0
BBX 10 9 1 0
BITMAP
FFC0
00C0
0080
2100
1200
0C00
0400
0200
0200
ENDCHAR
STARTCHAR 30DF
ENCODING 12511
SWIDTH 1040 0
DWIDTH 13 0
BBX 8 10 2 0
BITMAP
78
07
00
40
3C
02
00
E0
1C
03
ENDCHAR
STARTCHAR 30E0
ENCODING 12512
SWIDTH 1040 0
DWIDTH 13 0
BBX 10 10 1 0
BITMAP
0800
0800
1000
1000
1100
1100
2080
2080
7F40
8040
ENDCHAR
STARTCHAR 30E1
ENCODING 12513
SWIDTH 1040 0
DWIDTH 13 0
BBX 9 10 1 0
BITMAP
0180
0100
2100
1A00
0600
0600
0900
1080
2000
C000
ENDCHAR
STARTCHAR 30E2
ENCODING 12514
SWIDTH 1040 0
DWIDTH 13 0
BBX 10 10 1 0
BITMAP
7FC0
0800
0800
0800
FFC0
0800
0800
0800
0800
07C0
ENDCHAR
STARTCHAR 30E3
ENCODING 12515
SWIDTH 1040 0
DWIDTH 13 0
BBX 8 9 2 -1
BITMAP
20
27
F9
22
14
10
10
10
10
ENDCHAR
STARTCHAR 30E4
ENCODING 12516
SWIDTH 1040 0
DWIDTH 13 0
BBX 10 10 1 0
BITMAP
1000
11C0
7E40
9080
1080
1100
0800
0800
0800
0800
ENDCHAR
STARTCHAR 30E5
ENCODING 12517
SWIDTH 1040 0
DWIDTH 13 0
BBX 8 6 2 0
BITMAP
7E
04
04
04
04
FF
ENDCHAR
STARTCHAR 30E6
ENCODING 12518
SWIDTH 1040 0
DWIDTH 13 0
BBX 10 8 1 1
BITMAP
7F00
0100
0100
0100
0100
0200
0200
FFC0
ENDCHAR
STARTCHAR 30E7
ENCODING 12519
SWIDTH 1040 0
DWIDTH 13 0
BBX 6 7 3 -1
BITMAP
FC
04
04
FC
04
04
FC
ENDCHAR
STARTCHAR 30E8
ENCODING 12520
SWIDTH 1040 0
DWIDTH 13 0
BBX 8 10 2 0
BITMAP
FF
01
01
01
FF
01
01
01
FF
01
ENDCHAR
STARTCHAR 30E9
ENCODING 12521
SWIDTH 1040 0
DWIDTH 13 0
BBX 9 10 2 0
BITMAP
7F00
0000
0000
FF80
0180
0100
0300
0200
0C00
3000
ENDCHAR
STARTCHAR 30EA
ENCODING 12522
SWIDTH 1040 0
DWIDTH 13 0
BBX 6 10 3 0
BITMAP
84
84
84
84
84
84
04
04
18
70
ENDCHAR
STARTCHAR 30EB
ENCODING 12523
SWIDTH 1040 0
DWIDTH 13 0
BBX 11 10 1 0
BITMAP
2400
2400
2400
2400
2400
2420
2440
4440
4580
8600
ENDCHAR
STARTCHAR 30EC
ENCODING 12524
SWIDTH 1040 0
DWIDTH 13 0
BBX 8 10 3 0
BITMAP
80
80
80
80
80
81
82
84
98
E0
ENDCHAR
STARTCHAR 30ED
ENCODING 12525
SWIDTH 1040 0
DWIDTH 13 0
BBX 9 9 2 0
BITMAP
FF80
8080
8080
8080
8080
8080
8080
FF80
8080
ENDCHAR
STARTCHAR 30EE
ENCODING 12526
SWIDTH 1040 0
DWIDTH 13 0
BBX 7 7 3 0
BITMAP
FE
82
84
04
04
08
30
ENDCHAR
STARTCHAR 30EF
ENCODING 12527
SWIDTH 1040 0
DWIDTH 13 0
BBX 9 9 2 0
BITMAP
FF80
8080
8100
8100
0100
0200
0600
0C00
3000
ENDCHAR
STARTCHAR 30F0
ENCODING 12528
SWIDTH 1040 0
DWIDTH 13 0
BBX 10 11 1 -1
BITMAP
0100
0100
7FC0
1100
1100
1100
FFC0
0100
0100
0100
0100
ENDCHAR
STARTCHAR 30F1
ENCODING 12529
SWIDTH 1040 0
DWIDTH 13 0
BBX 11 8 1 1
BITMAP
7FC0
0080
0480
0700
0400
0400
0400
FFE0
ENDCHAR
STARTCHAR 30F2
ENCODING 12530
SWIDTH 1040 0
DWIDTH 13 0
BBX 8 10 2 0
BITMAP
FF
01
01
01
7F
02
06
0C
18
20
ENDCHAR
STARTCHAR 30F3
ENCODING 12531
SWIDTH 1040 0
DWIDTH 13 0
BBX 9 9 2 0
BITMAP
C000
6080
2080
0100
0300
0600
0C00
3000
C000
ENDCHAR
STARTCHAR 30F4
ENCODING 12532
SWIDTH 1040 0
DWIDTH 13 0
BBX 10 11 2 0
BITMAP
0140
08C0
0800
FF80
8080
8100
8100
0100
0200
0C00
3800
ENDCHAR
STARTCHAR 30F5
ENCODING 12533
SWIDTH 1040 0
DWIDTH 13 0
BBX 8 8 2 0
BITMAP
10
10
FF
11
12
22
62
CE
ENDCHAR
STARTCHAR 30F6
ENCODING 12534
SWIDTH 1040 0
DWIDTH 13 0
BBX 8 8 2 -1
BITMAP
20
20
7F
44
88
08
18
30
ENDCHAR
STARTCHAR 30F7
ENCODING 12535
SWIDTH 1040 0
DWIDTH 13 0
BBX 11 11 1 0
BITMAP
0020
0060
FF80
8080
8080
8080
0100
0100
0200
0400
1800
ENDCHAR
STARTCHAR 30F8
ENCODING 12536
SWIDTH 1040 0
DWIDTH 13 0
BBX 11 12 1 -1
BITMAP
00A0
0260
0200
7FC0
2200
2200
2200
FFC0
0200
0200
0200
0200
ENDCHAR
STARTCHAR 30F9
ENCODING 12537
SWIDTH 1040 0
DWIDTH 13 0
BBX 11 10 1 1
BITMAP
0020
0040
7F80
0080
0880
0B00
0800
0800
0800
FFC0
ENDCHAR
STARTCHAR 30FA
ENCODING 12538
SWIDTH 1040 0
DWIDTH 13 0
BBX 10 11 2 -1
BITMAP
0140
0080
FF00
0100
0100
FE00
0200
0600
0400
0800
3000
ENDCHAR
STARTCHAR 30FB
ENCODING 12539
SWIDTH 1040 0
DWIDTH 13 0
BBX 2 2 5 4
BITMAP
C0
C0
ENDCHAR
STARTCHAR 30FC
ENCODING 12540
SWIDTH 1040 0
DWIDTH 13 0
BBX 10 1 1 5
BITMAP
FFC0
ENDCHAR
STARTCHAR 30FD
ENCODING 12541
SWIDTH 1040 0
DWIDTH 13 0
BBX 5 6 4 2
BITMAP
80
40
20
30
10
08
ENDCHAR
STARTCHAR 30FE
ENCODING 12542
SWIDTH 1040 0
DWIDTH 13 0
BBX 7 7 3 1
BITMAP
04
8A
40
20
10
08
08
ENDCHAR
STARTCHAR 3105
ENCODING 12549
SWIDTH 1040 0
DWIDTH 13 0
BBX 9 10 2 0
BITMAP
4000
8000
FF80
0080
0080
0100
0100
0100
0100
0F00
ENDCHAR
STARTCHAR 3106
ENCODING 12550
SWIDTH 1040 0
DWIDTH 13 0
BBX 9 10 2 0
BITMAP
2000
4000
7F00
0100
4200
3600
1C00
0C00
3300
C180
ENDCHAR
STARTCHAR 3107
ENCODING 12551
SWIDTH 1040 0
DWIDTH 13 0
BBX 8 10 2 0
BITMAP
FF
81
81
81
81
81
81
81
81
81
ENDCHAR
STARTCHAR 3108
ENCODING 12552
SWIDTH 1040 0
DWIDTH 13 0
BBX 9 10 2 0
BITMAP
FF80
4000
4000
4000
4000
4000
4000
4000
4000
3F80
ENDCHAR
STARTCHAR 3109
ENCODING 12553
SWIDTH 1040 0
DWIDTH 13 0
BBX 10 10 1 0
BITMAP
2000
4000
7FC0
0840
0840
0840
1080
1080
2080
C380
ENDCHAR
STARTCHAR 310A
ENCODING 12554
SWIDTH 1040 0
DWIDTH 13 0
BBX 10 10 1 0
BITMAP
0400
0800
FFC0
0800
1000
1300
2100
2080
4080
FF40
ENDCHAR
STARTCHAR 310B
ENCODING 12555
SWIDTH 1040 0
DWIDTH 13 0
BBX 10 10 1 0
BITMAP
FF00
0200
0200
0200
07C0
0040
0040
0080
0080
0380
ENDCHAR
STARTCHAR 310C
ENCODING 12556
SWIDTH 1040 0
DWIDTH 13 0
BBX 10 10 1 0
BITMAP
2400
4400
7FC0
0440
0840
0840
0880
1080
2080
C380
ENDCHAR
STARTCHAR 310D
ENCODING 12557
SWIDTH 1040 0
DWIDTH 13 0
BBX 7 10 3 -1
BITMAP
62
44
44
88
88
88
88
44
42
22
ENDCHAR
STARTCHAR 310E
ENCODING 12558
SWIDTH 1040 0
DWIDTH 13 0
BBX 10 10 1 0
BITMAP
FFC0
1000
1000
1000
3F80
0100
0100
0100
0100
0E00
ENDCHAR
STARTCHAR 310F
ENCODING 12559
SWIDTH 1040 0
DWIDTH 13 0
BBX 10 10 1 0
BITMAP
7FC0
4000
4000
4000
4000
4000
4000
4000
8000
8000
ENDCHAR
STARTCHAR 3110
ENCODING 12560
SWIDTH 1040 0
DWIDTH 13 0
BBX 6 10 3 0
BITMAP
04
84
84
84
84
84
BC
C4
04
04
ENDCHAR
STARTCHAR 3111
ENCODING 12561
SWIDTH 1040 0
DWIDTH 13 0
BBX 5 10 4 0
BITMAP
10
30
20
40
80
80
40
20
10
08
ENDCHAR
STARTCHAR 3112
ENCODING 12562
SWIDTH 1040 0
DWIDTH 13 0
BBX 10 10 1 0
BITMAP
FFC0
0400
0400
0400
0400
0400
0400
0400
0400
0400
ENDCHAR
STARTCHAR 3113
ENCODING 12563
SWIDTH 1040 0
DWIDTH 13 0
BBX 10 10 1 0
BITMAP
0400
4480
4480
4480
4480
4480
7F80
0400
0400
FFC0
ENDCHAR
STARTCHAR 3114
ENCODING 12564
SWIDTH 1040 0
DWIDTH 13 0
BBX 8 10 2 0
BITMAP
04
19
31
C6
0C
38
C8
08
08
08
ENDCHAR
STARTCHAR 3115
ENCODING 12565
SWIDTH 1040 0
DWIDTH 13 0
BBX 10 10 1 0
BITMAP
7FC0
0040
0040
7FC0
4000
4000
4000
4000
4000
8000
ENDCHAR
STARTCHAR 3116
ENCODING 12566
SWIDTH 1040 0
DWIDTH 13 0
BBX 8 10 2 0
BITMAP
FF
81
81
91
89
85
81
81
FF
81
ENDCHAR
STARTCHAR 3117
ENCODING 12567
SWIDTH 1040 0
DWIDTH 13 0
BBX 9 10 2 0
BITMAP
FF80
1080
1080
1080
1100
1100
1700
1000
1000
1000
ENDCHAR
STARTCHAR 3118
ENCODING 12568
SWIDTH 1040 0
DWIDTH 13 0
BBX 10 10 1 -1
BITMAP
0800
0800
FFC0
1000
1000
1F80
0080
0100
0100
0300
ENDCHAR
STARTCHAR 3119
ENCODING 12569
SWIDTH 1040 0
DWIDTH 13 0
BBX 10 10 1 0
BITMAP
0400
0800
0800
0800
1000
1100
2100
2080
4080
FF40
ENDCHAR
STARTCHAR 311A
ENCODING 12570
SWIDTH 1040 0
DWIDTH 13 0
BBX 9 10 2 0
BITMAP
C180
6300
3400
1800
0800
0800
0800
0800
0800
0800
ENDCHAR
STARTCHAR 311B
ENCODING 12571
SWIDTH 1040 0
DWIDTH 13 0
BBX 10 9 1 0
BITMAP
FFC0
0400
0400
1C00
2400
4000
4000
2180
1E00
ENDCHAR
STARTCHAR 311C
ENCODING 12572
SWIDTH 1040 0
DWIDTH 13 0
BBX 10 10 1 0
BITMAP
0400
0400
FFC0
0400
1C00
2400
4000
4000
2080
1F00
ENDCHAR
STARTCHAR 311D
ENCODING 12573
SWIDTH 1040 0
DWIDTH 13 0
BBX 10 10 1 0
BITMAP
1100
1100
1100
FFC0
1100
1100
1100
1200
1000
1F80
ENDCHAR
STARTCHAR 311E
ENCODING 12574
SWIDTH 1040 0
DWIDTH 13 0
BBX 10 10 1 -1
BITMAP
FFC0
0400
2400
4400
4400
FFC0
0840
0880
1080
6100
ENDCHAR
STARTCHAR 311F
ENCODING 12575
SWIDTH 1040 0
DWIDTH 13 0
BBX 9 10 2 0
BITMAP
1000
F000
0800
0800
0800
0400
0400
0200
0300
0180
ENDCHAR
STARTCHAR 3120
ENCODING 12576
SWIDTH 1040 0
DWIDTH 13 0
BBX 9 10 2 0
BITMAP
1000
2000
2200
4600
BC00
4800
1300
2100
4080
FF80
ENDCHAR
STARTCHAR 3121
ENCODING 12577
SWIDTH 1040 0
DWIDTH 13 0
BBX 10 10 1 0
BITMAP
7F80
0080
0100
2100
1A00
0600
0600
0900
3080
C040
ENDCHAR
STARTCHAR 3122
ENCODING 12578
SWIDTH 1040 0
DWIDTH 13 0
BBX 10 10 1 -1
BITMAP
FF80
0080
2080
4100
4100
FFC0
0040
0080
0080
0100
ENDCHAR
STARTCHAR 3123
ENCODING 12579
SWIDTH 1040 0
DWIDTH 13 0
BBX 9 10 2 0
BITMAP
4000
4000
8000
8000
FF80
0080
0100
0100
0100
0200
ENDCHAR
STARTCHAR 3124
ENCODING 12580
SWIDTH 1040 0
DWIDTH 13 0
BBX 10 10 1 0
BITMAP
0400
0400
FFC0
0800
0C00
0C00
1400
1400
2400
C3C0
ENDCHAR
STARTCHAR 3125
ENCODING 12581
SWIDTH 1040 0
DWIDTH 13 0
BBX 10 10 1 0
BITMAP
0400
0400
0800
0800
1000
1000
2000
2000
4000
FFC0
ENDCHAR
STARTCHAR 3126
ENCODING 12582
SWIDTH 1040 0
DWIDTH 13 0
BBX 10 10 1 0
BITMAP
1200
1200
1200
1200
1200
1200
2200
2200
4200
C3C0
ENDCHAR
STARTCHAR 3127
ENCODING 12583
SWIDTH 1040 0
DWIDTH 13 0
BBX 1 10 6 0
BITMAP
80
80
80
80
80
80
80
80
80
80
ENDCHAR
STARTCHAR 3128
ENCODING 12584
SWIDTH 1040 0
DWIDTH 13 0
BBX 8 10 2 0
BITMAP
01
41
62
12
0C
0C
1A
33
61
80
ENDCHAR
STARTCHAR 3129
ENCODING 12585
SWIDTH 1040 0
DWIDTH 13 0
BBX 8 10 2 0
BITMAP
81
81
81
81
81
81
81
81
87
F9
ENDCHAR
STARTCHAR 312A
ENCODING 12586
SWIDTH 1040 0
DWIDTH 13 0
BBX 10 10 1 0
BITMAP
FFC0
0800
0800
0800
0F80
1080
1080
2100
6100
8700
ENDCHAR
STARTCHAR 312B
ENCODING 12587
SWIDTH 1040 0
DWIDTH 13 0
BBX 10 10 1 0
BITMAP
FFC0
1200
1200
1200
1200
2200
2200
2200
4200
83C0
ENDCHAR
STARTCHAR 312C
ENCODING 12588
SWIDTH 1040 0
DWIDTH 13 0
BBX 10 12 1 -1
BITMAP
0400
0200
7FC0
4000
4000
4000
4000
4000
4000
4000
8000
8000
ENDCHAR
STARTCHAR 31A0
ENCODING 12704
SWIDTH 1040 0
DWIDTH 13 0
BBX 9 10 2 0
BITMAP
4000
8000
FF80
0080
0080
0100
0100
0100
0B00
0700
ENDCHAR
STARTCHAR 31A1
ENCODING 12705
SWIDTH 1040 0
DWIDTH 13 0
BBX 9 10 2 0
BITMAP
FF80
1080
1080
1080
1100
1100
1700
1000
7000
7000
ENDCHAR
STARTCHAR 31A2
ENCODING 12706
SWIDTH 1040 0
DWIDTH 13 0
BBX 6 10 3 0
BITMAP
04
84
84
84
84
84
FC
0C
14
0C
ENDCHAR
STARTCHAR 31A3
ENCODING 12707
SWIDTH 1040 0
DWIDTH 13 0
BBX 9 10 3 0
BITMAP
6200
4400
4400
8800
8800
8800
8800
4700
4280
2300
ENDCHAR
STARTCHAR 31A4
ENCODING 12708
SWIDTH 1040 0
DWIDTH 13 0
BBX 10 10 1 0
BITMAP
1000
1000
FFC0
1040
1080
1080
1000
1000
1000
1F80
ENDCHAR
STARTCHAR 31A5
ENCODING 12709
SWIDTH 1040 0
DWIDTH 13 0
BBX 10 11 1 -1
BITMAP
1000
1000
FFC0
1040
1080
1080
1000
1180
1280
1F80
0080
ENDCHAR
STARTCHAR 31A6
ENCODING 12710
SWIDTH 1040 0
DWIDTH 13 0
BBX 10 9 1 0
BITMAP
FFC0
0400
0400
1C00
2400
4000
2000
1180
0E00
ENDCHAR
STARTCHAR 31A7
ENCODING 12711
SWIDTH 1040 0
DWIDTH 13 0
BBX 10 9 1 0
BITMAP
FFC0
0400
0400
1C00
2400
4380
4280
2380
1F80
ENDCHAR
STARTCHAR 31A8
ENCODING 12712
SWIDTH 1040 0
DWIDTH 13 0
BBX 9 10 2 0
BITMAP
0100
4200
2200
2200
1400
1F80
1800
3400
6200
8180
ENDCHAR
STARTCHAR 31A9
ENCODING 12713
SWIDTH 1040 0
DWIDTH 13 0
BBX 9 10 2 0
BITMAP
C180
6300
1400
1800
0800
0800
0800
0800
7800
3800
ENDCHAR
STARTCHAR 31AA
ENCODING 12714
SWIDTH 1040 0
DWIDTH 13 0
BBX 11 4 1 3
BITMAP
00C0
00A0
00A0
FFC0
ENDCHAR
STARTCHAR 31AB
ENCODING 12715
SWIDTH 1040 0
DWIDTH 13 0
BBX 9 10 2 -1
BITMAP
4100
4200
2200
2400
1400
1800
1980
2680
4280
8100
ENDCHAR
STARTCHAR 31AC
ENCODING 12716
SWIDTH 1040 0
DWIDTH 13 0
BBX 9 10 2 0
BITMAP
FF80
8880
8880
8880
8880
8880
8880
8880
8900
8B00
ENDCHAR
STARTCHAR 31AD
ENCODING 12717
SWIDTH 1040 0
DWIDTH 13 0
BBX 11 10 1 0
BITMAP
FFC0
2900
2900
2900
2900
2900
2900
4900
4900
89E0
ENDCHAR
STARTCHAR 31AE
ENCODING 12718
SWIDTH 1040 0
DWIDTH 13 0
BBX 10 11 1 -1
BITMAP
FFC0
0400
2400
4400
4400
FFC0
0840
C880
B080
E100
2000
ENDCHAR
STARTCHAR 31AF
ENCODING 12719
SWIDTH 1040 0
DWIDTH 13 0
BBX 9 10 2 0
BITMAP
1000
2000
2200
4600
9C00
6800
1100
2280
4280
FD00
ENDCHAR
STARTCHAR 31B0
ENCODING 12720
SWIDTH 1040 0
DWIDTH 13 0
BBX 9 10 2 1
BITMAP
2400
2400
FF80
8880
8880
8880
8880
8880
8880
8B00
ENDCHAR
STARTCHAR 31B1
ENCODING 12721
SWIDTH 1040 0
DWIDTH 13 0
BBX 10 10 1 0
BITMAP
FFC0
0400
7FC0
4440
4440
5C40
5040
5E40
4040
4180
ENDCHAR
STARTCHAR 31B2
ENCODING 12722
SWIDTH 1040 0
DWIDTH 13 0
BBX 10 8 1 1
BITMAP
FFC0
0400
0400
0400
0400
0400
0400
7FC0
ENDCHAR
STARTCHAR 31B3
ENCODING 12723
SWIDTH 1040 0
DWIDTH 13 0
BBX 3 10 4 0
BITMAP
20
20
20
20
20
20
20
20
E0
E0
ENDCHAR
STARTCHAR 31B4
ENCODING 12724
SWIDTH 1040 0
DWIDTH 13 0
BBX 6 8 1 -1
BITMAP
40
80
FC
04
04
04
04
18
ENDCHAR
STARTCHAR 31B5
ENCODING 12725
SWIDTH 1040 0
DWIDTH 13 0
BBX 6 8 1 -1
BITMAP
40
80
FC
24
24
24
44
8C
ENDCHAR
STARTCHAR 31B6
ENCODING 12726
SWIDTH 1040 0
DWIDTH 13 0
BBX 7 8 1 -1
BITMAP
FE
20
40
7C
04
04
08
18
ENDCHAR
STARTCHAR 31B7
ENCODING 12727
SWIDTH 1040 0
DWIDTH 13 0
BBX 7 7 1 -1
BITMAP
7E
40
40
40
80
80
80
ENDCHAR
STARTCHAR 3220
ENCODING 12832
SWIDTH 1040 0
DWIDTH 13 0
BBX 12 12 0 -1
BITMAP
4020
8010
8010
8010
8010
BFF0
8010
8010
8010
8010
4020
4020
ENDCHAR
STARTCHAR 3221
ENCODING 12833
SWIDTH 1040 0
DWIDTH 13 0
BBX 12 12 0 -1
BITMAP
4020
4020
9FD0
8010
8010
8010
8010
8010
8010
BFF0
4020
4020
ENDCHAR
STARTCHAR 3222
ENCODING 12834
SWIDTH 1040 0
DWIDTH 13 0
BBX 12 12 0 -1
BITMAP
4020
9FD0
8010
8010
8010
9F90
8010
8010
8010
8010
BFD0
4020
ENDCHAR
STARTCHAR 3223
ENCODING 12835
SWIDTH 1040 0
DWIDTH 13 0
BBX 12 12 0 -1
BITMAP
4020
BFD0
A550
A550
A950
A950
A950
B1D0
A050
A050
BFD0
4020
ENDCHAR
STARTCHAR 3224
ENCODING 12836
SWIDTH 1040 0
DWIDTH 13 0
BBX 12 12 0 -1
BITMAP
4020
BFE0
8410
8410
8410
9F90
8490
8890
8890
8890
7FE0
4020
ENDCHAR
STARTCHAR 3225
ENCODING 12837
SWIDTH 1040 0
DWIDTH 13 0
BBX 12 12 0 -1
BITMAP
4420
4420
8210
BFF0
8010
8910
8890
9090
9050
9050
A050
4020
ENDCHAR
STARTCHAR 3226
ENCODING 12838
SWIDTH 1040 0
DWIDTH 13 0
BBX 12 12 0 -1
BITMAP
4020
8820
8810
8850
8F90
B810
8810
8810
8850
8850
4FA0
4020
ENDCHAR
STARTCHAR 3227
ENCODING 12839
SWIDTH 1040 0
DWIDTH 13 0
BBX 12 12 0 -1
BITMAP
4020
C120
8910
8910
8910
8890
8890
9090
9050
A050
6020
4020
ENDCHAR
STARTCHAR 3228
ENCODING 12840
SWIDTH 1040 0
DWIDTH 13 0
BBX 12 12 0 -1
BITMAP
4420
8420
8410
BF90
8510
8510
8910
8910
8930
9150
60E0
4020
ENDCHAR
STARTCHAR 3229
ENCODING 12841
SWIDTH 1040 0
DWIDTH 13 0
BBX 12 12 0 -1
BITMAP
4220
4220
8210
8210
8210
BFF0
8210
8210
8210
8210
8210
4220
ENDCHAR
STARTCHAR 3231
ENCODING 12849
SWIDTH 1040 0
DWIDTH 13 0
BBX 12 12 0 -1
BITMAP
5120
9520
97D0
BD10
9110
9FF0
B910
B390
9350
9530
5110
5120
ENDCHAR
STARTCHAR 32A3
ENCODING 12963
SWIDTH 1040 0
DWIDTH 13 0
BBX 12 12 0 -1
BITMAP
0F80
3040
5FE0
8210
8210
93D0
9210
9210
9210
7FE0
2040
1F80
ENDCHAR
STARTCHAR 338E
ENCODING 13198
SWIDTH 1040 0
DWIDTH 13 0
BBX 11 8 1 -1
BITMAP
EDE0
B520
A520
A5C0
A600
A5E0
A620
01E0
ENDCHAR
STARTCHAR 338F
ENCODING 13199
SWIDTH 1040 0
DWIDTH 13 0
BBX 11 11 1 -1
BITMAP
8000
8000
8000
9BE0
B240
E240
E3C0
9400
93E0
8C20
03C0
ENDCHAR
STARTCHAR 339C
ENCODING 13212
SWIDTH 1040 0
DWIDTH 13 0
BBX 11 7 1 0
BITMAP
5B60
AAA0
AAA0
AAA0
AAA0
AAA0
2AA0
ENDCHAR
STARTCHAR 339D
ENCODING 13213
SWIDTH 1040 0
DWIDTH 13 0
BBX 11 7 1 0
BITMAP
EFC0
9920
8920
8920
8920
9920
E920
ENDCHAR
STARTCHAR 339E
ENCODING 13214
SWIDTH 1040 0
DWIDTH 13 0
BBX 11 10 1 0
BITMAP
8000
8000
8000
BEC0
A920
C920
C920
A920
A920
9920
ENDCHAR
STARTCHAR 33A1
ENCODING 13217
SWIDTH 1040 0
DWIDTH 13 0
BBX 11 11 1 0
BITMAP
0040
0040
00E0
0000
BB80
C440
8440
8440
8440
8440
8440
ENDCHAR
STARTCHAR 33C4
ENCODING 13252
SWIDTH 1040 0
DWIDTH 13 0
BBX 11 7 1 0
BITMAP
71C0
8A20
8200
8200
8200
8A20
71C0
ENDCHAR
STARTCHAR 33CE
ENCODING 13262
SWIDTH 1040 0
DWIDTH 13 0
BBX 11 10 1 0
BITMAP
9420
A460
A460
C660
C6A0
C6A0
A6A0
A5A0
95A0
9520
ENDCHAR
STARTCHAR 33D1
ENCODING 13265
SWIDTH 1040 0
DWIDTH 13 0
BBX 9 10 2 0
BITMAP
8000
8000
8000
9700
9900
9080
9080
9080
9080
9080
ENDCHAR
STARTCHAR 33D2
ENCODING 13266
SWIDTH 1040 0
DWIDTH 13 0
BBX 11 11 1 -1
BITMAP
8000
8000
8000
B9E0
A520
C520
C5C0
C600
A5E0
BA20
01E0
ENDCHAR
STARTCHAR 33D5
ENCODING 13269
SWIDTH 1040 0
DWIDTH 13 0
BBX 11 10 1 0
BITMAP
00A0
0020
0020
ECA0
92A0
92A0
92A0
92A0
92A0
92A0
ENDCHAR
STARTCHAR 3400
ENCODING 13312
SWIDTH 1040 0
DWIDTH 13 0
BBX 11 11 1 0
BITMAP
1200
1200
1200
1200
F3E0
1200
1200
1200
1200
1200
FFE0
ENDCHAR
STARTCHAR 3401
ENCODING 13313
SWIDTH 1040 0
DWIDTH 13 0
BBX 11 11 1 -1
BITMAP
FFE0
0400
FFC0
8840
8C40
8A40
9140
A0C0
8040
7FC0
8040
ENDCHAR
STARTCHAR 3402
ENCODING 13314
SWIDTH 1040 0
DWIDTH 13 0
BBX 11 12 1 -1
BITMAP
0800
0840
FF80
0840
0880
0F80
4200
4A60
F780
4200
5A20
61C0
ENDCHAR
STARTCHAR 3403
ENCODING 13315
SWIDTH 1040 0
DWIDTH 13 0
BBX 9 12 2 -1
BITMAP
0800
1400
2400
4200
8100
FF80
0800
0800
0800
0800
0800
0800
ENDCHAR
STARTCHAR 3404
ENCODING 13316
SWIDTH 1040 0
DWIDTH 13 0
BBX 11 12 1 -1
BITMAP
0400
0400
0400
FFC0
0400
4400
8400
FFE0
0400
0400
0400
0400
ENDCHAR
STARTCHAR 3405
ENCODING 13317
SWIDTH 1040 0
DWIDTH 13 0
BBX 9 10 2 0
BITMAP
0100
0200
4200
2200
1400
0800
0C00
1200
2100
C180
ENDCHAR
STARTCHAR 3406
ENCODING 13318
SWIDTH 1040 0
DWIDTH 13 0
BBX 9 12 2 -1
BITMAP
0100
7E00
7F00
4100
7F00
4100
7F00
7F80
4080
8080
8080
0300
ENDCHAR
STARTCHAR 3407
ENCODING 13319
SWIDTH 1040 0
DWIDTH 13 0
BBX 11 12 1 -1
BITMAP
0800
FF00
1100
1120
2120
C1C0
7F00
0600
3800
4040
4040
7F80
ENDCHAR
STARTCHAR 3408
ENCODING 13320
SWIDTH 1040 0
DWIDTH 13 0
BBX 11 12 1 -1
BITMAP
1800
0C00
1300
2080
C060
7F00
0600
0800
1000
2040
4040
3F80
ENDCHAR
STARTCHAR 3409
ENCODING 13321
SWIDTH 1040 0
DWIDTH 13 0
BBX 11 11 1 -1
BITMAP
FFE0
0400
0400
0400
1C00
FF80
0600
3800
4020
8060
7FC0
ENDCHAR
STARTCHAR 340A
ENCODING 13322
SWIDTH 1040 0
DWIDTH 13 0
BBX 11 12 1 -1
BITMAP
0400
0400
FFE0
0400
7FC0
0000
7F00
0600
1800
6040
4040
7F80
ENDCHAR
STARTCHAR 340B
ENCODING 13323
SWIDTH 1040 0
DWIDTH 13 0
BBX 10 12 1 -1
BITMAP
0400
0400
7F80
0400
0400
FFC0
7F00
0600
1800
6040
4040
7F80
ENDCHAR
STARTCHAR 340C
ENCODING 13324
SWIDTH 1040 0
DWIDTH 13 0
BBX 11 12 1 -1
BITMAP
2000
2000
3FC0
4400
A440
2FC0
F440
2440
2580
2020
2020
3FC0
ENDCHAR
STARTCHAR 340D
ENCODING 13325
SWIDTH 1040 0
DWIDTH 13 0
BBX 11 12 1 -1
BITMAP
00C0
FF00
4880
4480
2100
7F00
0200
0C00
3000
4020
8040
7FC0
ENDCHAR
STARTCHAR 340E
ENCODING 13326
SWIDTH 1040 0
DWIDTH 13 0
BBX 11 11 1 0
BITMAP
0800
FFE0
2100
1E00
1B00
E0E0
7F80
0E00
3000
4040
7FC0
ENDCHAR
STARTCHAR 340F
ENCODING 13327
SWIDTH 1040 0
DWIDTH 13 0
BBX 11 12 1 -1
BITMAP
FFC0
0800
0800
7F80
1080
FFE0
0000
7F80
0E00
3000
4040
7F80
ENDCHAR
STARTCHAR 3410
ENCODING 13328
SWIDTH 1040 0
DWIDTH 13 0
BBX 11 12 1 -1
BITMAP
2000
FFC0
4A40
5180
3180
4E60
FF80
0700
1800
6040
4040
7F80
ENDCHAR
STARTCHAR 3411
ENCODING 13329
SWIDTH 1040 0
DWIDTH 13 0
BBX 11 12 1 -1
BITMAP
1000
3F80
D300
0E00
FDE0
3200
0F00
7F80
0C00
3040
4040
3F80
ENDCHAR
STARTCHAR 3412
ENCODING 13330
SWIDTH 1040 0
DWIDTH 13 0
BBX 10 11 1 -1
BITMAP
FFC0
11C0
FFC0
4040
7FC0
0000
7F80
0C00
3040
4040
7F80
ENDCHAR
STARTCHAR 3413
ENCODING 13331
SWIDTH 1040 0
DWIDTH 13 0
BBX 11 12 1 -1
BITMAP
FFE0
0080
7C80
4480
7C80
0280
0100
7F80
0C00
3040
4040
7F80
ENDCHAR
STARTCHAR 3414
ENCODING 13332
SWIDTH 1040 0
DWIDTH 13 0
BBX 11 12 1 -1
BITMAP
0800
FFE0
0000
7F80
4080
7F80
0000
7F00
0C00
3040
4040
3F80
ENDCHAR
STARTCHAR 3415
ENCODING 13333
SWIDTH 1040 0
DWIDTH 13 0
BBX 9 12 2 -1
BITMAP
0800
FF80
8880
FF80
8880
FF80
FE00
0C00
3080
C080
8080
7F00
ENDCHAR
STARTCHAR 3416
ENCODING 13334
SWIDTH 1040 0
DWIDTH 13 0
BBX 11 12 1 -1
BITMAP
2000
2200
FE00
2200
FE00
0200
FA00
8A00
8A20
8A20
FA20
81C0
ENDCHAR
STARTCHAR 3417
ENCODING 13335
SWIDTH 1040 0
DWIDTH 13 0
BBX 11 12 1 -1
BITMAP
0800
7FC0
0900
FFE0
1980
F640
0F80
7F00
0700
3840
4040
7F80
ENDCHAR
STARTCHAR 3418
ENCODING 13336
SWIDTH 1040 0
DWIDTH 13 0
BBX 11 12 1 -1
BITMAP
0480
2500
FFE0
1600
2580
C460
7F00
0300
1C00
6040
4040
7F80
ENDCHAR
STARTCHAR 3419
ENCODING 13337
SWIDTH 1040 0
DWIDTH 13 0
BBX 10 12 1 -1
BITMAP
FFC0
0000
3F80
3F80
1100
FFC0
0000
7F80
0E00
3000
4040
7FC0
ENDCHAR
STARTCHAR 341A
ENCODING 13338
SWIDTH 1040 0
DWIDTH 13 0
BBX 11 12 1 -1
BITMAP
FFC0
0800
7F00
FFE0
0000
7F80
7F80
0000
7F80
1800
6040
3F80
ENDCHAR
STARTCHAR 341B
ENCODING 13339
SWIDTH 1040 0
DWIDTH 13 0
BBX 11 12 1 -1
BITMAP
2000
5FE0
4400
CFC0
5840
47C0
0000
7F00
0C00
7040
8040
7F80
ENDCHAR
STARTCHAR 341C
ENCODING 13340
SWIDTH 1040 0
DWIDTH 13 0
BBX 11 12 1 -1
BITMAP
3100
2A00
FA00
2780
AA80
B280
2280
7280
AA80
24A0
24A0
6040
ENDCHAR
STARTCHAR 341D
ENCODING 13341
SWIDTH 1040 0
DWIDTH 13 0
BBX 10 12 1 -1
BITMAP
0400
F7C0
4F40
F540
4740
4040
C0C0
7F80
0C00
3040
4040
7F80
ENDCHAR
STARTCHAR 341E
ENCODING 13342
SWIDTH 1040 0
DWIDTH 13 0
BBX 11 12 1 -1
BITMAP
2100
FFE0
3F00
2100
3F00
2100
FFE0
7F80
8660
1800
6080
3F00
ENDCHAR
STARTCHAR 341F
ENCODING 13343
SWIDTH 1040 0
DWIDTH 13 0
BBX 11 12 1 -1
BITMAP
0A00
FBE0
0A00
FBC0
0A00
FBE0
0A00
7F80
0E00
7000
8040
7F80
ENDCHAR
STARTCHAR 3420
ENCODING 13344
SWIDTH 1040 0
DWIDTH 13 0
BBX 11 12 1 -1
BITMAP
0A00
F200
AA00
FA00
3200
FA20
63C0
0000
7F80
1C00
6040
7F80
ENDCHAR
STARTCHAR 3421
ENCODING 13345
SWIDTH 1040 0
DWIDTH 13 0
BBX 12 12 0 -1
BITMAP
2000
27E0
27E0
7DA0
2DA0
2D20
2900
2FE0
29C0
4E30
4810
8FE0
ENDCHAR
STARTCHAR 3422
ENCODING 13346
SWIDTH 1040 0
DWIDTH 13 0
BBX 11 12 1 -1
BITMAP
4040
2FC0
0A80
CFC0
0180
5FE0
8600
0000
7F80
1C40
6040
7F80
ENDCHAR
STARTCHAR 3423
ENCODING 13347
SWIDTH 1040 0
DWIDTH 13 0
BBX 11 12 1 -1
BITMAP
0400
7FE0
BFC0
BFC0
A440
BFC0
9F80
BFE0
BF80
8700
B820
3FC0
ENDCHAR
STARTCHAR 3424
ENCODING 13348
SWIDTH 1040 0
DWIDTH 13 0
BBX 12 12 0 -1
BITMAP
2080
27E0
23E0
7A20
2BE0
2BE0
2BE0
2FF0
2800
4A50
4C30
8FE0
ENDCHAR
STARTCHAR 3425
ENCODING 13349
SWIDTH 1040 0
DWIDTH 13 0
BBX 10 12 1 -1
BITMAP
0080
6E80
AEC0
4AC0
EEC0
7F40
C000
7F00
0C00
3040
4040
3F80
ENDCHAR
STARTCHAR 3426
ENCODING 13350
SWIDTH 1040 0
DWIDTH 13 0
BBX 12 12 0 -1
BITMAP
35E0
4620
6360
6A60
FFF0
C470
4FA0
3FC0
0C00
3380
1E10
7FE0
ENDCHAR
STARTCHAR 3427
ENCODING 13351
SWIDTH 1040 0
DWIDTH 13 0
BBX 11 12 1 -1
BITMAP
0200
2200
1200
FFE0
0640
0A40
0A00
1200
2200
C200
8200
0C00
ENDCHAR
STARTCHAR 3428
ENCODING 13352
SWIDTH 1040 0
DWIDTH 13 0
BBX 11 11 1 -1
BITMAP
F7E0
1040
6380
2080
FFE0
3140
3140
2100
2100
2100
C300
ENDCHAR
STARTCHAR 3429
ENCODING 13353
SWIDTH 1040 0
DWIDTH 13 0
BBX 11 12 1 -1
BITMAP
5240
5240
5240
FFE0
5240
5240
FFE0
9240
9240
9440
9440
1040
ENDCHAR
STARTCHAR 342A
ENCODING 13354
SWIDTH 1040 0
DWIDTH 13 0
BBX 11 12 1 -1
BITMAP
0800
0800
FFE0
0400
0440
8440
8840
7FC0
0C00
1200
2180
C060
ENDCHAR
STARTCHAR 342B
ENCODING 13355
SWIDTH 1040 0
DWIDTH 13 0
BBX 11 12 1 -1
BITMAP
0800
0400
FFE0
0100
1240
8A40
8440
8A40
9940
A040
8040
7FC0
ENDCHAR
STARTCHAR 342C
ENCODING 13356
SWIDTH 1040 0
DWIDTH 13 0
BBX 10 12 1 -1
BITMAP
0800
FFC0
1000
2100
4F80
7040
2900
2900
2900
4940
4940
81C0
ENDCHAR
STARTCHAR 342D
ENCODING 13357
SWIDTH 1040 0
DWIDTH 13 0
BBX 11 12 1 -1
BITMAP
0800
0400
FFE0
0000
7FC0
8040
9E40
9240
9E40
8040
7FC0
0040
ENDCHAR
STARTCHAR 342E
ENCODING 13358
SWIDTH 1040 0
DWIDTH 13 0
BBX 11 12 1 -1
BITMAP
0400
FFE0
3180
D240
FFC0
7FC0
1200
FFE0
1C80
6300
A580
3860
ENDCHAR
STARTCHAR 342F
ENCODING 13359
SWIDTH 1040 0
DWIDTH 13 0
BBX 11 12 1 -1
BITMAP
FFE0
4000
7F80
7F80
8040
7FC0
7C00
FFE0
7E80
C1E0
7F80
3F80
ENDCHAR
STARTCHAR 3430
ENCODING 13360
SWIDTH 1040 0
DWIDTH 13 0
BBX 10 12 1 -1
BITMAP
2000
2FC0
5040
5040
D040
D040
5040
5040
5040
5040
4FC0
4040
ENDCHAR
STARTCHAR 3431
ENCODING 13361
SWIDTH 1040 0
DWIDTH 13 0
BBX 11 12 1 -1
BITMAP
0400
0A00
1300
2080
C460
1900
6200
0C40
7180
0200
0C00
7000
ENDCHAR
STARTCHAR 3432
ENCODING 13362
SWIDTH 1040 0
DWIDTH 13 0
BBX 12 12 0 -1
BITMAP
1100
1100
2100
2FF0
6100
A300
2280
2280
2240
2460
2830
2010
ENDCHAR
STARTCHAR 3433
ENCODING 13363
SWIDTH 1040 0
DWIDTH 13 0
BBX 11 12 1 -1
BITMAP
2000
3FE0
4480
4480
C480
C480
4480
4480
4880
48A0
50A0
4040
ENDCHAR
STARTCHAR 3434
ENCODING 13364
SWIDTH 1040 0
DWIDTH 13 0
BBX 12 12 0 -1
BITMAP
1200
1200
23F0
2420
6820
BA40
21C0
2080
2180
2300
2400
2800
ENDCHAR
STARTCHAR 3435
ENCODING 13365
SWIDTH 1040 0
DWIDTH 13 0
BBX 11 12 1 -1
BITMAP
2000
3FC0
4200
4200
C200
DFE0
4200
4200
4200
4200
4200
4600
ENDCHAR
STARTCHAR 3436
ENCODING 13366
SWIDTH 1040 0
DWIDTH 13 0
BBX 12 12 0 -1
BITMAP
1000
2FE0
2820
2820
6820
AFE0
2800
2800
2800
2810
2810
27E0
ENDCHAR
STARTCHAR 3437
ENCODING 13367
SWIDTH 1040 0
DWIDTH 13 0
BBX 12 12 0 -1
BITMAP
1000
2FC0
2040
2440
6440
A7F0
2010
2010
3FE0
2020
2020
20E0
ENDCHAR
STARTCHAR 3438
ENCODING 13368
SWIDTH 1040 0
DWIDTH 13 0
BBX 12 12 0 -1
BITMAP
1200
1400
27E0
2420
6920
A140
2100
2300
2280
2440
2C20
2010
ENDCHAR
STARTCHAR 3439
ENCODING 13369
SWIDTH 1040 0
DWIDTH 13 0
BBX 12 12 0 -1
BITMAP
1400
27E0
2800
2FE0
7000
AFC0
2040
2040
2040
2050
2030
2030
ENDCHAR
STARTCHAR 343A
ENCODING 13370
SWIDTH 1040 0
DWIDTH 13 0
BBX 12 12 0 -1
BITMAP
1480
2480
2480
2880
6880
B880
2940
2940
2940
2920
2A10
2810
ENDCHAR
STARTCHAR 343B
ENCODING 13371
SWIDTH 1040 0
DWIDTH 13 0
BBX 10 12 1 -1
BITMAP
2200
4200
4200
5FC0
D240
D340
5540
54C0
5840
5040
5040
50C0
ENDCHAR
STARTCHAR 343C
ENCODING 13372
SWIDTH 1040 0
DWIDTH 13 0
BBX 11 12 1 -1
BITMAP
2280
2C80
4480
4480
C480
DFE0
4480
4480
4880
4880
4880
5080
ENDCHAR
STARTCHAR 343D
ENCODING 13373
SWIDTH 1040 0
DWIDTH 13 0
BBX 11 11 1 0
BITMAP
5FC0
5040
5140
D940
D640
5240
5240
5540
5560
6860
6020
ENDCHAR
STARTCHAR 343E
ENCODING 13374
SWIDTH 1040 0
DWIDTH 13 0
BBX 11 12 1 -1
BITMAP
2000
2FC0
4000
4000
DFE0
C500
4500
4500
4900
4920
5120
40C0
ENDCHAR
STARTCHAR 343F
ENCODING 13375
SWIDTH 1040 0
DWIDTH 13 0
BBX 11 12 1 -1
BITMAP
2040
2780
4A00
4200
DFC0
C200
4200
5FE0
4200
4200
4200
4600
ENDCHAR
STARTCHAR 3440
ENCODING 13376
SWIDTH 1040 0
DWIDTH 13 0
BBX 11 12 1 -1
BITMAP
2200
2200
4200
5FE0
C200
C600
4500
4500
4880
4A40
5160
6020
ENDCHAR
STARTCHAR 3441
ENCODING 13377
SWIDTH 1040 0
DWIDTH 13 0
BBX 11 12 1 -1
BITMAP
2200
3240
5240
5240
D240
DFC0
4200
5220
5220
5220
5220
4DE0
ENDCHAR
STARTCHAR 3442
ENCODING 13378
SWIDTH 1040 0
DWIDTH 13 0
BBX 12 12 0 -1
BITMAP
1000
2FF0
2100
2FE0
6920
A9A0
2AA0
2A60
2C20
2820
2820
2860
ENDCHAR
STARTCHAR 3443
ENCODING 13379
SWIDTH 1040 0
DWIDTH 13 0
BBX 12 12 0 -1
BITMAP
1040
2880
2880
29F0
7290
BC90
24A0
28A0
2AA0
3F20
3120
2260
ENDCHAR
STARTCHAR 3444
ENCODING 13380
SWIDTH 1040 0
DWIDTH 13 0
BBX 11 12 1 -1
BITMAP
2000
2FC0
4A40
4940
C840
FFE0
5040
5240
5040
5FE0
4080
4180
ENDCHAR
STARTCHAR 3445
ENCODING 13381
SWIDTH 1040 0
DWIDTH 13 0
BBX 11 12 1 -1
BITMAP
2400
2400
27E0
4A00
CA00
D200
43C0
4200
4200
4200
5FE0
4000
ENDCHAR
STARTCHAR 3446
ENCODING 13382
SWIDTH 1040 0
DWIDTH 13 0
BBX 11 12 1 -1
BITMAP
2000
4FC0
5040
5040
D040
CFC0
4500
4500
4500
4920
5920
71C0
ENDCHAR
STARTCHAR 3447
ENCODING 13383
SWIDTH 1040 0
DWIDTH 13 0
BBX 11 12 1 -1
BITMAP
2200
27C0
2440
4880
5080
CFE0
4020
4FE0
4020
4020
4FE0
4020
ENDCHAR
STARTCHAR 3448
ENCODING 13384
SWIDTH 1040 0
DWIDTH 13 0
BBX 11 12 1 -1
BITMAP
2400
4400
5FE0
4800
CA00
D200
5FC0
4200
4A40
5240
6220
4600
ENDCHAR
STARTCHAR 3449
ENCODING 13385
SWIDTH 1040 0
DWIDTH 13 0
BBX 12 12 0 -1
BITMAP
1000
2FE0
2820
2FE0
6A20
ABA0
2CA0
2AA0
3120
3230
3430
3010
ENDCHAR
STARTCHAR 344A
ENCODING 13386
SWIDTH 1040 0
DWIDTH 13 0
BBX 11 12 1 -1
BITMAP
2200
2200
5FE0
4500
CD40
CD40
5540
5520
6520
4900
4900
5300
ENDCHAR
STARTCHAR 344B
ENCODING 13387
SWIDTH 1040 0
DWIDTH 13 0
BBX 11 12 0 -1
BITMAP
1280
2280
2280
2FE0
6AA0
AAA0
2FE0
2AA0
2AA0
2AA0
2FE0
2800
ENDCHAR
STARTCHAR 344C
ENCODING 13388
SWIDTH 1040 0
DWIDTH 13 0
BBX 11 12 1 -1
BITMAP
2000
2FE0
5000
57C0
D100
57C0
5100
5100
57E0
5000
5000
4FE0
ENDCHAR
STARTCHAR 344D
ENCODING 13389
SWIDTH 1040 0
DWIDTH 13 0
BBX 12 12 0 -1
BITMAP
1100
2FE0
2100
2100
6FE0
E100
2FF0
2380
2540
2920
3110
2100
ENDCHAR
STARTCHAR 344E
ENCODING 13390
SWIDTH 1040 0
DWIDTH 13 0
BBX 11 12 0 -1
BITMAP
1520
2940
2A40
2940
6520
A000
2100
2920
2920
2920
2920
26E0
ENDCHAR
STARTCHAR 344F
ENCODING 13391
SWIDTH 1040 0
DWIDTH 13 0
BBX 11 12 1 -1
BITMAP
2000
4200
5FE0
50A0
D0A0
DFE0
4080
4880
4480
4080
4080
4380
ENDCHAR
STARTCHAR 3450
ENCODING 13392
SWIDTH 1040 0
DWIDTH 13 0
BBX 12 12 0 -1
BITMAP
1100
2100
21E0
2100
6100
BFF0
2100
2520
2920
2910
2100
2300
ENDCHAR
STARTCHAR 3451
ENCODING 13393
SWIDTH 1040 0
DWIDTH 13 0
BBX 11 12 0 -1
BITMAP
1100
1100
27E0
2820
67E0
A820
2820
27E0
2820
2820
27E0
2020
ENDCHAR
STARTCHAR 3452
ENCODING 13394
SWIDTH 1040 0
DWIDTH 13 0
BBX 11 12 1 -1
BITMAP
0400
1A00
2180
FFE0
0400
7F80
4880
4880
7F80
0A00
3180
8040
ENDCHAR
STARTCHAR 3453
ENCODING 13395
SWIDTH 1040 0
DWIDTH 13 0
BBX 12 12 0 -1
BITMAP
1200
1240
2460
2F90
6200
AFF0
2200
27E0
2640
2980
31C0
2630
ENDCHAR
STARTCHAR 3454
ENCODING 13396
SWIDTH 1040 0
DWIDTH 13 0
BBX 11 12 1 -1
BITMAP
2FE0
4200
4200
4FC0
CA40
CA40
4A40
4A40
4A40
4200
44C0
5820
ENDCHAR
STARTCHAR 3455
ENCODING 13397
SWIDTH 1040 0
DWIDTH 13 0
BBX 10 12 1 -1
BITMAP
2200
5240
5240
5240
DFC0
C400
4FC0
5040
4680
4100
4600
7800
ENDCHAR
STARTCHAR 3456
ENCODING 13398
SWIDTH 1040 0
DWIDTH 13 0
BBX 12 12 0 -1
BITMAP
0480
2480
2880
4BF0
4A90
DA90
4A90
4BF0
4880
4880
4880
0880
ENDCHAR
STARTCHAR 3457
ENCODING 13399
SWIDTH 1040 0
DWIDTH 13 0
BBX 11 12 1 -1
BITMAP
2200
2FC0
5040
4FC0
D040
CFE0
5060
5FC0
41C0
4240
5C40
4180
ENDCHAR
STARTCHAR 3458
ENCODING 13400
SWIDTH 1040 0
DWIDTH 13 0
BBX 12 12 0 -1
BITMAP
1020
2090
2FF0
2080
6650
A660
2FE0
2660
2A40
2A50
28B0
2110
ENDCHAR
STARTCHAR 3459
ENCODING 13401
SWIDTH 1040 0
DWIDTH 13 0
BBX 12 11 0 0
BITMAP
2FF0
2940
2740
6940
A940
2740
2940
2940
2750
2950
2170
ENDCHAR
STARTCHAR 345A
ENCODING 13402
SWIDTH 1040 0
DWIDTH 13 0
BBX 12 12 0 -1
BITMAP
2E70
2A90
2AA0
6EA0
6AA0
AAA0
2E90
2A90
2A90
2AB0
3280
3600
ENDCHAR
STARTCHAR 345B
ENCODING 13403
SWIDTH 1040 0
DWIDTH 13 0
BBX 12 12 0 -1
BITMAP
1100
2FF0
2100
2FE0
6920
A920
2FE0
2180
2380
2560
2910
2100
ENDCHAR
STARTCHAR 345C
ENCODING 13404
SWIDTH 1040 0
DWIDTH 13 0
BBX 12 11 0 0
BITMAP
29E0
3F00
4900
49F0
CB20
5D20
4920
4920
4920
4A20
1A20
ENDCHAR
STARTCHAR 345D
ENCODING 13405
SWIDTH 1040 0
DWIDTH 13 0
BBX 11 12 1 -1
BITMAP
2000
3FC0
4200
4FC0
C200
DFC0
4480
5FE0
4880
4880
4880
5080
ENDCHAR
STARTCHAR 345E
ENCODING 13406
SWIDTH 1040 0
DWIDTH 13 0
BBX 12 12 0 -1
BITMAP
1100
2520
2940
2280
6640
B830
2440
3FF0
2440
2440
2840
2040
ENDCHAR
STARTCHAR 345F
ENCODING 13407
SWIDTH 1040 0
DWIDTH 13 0
BBX 11 12 1 -1
BITMAP
2040
4F80
4800
4800
CFC0
C880
4880
7FE0
4000
4880
5040
4020
ENDCHAR
STARTCHAR 3460
ENCODING 13408
SWIDTH 1040 0
DWIDTH 13 0
BBX 12 12 0 -1
BITMAP
1200
2DF0
2D20
2CA0
6C40
ACA0
2110
2100
2FE0
2100
2100
3FF0
ENDCHAR
STARTCHAR 3461
ENCODING 13409
SWIDTH 1040 0
DWIDTH 13 0
BBX 11 12 0 -1
BITMAP
1000
2EE0
2AA0
2EA0
6AA0
AAA0
2EA0
2AA0
2AA0
2BA0
2D80
2080
ENDCHAR
STARTCHAR 3462
ENCODING 13410
SWIDTH 1040 0
DWIDTH 13 0
BBX 12 12 0 -1
BITMAP
1400
24F0
3F90
2490
6490
BF90
2890
2A90
2A90
31A0
3F80
2080
ENDCHAR
STARTCHAR 3463
ENCODING 13411
SWIDTH 1040 0
DWIDTH 13 0
BBX 12 12 0 -1
BITMAP
0440
2440
3FF0
4440
4CC0
CEC0
5560
5560
4650
4440
4440
0440
ENDCHAR
STARTCHAR 3464
ENCODING 13412
SWIDTH 1040 0
DWIDTH 13 0
BBX 11 12 1 -1
BITMAP
2480
2480
5FE0
4480
4000
CFC0
5240
4FC0
5240
5240
4FC0
4040
ENDCHAR
STARTCHAR 3465
ENCODING 13413
SWIDTH 1040 0
DWIDTH 13 0
BBX 11 12 1 -1
BITMAP
2000
2FC0
4FC0
5040
CFC0
C400
47E0
5AC0
4540
4940
5240
44C0
ENDCHAR
STARTCHAR 3466
ENCODING 13414
SWIDTH 1040 0
DWIDTH 13 0
BBX 12 12 0 -1
BITMAP
1100
2FE0
2820
2820
6FE0
A840
2920
2FF0
2980
2940
3220
3410
ENDCHAR
STARTCHAR 3467
ENCODING 13415
SWIDTH 1040 0
DWIDTH 13 0
BBX 12 12 0 -1
BITMAP
10E0
2F00
2FF0
2380
6540
B830
27C0
2180
3FF0
2100
2100
2700
ENDCHAR
STARTCHAR 3468
ENCODING 13416
SWIDTH 1040 0
DWIDTH 13 0
BBX 12 12 0 -1
BITMAP
1000
17E0
2820
27E0
6400
A7E0
2900
2100
3FF0
2280
2440
3830
ENDCHAR
STARTCHAR 3469
ENCODING 13417
SWIDTH 1040 0
DWIDTH 13 0
BBX 12 12 0 -1
BITMAP
1FF0
1A90
2A90
2FF0
6100
A3E0
2420
2A20
21C0
2080
2300
2C00
ENDCHAR
STARTCHAR 346A
ENCODING 13418
SWIDTH 1040 0
DWIDTH 13 0
BBX 12 12 0 -1
BITMAP
1100
2FF0
2440
2380
63C0
AC30
2440
27C0
2440
27C0
2840
3000
ENDCHAR
STARTCHAR 346B
ENCODING 13419
SWIDTH 1040 0
DWIDTH 13 0
BBX 11 12 1 -1
BITMAP
2200
4500
4C80
5260
C000
DFC0
4080
4500
5340
5840
68A0
4700
ENDCHAR
STARTCHAR 346C
ENCODING 13420
SWIDTH 1040 0
DWIDTH 13 0
BBX 12 12 0 -1
BITMAP
0040
2840
3E40
4BF0
4A40
D240
54F0
4D10
4510
4B10
50F0
0010
ENDCHAR
STARTCHAR 346D
ENCODING 13421
SWIDTH 1040 0
DWIDTH 13 0
BBX 12 12 0 -1
BITMAP
1FE0
2920
2920
2FE0
6920
AFE0
3FF0
2240
2240
2440
2440
2840
ENDCHAR
STARTCHAR 346E
ENCODING 13422
SWIDTH 1040 0
DWIDTH 13 0
BBX 12 12 0 -1
BITMAP
2FF0
2910
2FF0
2100
6FE0
A920
2FE0
2FE0
2100
3FF0
2100
2100
ENDCHAR
STARTCHAR 346F
ENCODING 13423
SWIDTH 1040 0
DWIDTH 13 0
BBX 12 12 0 -1
BITMAP
1000
1FF0
27E0
2820
67E0
A820
27E0
2820
27E0
2000
2C60
2010
ENDCHAR
STARTCHAR 3470
ENCODING 13424
SWIDTH 1040 0
DWIDTH 13 0
BBX 11 12 1 -1
BITMAP
2000
4F80
4880
4F80
FFE0
C400
5A40
4780
7A80
4540
7920
4600
ENDCHAR
STARTCHAR 3471
ENCODING 13425
SWIDTH 1040 0
DWIDTH 13 0
BBX 12 12 0 -1
BITMAP
17C0
2240
2180
2FF0
6320
AF00
2100
2FF0
2380
2540
3930
2100
ENDCHAR
STARTCHAR 3472
ENCODING 13426
SWIDTH 1040 0
DWIDTH 13 0
BBX 12 12 0 -1
BITMAP
1100
2FF0
2100
2FE0
6A20
AAA0
2BE0
2920
2FE0
2920
2920
2860
ENDCHAR
STARTCHAR 3473
ENCODING 13427
SWIDTH 1040 0
DWIDTH 13 0
BBX 11 12 1 -1
BITMAP
2000
4FE0
5240
4AC0
CFC0
C8C0
4FE0
5240
4AC0
4FC0
4440
48C0
ENDCHAR
STARTCHAR 3474
ENCODING 13428
SWIDTH 1040 0
DWIDTH 13 0
BBX 12 12 0 -1
BITMAP
1FE0
2020
2FE0
2FE0
7FF0
B110
2FE0
2960
2FC0
2440
2380
3CF0
ENDCHAR
STARTCHAR 3475
ENCODING 13429
SWIDTH 1040 0
DWIDTH 13 0
BBX 12 12 0 -1
BITMAP
1080
27F0
2900
3A00
6BE0
AA80
2880
37F0
2880
2940
3220
3410
ENDCHAR
STARTCHAR 3476
ENCODING 13430
SWIDTH 1040 0
DWIDTH 13 0
BBX 12 12 0 -1
BITMAP
1400
27F0
2800
37E0
6FC0
A240
2AC0
2340
3FA0
2730
2AB0
3210
ENDCHAR
STARTCHAR 3477
ENCODING 13431
SWIDTH 1040 0
DWIDTH 13 0
BBX 12 12 0 -1
BITMAP
1080
2AA0
2EC0
2090
6EF0
AA00
2E80
2AA0
2EC0
2A90
2A90
2A60
ENDCHAR
STARTCHAR 3478
ENCODING 13432
SWIDTH 1040 0
DWIDTH 13 0
BBX 11 12 1 -1
BITMAP
2200
5FE0
4FC0
5040
CFC0
C000
7FE0
5E40
5240
4E40
5040
4180
ENDCHAR
STARTCHAR 3479
ENCODING 13433
SWIDTH 1040 0
DWIDTH 13 0
BBX 12 12 0 -1
BITMAP
0200
0D00
1FC0
E230
3FC0
3FC0
3FC0
0000
1FC0
1FC0
1040
1FC0
ENDCHAR
STARTCHAR 347A
ENCODING 13434
SWIDTH 1040 0
DWIDTH 13 0
BBX 12 12 0 -1
BITMAP
1400
27F0
2880
37E0
67E0
A880
27F0
2FC0
2280
24F0
2420
38E0
ENDCHAR
STARTCHAR 347B
ENCODING 13435
SWIDTH 1040 0
DWIDTH 13 0
BBX 12 12 0 -1
BITMAP
2000
2FF0
3010
4340
4AA0
CB50
4FC0
4100
4920
4920
4FE0
0020
ENDCHAR
STARTCHAR 347C
ENCODING 13436
SWIDTH 1040 0
DWIDTH 13 0
BBX 12 12 0 -1
BITMAP
0080
3EE0
3B20
5BA0
5A40
DEC0
5B30
5BE0
5B20
5F20
51E0
0120
ENDCHAR
STARTCHAR 347D
ENCODING 13437
SWIDTH 1040 0
DWIDTH 13 0
BBX 12 12 0 -1
BITMAP
1100
2540
2FF0
3010
67D0
A440
27C0
2100
2FE0
2100
2100
3FF0
ENDCHAR
STARTCHAR 347E
ENCODING 13438
SWIDTH 1040 0
DWIDTH 13 0
BBX 11 12 1 -1
BITMAP
2200
2FE0
5280
4B00
FE00
DFE0
4000
4FC0
4FC0
5FC0
5040
5FC0
ENDCHAR
STARTCHAR 347F
ENCODING 13439
SWIDTH 1040 0
DWIDTH 13 0
BBX 12 12 0 -1
BITMAP
1520
2A40
2520
2FE0
6920
AFE0
2FE0
2100
3FF0
2380
2D60
2100
ENDCHAR
STARTCHAR 3480
ENCODING 13440
SWIDTH 1040 0
DWIDTH 13 0
BBX 12 12 0 -1
BITMAP
1100
2FF0
2440
2FF0
6910
AFD0
2910
2BD0
2C50
2BD0
2810
2860
ENDCHAR
STARTCHAR 3481
ENCODING 13441
SWIDTH 1040 0
DWIDTH 13 0
BBX 12 12 0 -1
BITMAP
1000
2FF0
2910
2FD0
6FD0
AA90
2FD0
2910
2FF0
2910
2FF0
2810
ENDCHAR
STARTCHAR 3482
ENCODING 13442
SWIDTH 1040 0
DWIDTH 13 0
BBX 11 12 1 -1
BITMAP
2480
5FE0
4680
4FC0
C240
DFE0
4200
4FC0
5840
4FC0
4FC0
4840
ENDCHAR
STARTCHAR 3483
ENCODING 13443
SWIDTH 1040 0
DWIDTH 13 0
BBX 12 12 0 -1
BITMAP
1060
3FF0
2040
2F40
6FC0
AF40
2940
2F40
2F40
2F50
2130
38B0
ENDCHAR
STARTCHAR 3484
ENCODING 13444
SWIDTH 1040 0
DWIDTH 13 0
BBX 12 12 0 -1
BITMAP
1440
2660
2940
2DF0
7240
AEC0
2520
2B10
2020
2AA0
2A90
3250
ENDCHAR
STARTCHAR 3485
ENCODING 13445
SWIDTH 1040 0
DWIDTH 13 0
BBX 12 12 0 -1
BITMAP
1100
2FF0
23E0
3E40
6380
AFF0
2F40
2780
3BA0
3CC0
2420
2710
ENDCHAR
STARTCHAR 3486
ENCODING 13446
SWIDTH 1040 0
DWIDTH 13 0
BBX 12 12 0 -1
BITMAP
1100
2280
2FE0
27F0
6820
A7E0
3EE0
2220
2AE0
2660
3BA0
2660
ENDCHAR
STARTCHAR 3487
ENCODING 13447
SWIDTH 1040 0
DWIDTH 13 0
BBX 12 12 0 -1
BITMAP
1400
2400
2FF0
3AA0
6AA0
BFF0
2AA0
2AA0
3FF0
2AA0
2AA0
3290
ENDCHAR
STARTCHAR 3488
ENCODING 13448
SWIDTH 1040 0
DWIDTH 13 0
BBX 12 12 0 -1
BITMAP
1E40
2280
22F0
3FA0
72A0
AFA0
32A0
2E60
3240
3360
3E90
2200
ENDCHAR
STARTCHAR 3489
ENCODING 13449
SWIDTH 1040 0
DWIDTH 13 0
BBX 12 12 0 -1
BITMAP
1100
2540
2FF0
37D0
6440
A440
27C0
3FF0
2380
2540
2920
2100
ENDCHAR
STARTCHAR 348A
ENCODING 13450
SWIDTH 1040 0
DWIDTH 13 0
BBX 12 12 0 -1
BITMAP
2EF0
2650
36D0
5B50
4AA0
D6A0
4400
56B0
54C0
54C0
4EC0
31F0
ENDCHAR
STARTCHAR 348B
ENCODING 13451
SWIDTH 1040 0
DWIDTH 13 0
BBX 12 12 0 -1
BITMAP
0A10
2AE0
3F80
4A80
4EF0
CAA0
4EA0
4AA0
5FA0
4AA0
4B20
1120
ENDCHAR
STARTCHAR 348C
ENCODING 13452
SWIDTH 1040 0
DWIDTH 13 0
BBX 12 12 0 -1
BITMAP
1440
2DE0
2460
2AA0
6890
AFF0
3010
23C0
2440
2440
2450
2860
ENDCHAR
STARTCHAR 348D
ENCODING 13453
SWIDTH 1040 0
DWIDTH 13 0
BBX 12 12 0 -1
BITMAP
1200
2440
27A0
28A0
6EE0
A200
2F80
2220
2FD0
2540
2920
2300
ENDCHAR
STARTCHAR 348E
ENCODING 13454
SWIDTH 1040 0
DWIDTH 13 0
BBX 12 12 0 -1
BITMAP
1FE0
2200
3FF0
2480
6860
B290
2EE0
2EE0
2280
3EF0
2280
2280
ENDCHAR
STARTCHAR 348F
ENCODING 13455
SWIDTH 1040 0
DWIDTH 13 0
BBX 12 12 0 -1
BITMAP
2100
2FF0
3210
4FE0
4FE0
C280
5FF0
4440
45A0
5810
4300
00C0
ENDCHAR
STARTCHAR 3490
ENCODING 13456
SWIDTH 1040 0
DWIDTH 13 0
BBX 11 12 1 -1
BITMAP
2800
2FE0
5680
4800
CFE0
D020
6F40
4F40
4940
4F40
4040
41C0
ENDCHAR
STARTCHAR 3491
ENCODING 13457
SWIDTH 1040 0
DWIDTH 13 0
BBX 12 12 0 -1
BITMAP
1000
2FF0
2C40
2BE0
6940
ADE0
2940
2BE0
2D40
2DE0
2800
2FF0
ENDCHAR
STARTCHAR 3492
ENCODING 13458
SWIDTH 1040 0
DWIDTH 13 0
BBX 12 12 0 -1
BITMAP
1AA0
2AA0
3FF0
2480
7FE0
A100
2FE0
3FF0
2380
2540
2920
2110
ENDCHAR
STARTCHAR 3493
ENCODING 13459
SWIDTH 1040 0
DWIDTH 13 0
BBX 12 12 0 -1
BITMAP
1080
2BE0
2480
23F0
6140
A3F0
2BE0
2880
2BF0
2880
2C80
33F0
ENDCHAR
STARTCHAR 3494
ENCODING 13460
SWIDTH 1040 0
DWIDTH 13 0
BBX 12 12 0 -1
BITMAP
1FE0
2AA0
2AA0
2FE0
67F0
AA10
3F90
2A90
2FA0
22A0
2F60
2060
ENDCHAR
STARTCHAR 3495
ENCODING 13461
SWIDTH 1040 0
DWIDTH 13 0
BBX 12 12 0 -1
BITMAP
0100
3FF0
2000
4940
49F0
DD40
49F0
4B40
5DF0
4540
49F0
3100
ENDCHAR
STARTCHAR 3496
ENCODING 13462
SWIDTH 1040 0
DWIDTH 13 0
BBX 12 12 0 -1
BITMAP
1200
2FF0
2240
2FE0
6FE0
A920
2FE0
2FF0
3150
31D0
3210
2060
ENDCHAR
STARTCHAR 3497
ENCODING 13463
SWIDTH 1040 0
DWIDTH 13 0
BBX 12 12 0 -1
BITMAP
2440
2FF0
27C0
4440
47C0
DFF0
5FF0
4440
4FA0
4FE0
4100
5FF0
ENDCHAR
STARTCHAR 3498
ENCODING 13464
SWIDTH 1040 0
DWIDTH 13 0
BBX 11 12 1 -1
BITMAP
3E00
59E0
5F40
52C0
DE80
D8C0
5F20
4200
5FC0
4880
4500
7FE0
ENDCHAR
STARTCHAR 3499
ENCODING 13465
SWIDTH 1040 0
DWIDTH 13 0
BBX 12 12 0 -1
BITMAP
0040
29E0
2B20
55E0
5D20
CDE0
4C40
5BF0
4550
5B50
5970
0040
ENDCHAR
STARTCHAR 349A
ENCODING 13466
SWIDTH 1040 0
DWIDTH 13 0
BBX 12 12 0 -1
BITMAP
10E0
2720
2FE0
2100
6FF0
AFE0
2FE0
2020
2FE0
2D20
3450
3380
ENDCHAR
STARTCHAR 349B
ENCODING 13467
SWIDTH 1040 0
DWIDTH 13 0
BBX 11 12 1 -1
BITMAP
3DC0
4440
4CC0
4440
D980
CA00
5FC0
7FC0
5200
5FC0
5FE0
5000
ENDCHAR
STARTCHAR 349C
ENCODING 13468
SWIDTH 1040 0
DWIDTH 13 0
BBX 12 12 0 -1
BITMAP
0600
2BE0
3220
4E60
53A0
D2A0
4EE0
52A0
5FF0
4000
4460
5810
ENDCHAR
STARTCHAR 349D
ENCODING 13469
SWIDTH 1040 0
DWIDTH 13 0
BBX 12 12 0 -1
BITMAP
1200
2FF0
2200
2FE0
6AA0
AFE0
2FF0
2880
2CA0
3250
31D0
2220
ENDCHAR
STARTCHAR 349E
ENCODING 13470
SWIDTH 1040 0
DWIDTH 13 0
BBX 12 12 0 -1
BITMAP
1900
2FE0
2400
27F0
6FE0
A920
2FC0
27F0
2E70
2990
2810
2820
ENDCHAR
STARTCHAR 349F
ENCODING 13471
SWIDTH 1040 0
DWIDTH 13 0
BBX 12 12 0 -1
BITMAP
1100
2FF0
27E0
27E0
6FE0
A900
27E0
2D60
2160
26A0
3C60
2710
ENDCHAR
STARTCHAR 34A0
ENCODING 13472
SWIDTH 1040 0
DWIDTH 13 0
BBX 11 12 1 -1
BITMAP
2000
45C0
5D40
6480
C940
D520
5DC0
4500
5DC0
5DC0
4500
7FE0
ENDCHAR
STARTCHAR 34A1
ENCODING 13473
SWIDTH 1040 0
DWIDTH 13 0
BBX 12 12 0 -1
BITMAP
0030
3EC0
32A0
56A0
40C0
CEA0
5570
5ED0
44E0
5750
5F50
00C0
ENDCHAR
STARTCHAR 34A2
ENCODING 13474
SWIDTH 1040 0
DWIDTH 13 0
BBX 12 12 0 -1
BITMAP
1100
26C0
3FF0
2000
6FF0
AFF0
2000
2FE0
32A0
2FE0
32A0
2020
ENDCHAR
STARTCHAR 34A3
ENCODING 13475
SWIDTH 1040 0
DWIDTH 13 0
BBX 12 12 0 -1
BITMAP
1100
2FF0
2AC0
2DF0
6FE0
AD40
2CE0
2CF0
3000
36A0
3650
21C0
ENDCHAR
STARTCHAR 34A4
ENCODING 13476
SWIDTH 1040 0
DWIDTH 13 0
BBX 11 12 1 -1
BITMAP
1FE0
4880
4F80
CF80
DFE0
7DE0
6540
5DC0
5DC0
6540
7DC0
4400
ENDCHAR
STARTCHAR 34A5
ENCODING 13477
SWIDTH 1040 0
DWIDTH 13 0
BBX 12 12 0 -1
BITMAP
2140
37E0
37E0
35E0
7560
AA80
3FF0
2FE0
2820
2FE0
2480
3FF0
ENDCHAR
STARTCHAR 34A6
ENCODING 13478
SWIDTH 1040 0
DWIDTH 13 0
BBX 12 12 0 -1
BITMAP
2FE0
2920
2FE0
4FE0
5EF0
D750
5FF0
5EF0
4100
4FE0
4100
1FF0
ENDCHAR
STARTCHAR 34A7
ENCODING 13479
SWIDTH 1040 0
DWIDTH 13 0
BBX 12 12 0 -1
BITMAP
2840
3FA0
58F0
56A0
59A0
DEF0
44A0
5EF0
5AA0
5EA0
52F0
5280
ENDCHAR
STARTCHAR 34A8
ENCODING 13480
SWIDTH 1040 0
DWIDTH 13 0
BBX 12 12 0 -1
BITMAP
0100
2BB0
2DB0
3590
6FB0
A000
3FF0
27C0
3C70
27C0
2420
27E0
ENDCHAR
STARTCHAR 34A9
ENCODING 13481
SWIDTH 1040 0
DWIDTH 13 0
BBX 11 12 1 -1
BITMAP
2F80
4880
4780
7FE0
D280
DF80
5E60
4880
7DC0
7DC0
4CC0
7DA0
ENDCHAR
STARTCHAR 34AA
ENCODING 13482
SWIDTH 1040 0
DWIDTH 13 0
BBX 11 12 1 -1
BITMAP
0400
1A00
FFE0
A500
DEC0
FFC0
7FC0
27E0
BF40
A380
B6C0
C5A0
ENDCHAR
STARTCHAR 34AB
ENCODING 13483
SWIDTH 1040 0
DWIDTH 13 0
BBX 11 11 1 -1
BITMAP
3FC0
2000
3F80
2000
2000
FFE0
1200
1200
2220
6220
83C0
ENDCHAR
STARTCHAR 34AC
ENCODING 13484
SWIDTH 1040 0
DWIDTH 13 0
BBX 11 11 1 -1
BITMAP
F7C0
0100
F900
67C0
6100
6100
6100
A7E0
A020
A020
1FC0
ENDCHAR
STARTCHAR 34AD
ENCODING 13485
SWIDTH 1040 0
DWIDTH 13 0
BBX 12 11 0 -1
BITMAP
7DE0
4620
4620
4620
7DE0
2940
2940
2940
4D50
4950
8230
ENDCHAR
STARTCHAR 34AE
ENCODING 13486
SWIDTH 1040 0
DWIDTH 13 0
BBX 11 11 1 -1
BITMAP
F7E0
0200
F540
6280
6480
61C0
62A0
A480
A300
A020
1FC0
ENDCHAR
STARTCHAR 34AF
ENCODING 13487
SWIDTH 1040 0
DWIDTH 13 0
BBX 12 12 0 -1
BITMAP
2140
AFF0
6940
77F0
22A0
7FF0
52A0
57F0
5080
57F0
4080
0080
ENDCHAR
STARTCHAR 34B0
ENCODING 13488
SWIDTH 1040 0
DWIDTH 13 0
BBX 11 11 1 0
BITMAP
1800
0C00
1300
6080
8060
7F80
0400
0400
0400
0400
FFE0
ENDCHAR
STARTCHAR 34B1
ENCODING 13489
SWIDTH 1040 0
DWIDTH 13 0
BBX 11 12 1 -1
BITMAP
1800
0C00
1200
2180
C860
1F80
6080
9100
0A00
0400
1800
6000
ENDCHAR
STARTCHAR 34B2
ENCODING 13490
SWIDTH 1040 0
DWIDTH 13 0
BBX 11 12 1 -1
BITMAP
1800
0C00
1200
2180
C060
7F80
4080
4080
7F80
4080
7F80
4080
ENDCHAR
STARTCHAR 34B3
ENCODING 13491
SWIDTH 1040 0
DWIDTH 13 0
BBX 10 11 1 -1
BITMAP
FFC0
8440
A440
A540
9540
B5C0
B6C0
CEC0
8440
8440
85C0
ENDCHAR
STARTCHAR 34B4
ENCODING 13492
SWIDTH 1040 0
DWIDTH 13 0
BBX 11 12 1 -1
BITMAP
0C00
0A00
3180
C860
4880
4880
7F80
0800
8840
8840
FFC0
0040
ENDCHAR
STARTCHAR 34B5
ENCODING 13493
SWIDTH 1040 0
DWIDTH 13 0
BBX 10 12 1 -1
BITMAP
0400
0800
7F80
4080
7F80
4080
4080
7F80
1200
3100
60C0
8000
ENDCHAR
STARTCHAR 34B6
ENCODING 13494
SWIDTH 1040 0
DWIDTH 13 0
BBX 11 12 1 -1
BITMAP
0200
1100
2100
4880
8860
7F80
4080
4080
7F80
4080
7F80
4080
ENDCHAR
STARTCHAR 34B7
ENCODING 13495
SWIDTH 1040 0
DWIDTH 13 0
BBX 11 11 1 -1
BITMAP
7F80
4480
4880
4C80
4A80
5180
4080
FFE0
1000
2180
C040
ENDCHAR
STARTCHAR 34B8
ENCODING 13496
SWIDTH 1040 0
DWIDTH 13 0
BBX 11 12 1 -1
BITMAP
2100
1200
FFE0
1800
6880
0D00
1700
E500
0C80
3240
C420
0C00
ENDCHAR
STARTCHAR 34B9
ENCODING 13497
SWIDTH 1040 0
DWIDTH 13 0
BBX 12 12 0 -1
BITMAP
1000
7FF0
1080
79E0
79E0
4A20
79E0
79E0
4A20
FFF0
2920
4210
ENDCHAR
STARTCHAR 34BA
ENCODING 13498
SWIDTH 1040 0
DWIDTH 13 0
BBX 10 11 1 -1
BITMAP
FFC0
9140
8240
BFC0
8440
A440
AB40
A140
BF40
8040
81C0
ENDCHAR
STARTCHAR 34BB
ENCODING 13499
SWIDTH 1040 0
DWIDTH 13 0
BBX 11 12 1 -1
BITMAP
7F80
4080
5F80
7F00
7F80
4080
7F80
7F80
7F80
1220
2220
C3C0
ENDCHAR
STARTCHAR 34BC
ENCODING 13500
SWIDTH 1040 0
DWIDTH 13 0
BBX 11 12 1 -1
BITMAP
0100
FFE0
2100
1F00
0400
FFC0
A440
A540
B5C0
B6C0
8440
84C0
ENDCHAR
STARTCHAR 34BD
ENCODING 13501
SWIDTH 1040 0
DWIDTH 13 0
BBX 11 12 1 -1
BITMAP
7FC0
4040
7F40
7F40
2900
7FC0
FFE0
2080
FF60
2100
2780
3F80
ENDCHAR
STARTCHAR 34BE
ENCODING 13502
SWIDTH 1040 0
DWIDTH 13 0
BBX 11 12 1 -1
BITMAP
7F80
4080
7F80
7F80
4400
F7E0
4D00
77C0
9D40
9540
A420
63C0
ENDCHAR
STARTCHAR 34BF
ENCODING 13503
SWIDTH 1040 0
DWIDTH 13 0
BBX 11 12 1 -1
BITMAP
7F80
4080
5F80
7F80
FA80
BBE0
DE80
FBC0
FA80
DBC0
AA80
9BE0
ENDCHAR
STARTCHAR 34C0
ENCODING 13504
SWIDTH 1040 0
DWIDTH 13 0
BBX 10 11 1 -1
BITMAP
FFC0
8840
8840
0800
0400
0B00
08C0
0800
0800
0800
0800
ENDCHAR
STARTCHAR 34C1
ENCODING 13505
SWIDTH 1040 0
DWIDTH 13 0
BBX 10 5 1 5
BITMAP
FFC0
8040
9100
2080
4040
ENDCHAR
STARTCHAR 34C2
ENCODING 13506
SWIDTH 1040 0
DWIDTH 13 0
BBX 11 11 1 -1
BITMAP
FFE0
8020
7900
07C0
FA80
5480
5380
5180
5660
9020
8FC0
ENDCHAR
STARTCHAR 34C3
ENCODING 13507
SWIDTH 1040 0
DWIDTH 13 0
BBX 11 11 1 -1
BITMAP
FFE0
8020
FB80
0500
F100
F7E0
0100
F100
9120
F120
81C0
ENDCHAR
STARTCHAR 34C4
ENCODING 13508
SWIDTH 1040 0
DWIDTH 13 0
BBX 11 12 1 -1
BITMAP
2080
4880
F7E0
92A0
FEA0
3080
DC80
6980
B580
C9A0
32A0
C0C0
ENDCHAR
STARTCHAR 34C5
ENCODING 13509
SWIDTH 1040 0
DWIDTH 13 0
BBX 11 11 1 -1
BITMAP
5FE0
4100
0100
0100
0100
0100
4100
4100
8100
8100
0300
ENDCHAR
STARTCHAR 34C6
ENCODING 13510
SWIDTH 1040 0
DWIDTH 13 0
BBX 11 12 1 -1
BITMAP
0200
8200
4500
0880
1060
0820
0980
4E00
4800
8840
8840
0780
ENDCHAR
STARTCHAR 34C7
ENCODING 13511
SWIDTH 1040 0
DWIDTH 13 0
BBX 11 12 1 -1
BITMAP
0040
8380
5E00
0200
0200
1FE0
0200
2500
C500
8880
1040
2020
ENDCHAR
STARTCHAR 34C8
ENCODING 13512
SWIDTH 1040 0
DWIDTH 13 0
BBX 11 11 1 -1
BITMAP
9FE0
4400
0400
0400
0FC0
1840
5840
4840
8840
8FC0
0840
ENDCHAR
STARTCHAR 34C9
ENCODING 13513
SWIDTH 1040 0
DWIDTH 13 0
BBX 11 12 1 -1
BITMAP
0040
9F80
4200
0200
1FE0
0200
0200
4FC0
5040
9040
8FC0
0040
ENDCHAR
STARTCHAR 34CA
ENCODING 13514
SWIDTH 1040 0
DWIDTH 13 0
BBX 10 12 1 -1
BITMAP
1FC0
9040
5040
5FC0
1040
1740
1540
5540
5740
9040
9040
10C0
ENDCHAR
STARTCHAR 34CB
ENCODING 13515
SWIDTH 1040 0
DWIDTH 13 0
BBX 11 12 1 -1
BITMAP
0880
8880
4880
1FE0
0880
0880
0880
7FE0
4000
8880
9040
2000
ENDCHAR
STARTCHAR 34CC
ENCODING 13516
SWIDTH 1040 0
DWIDTH 13 0
BBX 11 12 1 -1
BITMAP
0200
8600
4900
1080
2060
1F80
0200
4200
5F80
8200
8200
3FE0
ENDCHAR
STARTCHAR 34CD
ENCODING 13517
SWIDTH 1040 0
DWIDTH 13 0
BBX 11 11 1 0
BITMAP
8200
5FE0
4480
0840
1FA0
0100
4900
4900
8920
9120
20C0
ENDCHAR
STARTCHAR 34CE
ENCODING 13518
SWIDTH 1040 0
DWIDTH 13 0
BBX 12 12 0 -1
BITMAP
0FE0
4020
27E0
2020
0FE0
0FF0
3010
27F0
4240
4180
82C0
0C30
ENDCHAR
STARTCHAR 34CF
ENCODING 13519
SWIDTH 1040 0
DWIDTH 13 0
BBX 11 12 0 -1
BITMAP
0FE0
4820
2AA0
2AA0
0C60
0C60
0BA0
2AA0
2AA0
4BA0
8820
0860
ENDCHAR
STARTCHAR 34D0
ENCODING 13520
SWIDTH 1040 0
DWIDTH 13 0
BBX 11 12 1 -1
BITMAP
0200
9FC0
4200
4200
3FE0
0980
5040
4200
9FC0
8200
8200
3FE0
ENDCHAR
STARTCHAR 34D1
ENCODING 13521
SWIDTH 1040 0
DWIDTH 13 0
BBX 12 12 0 -1
BITMAP
0100
4FE0
2100
1FF0
0440
0480
2FE0
2100
5FF0
4100
8100
0100
ENDCHAR
STARTCHAR 34D2
ENCODING 13522
SWIDTH 1040 0
DWIDTH 13 0
BBX 11 11 1 0
BITMAP
65E0
0E00
0420
63C0
8C00
3380
C860
2A80
4940
C920
1800
ENDCHAR
STARTCHAR 34D3
ENCODING 13523
SWIDTH 1040 0
DWIDTH 13 0
BBX 11 12 1 -1
BITMAP
0200
9FE0
4200
5FC0
1040
1540
5FC0
5240
5FC0
9240
9240
10C0
ENDCHAR
STARTCHAR 34D4
ENCODING 13524
SWIDTH 1040 0
DWIDTH 13 0
BBX 11 12 1 -1
BITMAP
0840
9C40
5440
1DE0
1440
1D40
1540
7D40
8C40
9440
2440
0CC0
ENDCHAR
STARTCHAR 34D5
ENCODING 13525
SWIDTH 1040 0
DWIDTH 13 0
BBX 11 12 1 -1
BITMAP
0140
8100
5FE0
6100
2F00
2540
2EC0
76C0
A480
AA80
A960
4220
ENDCHAR
STARTCHAR 34D6
ENCODING 13526
SWIDTH 1040 0
DWIDTH 13 0
BBX 12 12 0 -1
BITMAP
0FE0
5120
2FE0
3120
0FE0
1FF0
2940
2FE0
4100
5FF0
8100
0100
ENDCHAR
STARTCHAR 34D7
ENCODING 13527
SWIDTH 1040 0
DWIDTH 13 0
BBX 12 12 0 -1
BITMAP
0400
5EF0
5E90
04A0
1F60
0200
2480
2B20
5FE0
4140
8920
1200
ENDCHAR
STARTCHAR 34D8
ENCODING 13528
SWIDTH 1040 0
DWIDTH 13 0
BBX 11 11 1 -1
BITMAP
7FC0
4080
7F80
4F80
7280
4C80
7880
BF40
BF40
8A60
BFE0
ENDCHAR
STARTCHAR 34D9
ENCODING 13529
SWIDTH 1040 0
DWIDTH 13 0
BBX 10 10 1 0
BITMAP
8440
FFC0
8240
B240
8A40
8440
8A40
9140
A040
FFC0
ENDCHAR
STARTCHAR 34DA
ENCODING 13530
SWIDTH 1040 0
DWIDTH 13 0
BBX 10 11 1 0
BITMAP
F940
2140
2140
2140
2140
2140
2140
3940
C040
0040
00C0
ENDCHAR
STARTCHAR 34DB
ENCODING 13531
SWIDTH 1040 0
DWIDTH 13 0
BBX 11 10 1 0
BITMAP
FFE0
4240
4240
4240
4240
4240
3440
C440
0840
31C0
ENDCHAR
STARTCHAR 34DC
ENCODING 13532
SWIDTH 1040 0
DWIDTH 13 0
BBX 10 11 1 0
BITMAP
47C0
4140
4140
9240
F240
2240
3240
4A40
BC40
C440
09C0
ENDCHAR
STARTCHAR 34DD
ENCODING 13533
SWIDTH 1040 0
DWIDTH 13 0
BBX 11 12 1 -1
BITMAP
4820
4940
4940
FD40
4940
4940
FD40
4940
4940
4840
8840
88C0
ENDCHAR
STARTCHAR 34DE
ENCODING 13534
SWIDTH 1040 0
DWIDTH 13 0
BBX 11 12 1 -1
BITMAP
2000
27E0
F920
2120
2120
F920
2220
2240
FA40
2440
2440
29C0
ENDCHAR
STARTCHAR 34DF
ENCODING 13535
SWIDTH 1040 0
DWIDTH 13 0
BBX 10 12 1 -1
BITMAP
1000
1140
7F40
9540
9140
7D40
8540
A940
9940
9840
9440
20C0
ENDCHAR
STARTCHAR 34E0
ENCODING 13536
SWIDTH 1040 0
DWIDTH 13 0
BBX 10 12 1 -1
BITMAP
2000
2140
3D40
2140
2140
2140
F940
8940
8940
8840
F840
80C0
ENDCHAR
STARTCHAR 34E1
ENCODING 13537
SWIDTH 1040 0
DWIDTH 13 0
BBX 10 12 1 -1
BITMAP
4000
4140
7940
A140
FD40
2140
A140
A940
A940
A840
F840
00C0
ENDCHAR
STARTCHAR 34E2
ENCODING 13538
SWIDTH 1040 0
DWIDTH 13 0
BBX 11 12 1 -1
BITMAP
2020
3D40
4540
8940
3140
2940
C740
7D40
4540
4440
7C40
44C0
ENDCHAR
STARTCHAR 34E3
ENCODING 13539
SWIDTH 1040 0
DWIDTH 13 0
BBX 11 12 0 -1
BITMAP
1000
18A0
24A0
42A0
BCA0
00A0
7EA0
42A0
42A0
4220
7E20
4260
ENDCHAR
STARTCHAR 34E4
ENCODING 13540
SWIDTH 1040 0
DWIDTH 13 0
BBX 10 12 1 -1
BITMAP
0040
2140
FD40
2140
2140
FD40
0140
F940
8940
8840
F840
84C0
ENDCHAR
STARTCHAR 34E5
ENCODING 13541
SWIDTH 1040 0
DWIDTH 13 0
BBX 10 12 1 -1
BITMAP
2000
A540
A940
A940
2140
FD40
0540
FD40
0540
0440
FC40
04C0
ENDCHAR
STARTCHAR 34E6
ENCODING 13542
SWIDTH 1040 0
DWIDTH 13 0
BBX 10 12 1 -1
BITMAP
FD40
2140
2140
F940
8940
8940
F940
8940
8940
8840
F840
80C0
ENDCHAR
STARTCHAR 34E7
ENCODING 13543
SWIDTH 1040 0
DWIDTH 13 0
BBX 10 12 1 -1
BITMAP
2000
3140
ED40
1140
F940
0940
1140
FD40
8540
8440
FC40
84C0
ENDCHAR
STARTCHAR 34E8
ENCODING 13544
SWIDTH 1040 0
DWIDTH 13 0
BBX 10 12 1 -1
BITMAP
1000
1140
FF40
1540
9940
A540
ED40
3140
2940
4840
C440
80C0
ENDCHAR
STARTCHAR 34E9
ENCODING 13545
SWIDTH 1040 0
DWIDTH 13 0
BBX 10 12 1 -1
BITMAP
2040
7940
5140
FD40
9540
7D40
9540
9540
FD40
9440
9440
9CC0
ENDCHAR
STARTCHAR 34EA
ENCODING 13546
SWIDTH 1040 0
DWIDTH 13 0
BBX 11 11 1 0
BITMAP
23E0
F920
8920
F920
8920
F920
8240
9240
9240
EC40
85C0
ENDCHAR
STARTCHAR 34EB
ENCODING 13547
SWIDTH 1040 0
DWIDTH 13 0
BBX 11 12 1 -1
BITMAP
1020
FD40
1140
6D40
8140
FD40
4940
FF40
4940
4840
8840
88C0
ENDCHAR
STARTCHAR 34EC
ENCODING 13548
SWIDTH 1040 0
DWIDTH 13 0
BBX 11 12 1 -1
BITMAP
1020
5540
6140
FD40
2140
FF40
4540
FB40
2940
4840
4840
98C0
ENDCHAR
STARTCHAR 34ED
ENCODING 13549
SWIDTH 1040 0
DWIDTH 13 0
BBX 11 12 0 -1
BITMAP
7E00
42A0
7EA0
42A0
7EA0
20A0
3EA0
D2A0
5AA0
7E20
0220
0460
ENDCHAR
STARTCHAR 34EE
ENCODING 13550
SWIDTH 1040 0
DWIDTH 13 0
BBX 10 12 1 -1
BITMAP
7E00
9340
9340
BB40
9340
BB40
BB40
AB40
AB40
BA40
A240
8CC0
ENDCHAR
STARTCHAR 34EF
ENCODING 13551
SWIDTH 1040 0
DWIDTH 13 0
BBX 10 12 1 -1
BITMAP
5400
A540
A940
A540
5540
0140
FD40
9540
FD40
9440
FC40
80C0
ENDCHAR
STARTCHAR 34F0
ENCODING 13552
SWIDTH 1040 0
DWIDTH 13 0
BBX 11 12 1 -1
BITMAP
0020
FEA0
10A0
FAA0
DAA0
DAA0
FAA0
DAA0
DAA0
A220
9E20
62C0
ENDCHAR
STARTCHAR 34F1
ENCODING 13553
SWIDTH 1040 0
DWIDTH 13 0
BBX 10 12 1 -1
BITMAP
1000
3940
4540
F940
0140
ED40
ED40
AD40
ED40
AC40
A440
ECC0
ENDCHAR
STARTCHAR 34F2
ENCODING 13554
SWIDTH 1040 0
DWIDTH 13 0
BBX 11 12 0 -1
BITMAP
1000
3EA0
42A0
42A0
7CA0
3EA0
76A0
76A0
7EA0
7620
B620
2660
ENDCHAR
STARTCHAR 34F3
ENCODING 13555
SWIDTH 1040 0
DWIDTH 13 0
BBX 11 12 1 -1
BITMAP
F840
8A40
FA40
8A40
FA40
FE40
2240
6140
9840
61C0
A000
9FE0
ENDCHAR
STARTCHAR 34F4
ENCODING 13556
SWIDTH 1040 0
DWIDTH 13 0
BBX 11 12 0 -1
BITMAP
0020
7FA0
7EA0
5AA0
5AA0
5AA0
52A0
10A0
7FA0
1820
2420
C2E0
ENDCHAR
STARTCHAR 34F5
ENCODING 13557
SWIDTH 1040 0
DWIDTH 13 0
BBX 10 12 1 -1
BITMAP
FC00
B540
B540
FD40
FD40
0140
FF40
4140
7D40
0440
0840
38C0
ENDCHAR
STARTCHAR 34F6
ENCODING 13558
SWIDTH 1040 0
DWIDTH 13 0
BBX 10 12 1 -1
BITMAP
4000
FE40
4B40
EB40
4D40
F540
5D40
1140
FF40
3040
4C40
80C0
ENDCHAR
STARTCHAR 34F7
ENCODING 13559
SWIDTH 1040 0
DWIDTH 13 0
BBX 10 12 1 -1
BITMAP
2000
FD40
8540
7D40
7D40
8540
FD40
FD40
3140
6840
A440
00C0
ENDCHAR
STARTCHAR 34F8
ENCODING 13560
SWIDTH 1040 0
DWIDTH 13 0
BBX 10 12 1 -1
BITMAP
FC00
B540
B540
FD40
3140
FD40
8540
FD40
3140
3040
7C40
80C0
ENDCHAR
STARTCHAR 34F9
ENCODING 13561
SWIDTH 1040 0
DWIDTH 13 0
BBX 11 12 0 -1
BITMAP
7F00
4460
5960
6A60
4C60
5260
6160
5960
6A60
8C20
9220
2160
ENDCHAR
STARTCHAR 34FA
ENCODING 13562
SWIDTH 1040 0
DWIDTH 13 0
BBX 11 12 0 -1
BITMAP
0800
0EA0
7FA0
52A0
7CA0
4EA0
48A0
7FA0
54A0
4C20
8C20
3260
ENDCHAR
STARTCHAR 34FB
ENCODING 13563
SWIDTH 1040 0
DWIDTH 13 0
BBX 10 12 1 -1
BITMAP
FD00
B540
B540
FD40
0140
FD40
1140
1D40
9140
9040
9C40
E0C0
ENDCHAR
STARTCHAR 34FC
ENCODING 13564
SWIDTH 1040 0
DWIDTH 13 0
BBX 10 11 1 0
BITMAP
FF40
3140
6D40
9140
3940
C540
2140
6940
2840
E640
60C0
ENDCHAR
STARTCHAR 34FD
ENCODING 13565
SWIDTH 1040 0
DWIDTH 13 0
BBX 10 12 1 -1
BITMAP
0040
A540
FD40
2140
FD40
FD40
0140
FD40
2140
A440
A440
20C0
ENDCHAR
STARTCHAR 34FE
ENCODING 13566
SWIDTH 1040 0
DWIDTH 13 0
BBX 11 12 1 -1
BITMAP
FE20
82A0
FEA0
8AA0
ACA0
FEA0
88A0
BEA0
C8A0
FE20
8820
08C0
ENDCHAR
STARTCHAR 34FF
ENCODING 13567
SWIDTH 1040 0
DWIDTH 13 0
BBX 10 12 1 -1
BITMAP
0C40
F140
FF40
3140
ED40
3140
CD40
0140
6940
2840
E640
60C0
ENDCHAR
STARTCHAR 3500
ENCODING 13568
SWIDTH 1040 0
DWIDTH 13 0
BBX 11 12 1 -1
BITMAP
FC20
8520
FD20
FD20
1120
FF20
7D20
8520
7C20
5420
9220
30C0
ENDCHAR
STARTCHAR 3501
ENCODING 13569
SWIDTH 1040 0
DWIDTH 13 0
BBX 10 12 1 -1
BITMAP
E000
2940
CB40
4540
BB40
7D40
8540
8540
7D40
4840
0C40
F0C0
ENDCHAR
STARTCHAR 3502
ENCODING 13570
SWIDTH 1040 0
DWIDTH 13 0
BBX 11 12 1 -1
BITMAP
1020
5520
FF20
3120
5D20
9120
6F20
A520
7420
5E20
4420
84C0
ENDCHAR
STARTCHAR 3503
ENCODING 13571
SWIDTH 1040 0
DWIDTH 13 0
BBX 11 12 1 -1
BITMAP
2200
5380
EFE0
5540
EFC0
9420
B7E0
0000
7FC0
0840
3040
C180
ENDCHAR
STARTCHAR 3504
ENCODING 13572
SWIDTH 1040 0
DWIDTH 13 0
BBX 10 12 1 -1
BITMAP
FE00
2940
FF40
AB40
AB40
FF40
5540
FF40
3040
5C40
9240
10C0
ENDCHAR
STARTCHAR 3505
ENCODING 13573
SWIDTH 1040 0
DWIDTH 13 0
BBX 10 12 1 -1
BITMAP
1000
7CC0
FEC0
14C0
FCC0
92C0
D6C0
92C0
FEC0
D640
DA40
12C0
ENDCHAR
STARTCHAR 3506
ENCODING 13574
SWIDTH 1040 0
DWIDTH 13 0
BBX 10 12 1 -1
BITMAP
FE00
4540
D540
FF40
CD40
B740
FD40
8540
FC40
8440
8440
FCC0
ENDCHAR
STARTCHAR 3507
ENCODING 13575
SWIDTH 1040 0
DWIDTH 13 0
BBX 12 12 0 -1
BITMAP
7010
5650
2350
2150
F750
1A50
7B50
4E50
7A50
2610
2610
6860
ENDCHAR
STARTCHAR 3508
ENCODING 13576
SWIDTH 1040 0
DWIDTH 13 0
BBX 10 12 1 -1
BITMAP
4800
FF40
4940
0140
2940
EF40
2940
ED40
2940
EE40
2840
28C0
ENDCHAR
STARTCHAR 3509
ENCODING 13577
SWIDTH 1040 0
DWIDTH 13 0
BBX 12 12 0 -1
BITMAP
3F10
4150
3F50
4750
5C50
5F50
5F50
4450
7F50
6710
A910
2360
ENDCHAR
STARTCHAR 350A
ENCODING 13578
SWIDTH 1040 0
DWIDTH 13 0
BBX 10 12 1 -1
BITMAP
2000
FF40
FD40
8540
FD40
B540
7940
BD40
FD40
FC40
0040
FCC0
ENDCHAR
STARTCHAR 350B
ENCODING 13579
SWIDTH 1040 0
DWIDTH 13 0
BBX 10 12 1 -1
BITMAP
F400
C840
EF40
A940
E540
C540
F340
FF40
AB40
AA40
BE40
C0C0
ENDCHAR
STARTCHAR 350C
ENCODING 13580
SWIDTH 1040 0
DWIDTH 13 0
BBX 10 12 1 -1
BITMAP
EE00
A340
EB40
E540
BB40
E340
7D40
1340
DD40
5440
9240
10C0
ENDCHAR
STARTCHAR 350D
ENCODING 13581
SWIDTH 1040 0
DWIDTH 13 0
BBX 10 12 1 -1
BITMAP
8800
FF40
9540
7D40
7D40
8540
7D40
7D40
4940
FE40
4840
88C0
ENDCHAR
STARTCHAR 350E
ENCODING 13582
SWIDTH 1040 0
DWIDTH 13 0
BBX 11 12 1 -1
BITMAP
A900
FFE0
4000
FA80
7FE0
87C0
F900
7800
FFC0
1040
3040
8180
ENDCHAR
STARTCHAR 350F
ENCODING 13583
SWIDTH 1040 0
DWIDTH 13 0
BBX 11 12 0 -1
BITMAP
7F00
1060
3E60
6260
1E60
0060
7760
2460
7760
DD20
7720
5560
ENDCHAR
STARTCHAR 3510
ENCODING 13584
SWIDTH 1040 0
DWIDTH 13 0
BBX 11 12 0 -1
BITMAP
0400
77A0
6CA0
82A0
7FA0
76A0
18A0
76A0
76A0
1820
7E20
0060
ENDCHAR
STARTCHAR 3511
ENCODING 13585
SWIDTH 1040 0
DWIDTH 13 0
BBX 11 12 1 -1
BITMAP
1000
FFE0
F100
97E0
F7E0
F100
97E0
F100
FFC0
0840
1040
E180
ENDCHAR
STARTCHAR 3512
ENCODING 13586
SWIDTH 1040 0
DWIDTH 13 0
BBX 10 12 1 -1
BITMAP
8000
FD40
5140
BD40
FD40
FD40
7F40
FF40
AD40
FC40
FC40
84C0
ENDCHAR
STARTCHAR 3513
ENCODING 13587
SWIDTH 1040 0
DWIDTH 13 0
BBX 11 12 1 -1
BITMAP
0900
F100
2100
27E0
2120
FD20
2120
2120
2220
2240
2440
28C0
ENDCHAR
STARTCHAR 3514
ENCODING 13588
SWIDTH 1040 0
DWIDTH 13 0
BBX 10 12 1 -1
BITMAP
2000
23C0
FA40
4A40
4A40
BBC0
8000
3F00
40C0
8040
4080
3F00
ENDCHAR
STARTCHAR 3515
ENCODING 13589
SWIDTH 1040 0
DWIDTH 13 0
BBX 11 12 1 -1
BITMAP
4100
7900
8100
FBE0
0140
F940
0940
1140
1240
1640
0A40
05C0
ENDCHAR
STARTCHAR 3516
ENCODING 13590
SWIDTH 1040 0
DWIDTH 13 0
BBX 10 12 1 -1
BITMAP
2000
23C0
FA40
4A40
4A40
4BC0
B000
0000
FFC0
0040
0040
0040
ENDCHAR
STARTCHAR 3517
ENCODING 13591
SWIDTH 1040 0
DWIDTH 13 0
BBX 10 12 1 -1
BITMAP
1000
FD00
5500
57C0
FD40
D140
FD40
5540
5540
5E40
9240
10C0
ENDCHAR
STARTCHAR 3518
ENCODING 13592
SWIDTH 1040 0
DWIDTH 13 0
BBX 11 12 1 -1
BITMAP
2100
A900
A900
ABE0
A920
F920
2120
A920
AA20
AA40
FA40
05C0
ENDCHAR
STARTCHAR 3519
ENCODING 13593
SWIDTH 1040 0
DWIDTH 13 0
BBX 11 12 1 -1
BITMAP
0900
5100
5100
FBE0
5120
5120
FD20
5140
5240
9240
9440
95C0
ENDCHAR
STARTCHAR 351A
ENCODING 13594
SWIDTH 1040 0
DWIDTH 13 0
BBX 11 12 1 -1
BITMAP
0900
F100
23E0
2140
F940
2140
F940
8940
8A40
8A40
FC40
85C0
ENDCHAR
STARTCHAR 351B
ENCODING 13595
SWIDTH 1040 0
DWIDTH 13 0
BBX 11 12 1 -1
BITMAP
0400
FFE0
7FC0
0000
7F80
4080
7F80
0800
FFC0
0840
3040
C380
ENDCHAR
STARTCHAR 351C
ENCODING 13596
SWIDTH 1040 0
DWIDTH 13 0
BBX 11 12 1 -1
BITMAP
0D00
F500
A500
8BE0
FD20
0920
1120
1D40
E240
2240
2440
69C0
ENDCHAR
STARTCHAR 351D
ENCODING 13597
SWIDTH 1040 0
DWIDTH 13 0
BBX 11 12 1 -1
BITMAP
FC80
2100
FD00
A7E0
E520
ED20
ED20
F520
9540
A540
AE40
02C0
ENDCHAR
STARTCHAR 351E
ENCODING 13598
SWIDTH 1040 0
DWIDTH 13 0
BBX 11 12 1 -1
BITMAP
0900
F100
2100
FFE0
2120
6920
ED20
6920
EE40
6240
2440
2DC0
ENDCHAR
STARTCHAR 351F
ENCODING 13599
SWIDTH 1040 0
DWIDTH 13 0
BBX 11 12 1 -1
BITMAP
2100
A100
FFC0
2140
7A40
2340
7D60
8420
7FC0
0880
3080
C380
ENDCHAR
STARTCHAR 3520
ENCODING 13600
SWIDTH 1040 0
DWIDTH 13 0
BBX 11 12 1 -1
BITMAP
F800
8900
F900
8BE0
F920
4120
FD20
A520
B540
F640
0A40
18C0
ENDCHAR
STARTCHAR 3521
ENCODING 13601
SWIDTH 1040 0
DWIDTH 13 0
BBX 11 12 1 -1
BITMAP
2100
FD00
8900
BBE0
F920
F920
1140
9D40
F540
9240
BA40
D5C0
ENDCHAR
STARTCHAR 3522
ENCODING 13602
SWIDTH 1040 0
DWIDTH 13 0
BBX 11 12 1 -1
BITMAP
4200
4780
EFC0
5540
F7C0
9420
B7E0
0800
FFC0
0840
1080
E380
ENDCHAR
STARTCHAR 3523
ENCODING 13603
SWIDTH 1040 0
DWIDTH 13 0
BBX 11 12 1 -1
BITMAP
F900
A900
F900
ABE0
F920
0120
FD20
FD40
FD40
FE40
FE40
B0C0
ENDCHAR
STARTCHAR 3524
ENCODING 13604
SWIDTH 1040 0
DWIDTH 13 0
BBX 11 12 1 -1
BITMAP
2000
FD00
9D00
6BE0
6920
FD40
6940
F940
A940
FA40
FA40
81C0
ENDCHAR
STARTCHAR 3525
ENCODING 13605
SWIDTH 1040 0
DWIDTH 13 0
BBX 11 12 1 -1
BITMAP
FE80
AC80
FC80
61E0
ACA0
52A0
EEA0
E0A0
A720
F940
B340
EEC0
ENDCHAR
STARTCHAR 3526
ENCODING 13606
SWIDTH 1040 0
DWIDTH 13 0
BBX 11 12 1 -1
BITMAP
4880
FC80
F880
23E0
FD20
8920
7D20
7920
7940
A940
9240
ECC0
ENDCHAR
STARTCHAR 3527
ENCODING 13607
SWIDTH 1040 0
DWIDTH 13 0
BBX 12 12 0 -1
BITMAP
1E40
1040
7E40
7DF0
5E50
7E90
6A90
7E90
5490
7E90
BB20
2560
ENDCHAR
STARTCHAR 3528
ENCODING 13608
SWIDTH 1040 0
DWIDTH 13 0
BBX 11 12 1 -1
BITMAP
2000
7FE0
5440
FB40
1D40
7740
7E40
7E40
4240
7E40
4240
4680
ENDCHAR
STARTCHAR 3529
ENCODING 13609
SWIDTH 1040 0
DWIDTH 13 0
BBX 11 12 1 -1
BITMAP
2000
7FE0
4840
FF40
0840
FF40
2140
1F40
7F40
5540
FFC0
01C0
ENDCHAR
STARTCHAR 352A
ENCODING 13610
SWIDTH 1040 0
DWIDTH 13 0
BBX 11 12 1 -1
BITMAP
2000
3FE0
4020
8FA0
1020
7F40
AD40
9540
AF40
BB40
8140
FEC0
ENDCHAR
STARTCHAR 352B
ENCODING 13611
SWIDTH 1040 0
DWIDTH 13 0
BBX 11 12 1 -1
BITMAP
0800
1000
1000
FFE0
1400
1440
1480
1700
2400
2420
4420
87C0
ENDCHAR
STARTCHAR 352C
ENCODING 13612
SWIDTH 1040 0
DWIDTH 13 0
BBX 11 12 1 -1
BITMAP
4080
7F00
7FC0
0000
7F80
7F80
4080
7F80
0400
FFE0
0400
0400
ENDCHAR
STARTCHAR 352D
ENCODING 13613
SWIDTH 1040 0
DWIDTH 13 0
BBX 11 12 1 -1
BITMAP
0FC0
8840
8FC0
F840
8FC0
8000
9FE0
8A00
E9C0
8A00
1600
11E0
ENDCHAR
STARTCHAR 352E
ENCODING 13614
SWIDTH 1040 0
DWIDTH 13 0
BBX 11 12 1 -1
BITMAP
2400
FB20
AAC0
4D20
FEC0
FA00
4F00
FB40
FE80
4B20
AB20
0AC0
ENDCHAR
STARTCHAR 352F
ENCODING 13615
SWIDTH 1040 0
DWIDTH 13 0
BBX 11 12 1 -1
BITMAP
FFE0
8000
9F00
9100
9100
A1E0
9F80
9080
9080
9F80
8000
FFE0
ENDCHAR
STARTCHAR 3530
ENCODING 13616
SWIDTH 1040 0
DWIDTH 13 0
BBX 11 12 1 -1
BITMAP
FFC0
9100
9100
AD00
A500
D980
8940
8900
9100
B100
A100
FFE0
ENDCHAR
STARTCHAR 3531
ENCODING 13617
SWIDTH 1040 0
DWIDTH 13 0
BBX 11 10 1 0
BITMAP
FFE0
8400
BDC0
BDC0
A440
BFC0
8600
9980
A040
FFE0
ENDCHAR
STARTCHAR 3532
ENCODING 13618
SWIDTH 1040 0
DWIDTH 13 0
BBX 11 12 1 -1
BITMAP
FFE0
9100
A900
D780
B980
B980
AA80
BA80
AAA0
B440
8000
FFE0
ENDCHAR
STARTCHAR 3533
ENCODING 13619
SWIDTH 1040 0
DWIDTH 13 0
BBX 11 12 1 -1
BITMAP
FFE0
9000
9B80
F680
BA80
BA80
AA80
BA80
AAA0
B4E0
8000
FFE0
ENDCHAR
STARTCHAR 3534
ENCODING 13620
SWIDTH 1040 0
DWIDTH 13 0
BBX 11 12 1 -1
BITMAP
FFE0
8000
BF80
BF80
A480
BFC0
BFC0
9100
FFE0
9980
A040
FFE0
ENDCHAR
STARTCHAR 3535
ENCODING 13621
SWIDTH 1040 0
DWIDTH 13 0
BBX 11 12 1 -1
BITMAP
FFE0
8000
BBC0
BBC0
A640
B9C0
BFC0
8900
FFC0
9980
A040
FFE0
ENDCHAR
STARTCHAR 3536
ENCODING 13622
SWIDTH 1040 0
DWIDTH 13 0
BBX 11 12 1 -1
BITMAP
FFE0
8100
FAC0
A980
FF40
B8E0
BBC0
BA40
93C0
FBC0
9240
FFE0
ENDCHAR
STARTCHAR 3537
ENCODING 13623
SWIDTH 1040 0
DWIDTH 13 0
BBX 11 12 1 -1
BITMAP
FFE0
8000
BFC0
8200
9FC0
A240
A640
A940
A040
A1C0
8000
FFE0
ENDCHAR
STARTCHAR 3538
ENCODING 13624
SWIDTH 1040 0
DWIDTH 13 0
BBX 11 12 1 -1
BITMAP
FFE0
8080
BF00
A380
A200
AFC0
ABC0
A800
B300
9CC0
8000
FFE0
ENDCHAR
STARTCHAR 3539
ENCODING 13625
SWIDTH 1040 0
DWIDTH 13 0
BBX 11 12 1 -1
BITMAP
4000
4200
4200
EFE0
4220
4220
4240
4240
4440
4440
4840
51C0
ENDCHAR
STARTCHAR 353A
ENCODING 13626
SWIDTH 1040 0
DWIDTH 13 0
BBX 11 11 1 0
BITMAP
0400
7FC0
0400
2480
2080
FFE0
2080
2080
2020
2020
3FC0
ENDCHAR
STARTCHAR 353B
ENCODING 13627
SWIDTH 1040 0
DWIDTH 13 0
BBX 11 12 1 -1
BITMAP
FFE0
0400
0E00
1580
6440
8420
0400
0400
FFE0
0400
0400
0400
ENDCHAR
ENDFONT
